<?xml version="1.0" encoding="utf-8"?>
<!-- Generator: Adobe Illustrator 25.0.0, SVG Export Plug-In . SVG Version: 6.00 Build 0)  -->
<svg version="1.1" id="Layer_1" xmlns="http://www.w3.org/2000/svg" xmlns:xlink="http://www.w3.org/1999/xlink" x="0px" y="0px"
	 viewBox="0 0 1920 1080" style="enable-background:new 0 0 1920 1080;" xml:space="preserve">
<style type="text/css">
	.st0{display:none;}
	.st1{display:inline;opacity:0.4;}
	.st2{display:inline;}
	.st3{fill:url(#SVGID_1_);}
	.st4{fill:#FFFCE1;}
	.st5{opacity:0.3;fill:#FFFCE1;enable-background:new    ;}
	.st6{opacity:0.11;fill:#FFFCE1;enable-background:new    ;}
	.st7{opacity:0.27;fill:url(#SVGID_2_);enable-background:new    ;}
	.st8{display:none;opacity:0.27;fill:url(#SVGID_3_);enable-background:new    ;}
	.st9{opacity:0.27;fill:url(#SVGID_4_);enable-background:new    ;}
	.st10{fill:url(#SVGID_5_);}
	.st11{fill:#BC7133;}
	.st12{opacity:9.000000e-02;enable-background:new    ;}
	.st13{fill:#F2F2F2;}
	.st14{fill:#EDEDED;}
	.st15{fill:#103E49;}
	.st16{fill:#0A3138;}
	.st17{fill:#471022;}
	.st18{fill:#350818;}
</style>
<g id="Layer_1_1_" class="st0">
	<g id="sADeK7_1_" class="st1">
		
			<image style="overflow:visible;enable-background:new    ;" width="800" height="600" id="sADeK7_2_" xlink:href="FE519806E14AA466.jpeg"  transform="matrix(1.8 0 0 1.8 240 0)">
		</image>
	</g>
	<g id="sADeK7_3_" class="st2">
		
			<image style="overflow:visible;enable-background:new    ;" width="800" height="600" id="sADeK7_4_" xlink:href="FE519806E14AA46A.jpeg"  transform="matrix(1.8 0 0 1.8 -1447 0)">
		</image>
	</g>
</g>
<g id="BG">
	
		<linearGradient id="SVGID_1_" gradientUnits="userSpaceOnUse" x1="973" y1="-11" x2="973" y2="1109" gradientTransform="matrix(1 0 0 -1 0 1080)">
		<stop  offset="0" style="stop-color:#FFFFFF"/>
		<stop  offset="0.1051" style="stop-color:#CEE0E8"/>
		<stop  offset="0.236" style="stop-color:#98BECF"/>
		<stop  offset="0.3685" style="stop-color:#6AA1BA"/>
		<stop  offset="0.4996" style="stop-color:#4389A8"/>
		<stop  offset="0.6292" style="stop-color:#26769B"/>
		<stop  offset="0.7568" style="stop-color:#116991"/>
		<stop  offset="0.8815" style="stop-color:#04618B"/>
		<stop  offset="1" style="stop-color:#005E89"/>
	</linearGradient>
	<rect x="-7" y="-29" class="st3" width="1960" height="1120"/>
	<circle class="st4" cx="1194" cy="183" r="4"/>
	<circle class="st4" cx="258" cy="434" r="4"/>
	<circle class="st4" cx="556" cy="150" r="4"/>
	<circle class="st4" cx="94" cy="69" r="4"/>
	<path class="st4" d="M685.3,316.9c-0.4,0.5-2.4-0.4-4.4-1.9S432.3,117.6,432.7,117.1s247.6,194.5,249.6,196.1
		C684.4,314.7,685.7,316.4,685.3,316.9z"/>
	<path class="st5" d="M413.8,246.6c-0.7,0.9-2.9,0.2-5-1.4c-2.1-1.7-259.2-206.3-258.5-207.2c0.7-0.9,258.9,202.4,261,204.1
		C413.3,243.7,414.5,245.7,413.8,246.6z"/>
	<path class="st6" d="M560.3,446.9c-0.4,0.5-1.5,0.3-2.4-0.4s-116-92.5-115.6-93.1c0.4-0.5,116.2,90.4,117.1,91.2
		C560.2,445.4,560.7,446.4,560.3,446.9z"/>
	<circle class="st4" cx="1549" cy="254" r="4"/>
	<circle class="st4" cx="1553" cy="77" r="4"/>
	<circle class="st4" cx="1336" cy="516" r="4"/>
	<circle class="st4" cx="1061" cy="50" r="4"/>
	<circle class="st4" cx="740" cy="101" r="4"/>
	<circle class="st4" cx="1334" cy="115" r="2"/>
	<circle class="st4" cx="1420" cy="200" r="2"/>
	<circle class="st4" cx="1693" cy="139" r="2"/>
	<circle class="st4" cx="1772" cy="103" r="2"/>
	<circle class="st4" cx="1824" cy="295" r="2"/>
	<circle class="st4" cx="1656" cy="293" r="2"/>
	<circle class="st4" cx="1634" cy="148" r="2"/>
	<circle class="st4" cx="898" cy="183" r="2"/>
	<circle class="st4" cx="958" cy="165" r="2"/>
	<circle class="st4" cx="991" cy="234" r="2"/>
	<circle class="st4" cx="1384" cy="46" r="2"/>
	<circle class="st4" cx="256" cy="574" r="4"/>
	<circle class="st4" cx="123" cy="441" r="4"/>
	<circle class="st4" cx="396" cy="506" r="2"/>
	<circle class="st4" cx="482" cy="591" r="2"/>
	<circle class="st4" cx="-40" cy="574" r="2"/>
	<circle class="st4" cx="20" cy="556" r="2"/>
	<circle class="st4" cx="53" cy="625" r="2"/>
	<circle class="st4" cx="446" cy="437" r="2"/>
	<circle class="st4" cx="1804" cy="184" r="4"/>
	<circle class="st4" cx="1512" cy="484" r="4"/>
	<circle class="st4" cx="1516" cy="307" r="4"/>
	<circle class="st4" cx="1869" cy="428" r="4"/>
	<circle class="st4" cx="1671" cy="51" r="4"/>
	<circle class="st4" cx="1297" cy="345" r="2"/>
	<circle class="st4" cx="1383" cy="430" r="2"/>
	<circle class="st4" cx="1187" cy="283" r="2"/>
	<circle class="st4" cx="1735" cy="333" r="2"/>
	<circle class="st4" cx="1787" cy="525" r="2"/>
	<circle class="st4" cx="1619" cy="523" r="2"/>
	<circle class="st4" cx="1597" cy="378" r="2"/>
	<circle class="st4" cx="1347" cy="276" r="2"/>
	<circle class="st4" cx="486" cy="518" r="2"/>
	<circle class="st4" cx="394" cy="48" r="2"/>
	<circle class="st4" cx="92" cy="236" r="2"/>
	<circle class="st4" cx="396" cy="281" r="2"/>
	<circle class="st4" cx="292" cy="128" r="2"/>
	<circle class="st4" cx="294" cy="218" r="2"/>
	<circle class="st4" cx="166" cy="355" r="2"/>
	<circle class="st4" cx="325" cy="608" r="2"/>
	<circle class="st4" cx="679" cy="216" r="2"/>
</g>
<g id="overlay">
</g>
<g id="Mountains">
	
		<linearGradient id="SVGID_2_" gradientUnits="userSpaceOnUse" x1="521.84" y1="65.51" x2="521.84" y2="353" gradientTransform="matrix(1 0 0 -1 0 1080)">
		<stop  offset="0" style="stop-color:#FFFFFF"/>
		<stop  offset="0.1051" style="stop-color:#CEE0E8"/>
		<stop  offset="0.236" style="stop-color:#98BECF"/>
		<stop  offset="0.3685" style="stop-color:#6AA1BA"/>
		<stop  offset="0.4996" style="stop-color:#4389A8"/>
		<stop  offset="0.6292" style="stop-color:#26769B"/>
		<stop  offset="0.7568" style="stop-color:#116991"/>
		<stop  offset="0.8815" style="stop-color:#04618B"/>
		<stop  offset="1" style="stop-color:#005E89"/>
	</linearGradient>
	<path class="st7" d="M1125,980l-193-70l-64-32l-62,20l-142-15l-33-26l-56.3-18.4L538,773l-28-46l-47,52l-68,32l-51,69l-31,22
		l-103-31l-97,10l-49-72l-96-42l9,140.7l-64,42.4V992l1211.9,22.5c1.8-11.8,3.8-23.5,5.8-35.3L1125,980z"/>
	
		<linearGradient id="SVGID_3_" gradientUnits="userSpaceOnUse" x1="1196.8401" y1="-34.49" x2="1196.8401" y2="245" gradientTransform="matrix(1 0 0 -1 0 1080)">
		<stop  offset="0" style="stop-color:#FFFFFF"/>
		<stop  offset="0.1051" style="stop-color:#CEE0E8"/>
		<stop  offset="0.236" style="stop-color:#98BECF"/>
		<stop  offset="0.3685" style="stop-color:#6AA1BA"/>
		<stop  offset="0.4996" style="stop-color:#4389A8"/>
		<stop  offset="0.6292" style="stop-color:#26769B"/>
		<stop  offset="0.7568" style="stop-color:#116991"/>
		<stop  offset="0.8815" style="stop-color:#04618B"/>
		<stop  offset="1" style="stop-color:#005E89"/>
	</linearGradient>
	<path class="st8" d="M1800,1080l-193-70l-64-32l-62,20l-38-56l-87-51l-92-20l-83,10l-40-46l-36,40l-78,59l18,47l-46,13l-47-17
		l-72-9l-126.1,39.7L701,983l-49,24.7l-64,42.4v41.9l1211.9,22.5c1.8-11.8,3.8-23.5,5.8-35.3L1800,1080z"/>
	
		<linearGradient id="SVGID_4_" gradientUnits="userSpaceOnUse" x1="1567.465" y1="56.99" x2="1567.465" y2="257" gradientTransform="matrix(1 0 0 -1 0 1080)">
		<stop  offset="0" style="stop-color:#FFFFFF"/>
		<stop  offset="0.1051" style="stop-color:#CEE0E8"/>
		<stop  offset="0.236" style="stop-color:#98BECF"/>
		<stop  offset="0.3685" style="stop-color:#6AA1BA"/>
		<stop  offset="0.4996" style="stop-color:#4389A8"/>
		<stop  offset="0.6292" style="stop-color:#26769B"/>
		<stop  offset="0.7568" style="stop-color:#116991"/>
		<stop  offset="0.8815" style="stop-color:#04618B"/>
		<stop  offset="1" style="stop-color:#005E89"/>
	</linearGradient>
	<path class="st9" d="M1931,866l-41-9l-67,38l-55-41l-82-31l-56,51l-69,21l-58-2l-132,53l-240.3,33.2c-2,11.8-3.9,23.5-5.8,35.3
		l459.2,8.5l366-31l59.9-37L1931,866z"/>
</g>
<g id="Land">
	
		<linearGradient id="SVGID_5_" gradientUnits="userSpaceOnUse" x1="971" y1="157" x2="971" y2="-45" gradientTransform="matrix(1 0 0 -1 0 1080)">
		<stop  offset="0" style="stop-color:#FFFFFF"/>
		<stop  offset="0.1462" style="stop-color:#FCFDFD"/>
		<stop  offset="0.2745" style="stop-color:#F1F6F8"/>
		<stop  offset="0.3961" style="stop-color:#DFEBF0"/>
		<stop  offset="0.5137" style="stop-color:#C5DBE4"/>
		<stop  offset="0.6285" style="stop-color:#A5C6D5"/>
		<stop  offset="0.741" style="stop-color:#7CADC3"/>
		<stop  offset="0.8517" style="stop-color:#4D8EAD"/>
		<stop  offset="0.9583" style="stop-color:#176D94"/>
		<stop  offset="1" style="stop-color:#005E89"/>
	</linearGradient>
	<rect x="-23" y="923" class="st10" width="1988" height="202"/>
</g>
<g id="snowman">
	<polygon class="st11" points="1097,834 1084,832 1093,843 	"/>
	
		<ellipse transform="matrix(0.3202 -0.9474 0.9474 0.3202 -146.7059 1765.26)" class="st12" cx="1156.6" cy="984.9" rx="32.3" ry="74"/>
	<path class="st13" d="M1097,938c3-18,9-35,20-49c7.3-10,22.1-12.6,35.3-14.5c-6.6-2.7-13.8-4.2-21.3-4.2c-30.8,0-55.8,25-55.8,55.8
		c0,23.2,14.1,43,34.2,51.5C1100.6,966,1099,952,1097,938z"/>
	<path class="st14" d="M1186.8,926.2c0-23.3-14.3-43.3-34.6-51.6c-13.2,1.9-31,5.4-38.3,15.5c-11,14-16,23-19,41
		c-1.6,14,5.6,35,14.3,46.6c6.7,2.8,14,4.4,21.7,4.4C1161.8,982,1186.8,957,1186.8,926.2z"/>
	<path class="st13" d="M1107,849c0-18.5,12.1-40,30.9-44.4c-2.2-0.4-4.5-0.6-6.9-0.6c-22.2,0-40.1,18-40.1,40.1
		c0,19.3,13.6,35.4,31.8,39.3C1112.9,874.5,1106.1,862.1,1107,849z"/>
	<path class="st14" d="M1137.9,804.6c-18.8,4.5-32.9,24.8-32.9,43.4c-0.9,13.1,7.9,26.5,17.7,35.4c2.7,0.6,5.5,0.9,8.3,0.9
		c22.2,0,40.1-18,40.1-40.1C1171.1,824.3,1156.8,807.9,1137.9,804.6z"/>
	<path class="st15" d="M1167.7,814c-0.6-2.5,0-5.9-1.9-7.9c-2.2-2.2-7.8-5.8-12-7.6s-17.8-1.2-23.1,0c-5.3,1.2-16.7,5.8-20.7,8.8
		s-7,7-7,7l-2,2.6c0,0,0,7,3,11c1,1.4,2.6,3,4.3,4.6C1124,815.3,1146.4,804,1167.7,814z"/>
	<path class="st16" d="M1172,824c-0.8-2.1-2.9-6.6-4-9c-0.1-0.3-0.2-0.6-0.3-1c-21.3-10.1-43.7,1.3-59.4,18.6
		c3.3,3,7.4,6.1,10.7,7.4c12.1,4.8,15,5.6,21,7s17-1,23-2s7.8-5.9,7.8-5.9S1175,832,1172,824z"/>
	<path class="st17" d="M1112.4,870.4c-2.3-0.2-4.3-0.6-6.4-1.4c-5.7-2-9.9-6.3-11-5c-0.8,1,0.9,4.2,1,9c0,1.3,0.1,3.5-1,6
		c-0.9,2.1-2,3.1-2,5c0,0,0,1.5,1,3c2.4,3.9,11.3,6,17.5,7.1C1116.9,886,1122.2,878.9,1112.4,870.4z"/>
	<path class="st18" d="M1170,884c-1.2-6.3-4.8-6.3-4-10c0.3-1.4,0.3-6.8,0-8c-0.4-1.8-3.1,1.3-5,1c-3-0.4-8,1-11,2s-6.5,0.2-20,1
		c-7.9,0.5-13.2,0.8-17.6,0.4c9.8,8.5,4.5,15.6-0.9,23.8c3.7,0.6,6.5,0.9,6.5,0.9c15,1.3,23.3,0.6,40-1c3.8-0.4,10.3-1,12-5
		C1170.2,888.6,1170.7,887.3,1170,884z"/>
</g>
</svg>
