<svg id="Layer_3" data-name="Layer 3" xmlns="http://www.w3.org/2000/svg" viewBox="0 0 1000 1000"><defs><style>.cls-1{fill:#d8d8d8;}.cls-2{fill:#333;}.cls-3{fill:#fcfcfc;}.cls-4{fill:#8d969e;}.cls-5{fill:#797e82;}.cls-6{fill:#cedadb;}.cls-7{fill:#001019;}.cls-8{fill:#8e8e8e;}.cls-9{fill:#4f4f4f;}.cls-10{fill:#bcbcbc;}</style></defs><path class="cls-1" d="M240.39,282.08c.08,1.56.16,3.12.25,4.68a13.91,13.91,0,0,1-5.73-2.56c-1.16-.87-2.07-2.11-3.21-3a12.32,12.32,0,0,1-1.08-1.31c3-5.56,8-7,13.84-7.78a12.4,12.4,0,0,0-4.08,8,.92.92,0,0,0,0,.16c0,.06,0,.11,0,.16v.07a5.83,5.83,0,0,0,0,.71c0,.08,0,.16,0,.24s0,.32,0,.51A.38.38,0,0,0,240.39,282.08Z"/><path class="cls-2" d="M908.09,253.17c1.25,6.79.33,13.47-.85,20.19-5.72,32.73-19.09,64.24-34.09,93.7-1-1.92-2.07-3.81-3.15-5.69,8.43-16.5,16.15-33.06,22.16-50.65,4.66-13.66,9.3-27.6,11.62-41.87a46.33,46.33,0,0,0,1-9.44c-.18-3.72-1.48-7.38-2.44-11a58.66,58.66,0,0,0-10.74-21.36c-6.18-8-13.8-14.34-21.88-20.14l1-1.34c.72.58,1.51.44,2.08-.89s1-2.55,1.48-3.88c10.56,8,20,17.33,26.42,29.18C904.47,237.06,906.66,245.35,908.09,253.17Z"/><path class="cls-2" d="M883.22,580a95.65,95.65,0,0,0,8.19-21.77c10.14-21.16,11.88-44.91,10.55-68.08a288.47,288.47,0,0,0-15-78.21,258.11,258.11,0,0,0-18.41-41.2l1.07-.59c.57,1,1.35,1.2,2.19-.43l1.37-2.67a278.14,278.14,0,0,1,24.52,65.34c6.83,28.1,10.65,58.58,8.1,87.47a139.66,139.66,0,0,1-8.29,37c-3.06,8.08-7,17-13.4,23a27.23,27.23,0,0,1-5.86,4.14h0a22.6,22.6,0,0,0,1.54-7.39C881.36,578.2,883.22,579.7,883.22,580Z"/><path class="cls-3" d="M904.81,259.41c-.18-3.72-1.48-7.38-2.44-11a58.66,58.66,0,0,0-10.74-21.36c-6.18-8-13.8-14.34-21.88-20.14-4.62-3.32-9.39-6.46-14.13-9.59-11.73-7.74-24.09-14.44-35.94-22a135.23,135.23,0,0,1,5.24,18.71c14,16.53,31,31.56,36.24,53.7A72.36,72.36,0,0,0,874,245.43a75.26,75.26,0,0,0,8.43-2.85c.87-.35,1.74-.72,2.6-1.1l.07,0h0l.08,0,.08,0c5.49-2.7,3.7,2.61.13,4.36a82.1,82.1,0,0,1-23.25,7.44c4.71,27.93-4,53.73-12.24,79.23a192.18,192.18,0,0,1,15.73,21.71c1.49,2.39,2.93,4.82,4.32,7.27,8.43-16.5,16.15-33.06,22.16-50.65,4.66-13.66,9.3-27.6,11.62-41.87A46.33,46.33,0,0,0,904.81,259.41Z"/><path class="cls-1" d="M862.19,253.16a67.9,67.9,0,0,1-19.45.39c-3.56-.46,2.84-6.34,5.28-6a60.23,60.23,0,0,0,13.14.26c-5.22-22.14-22.26-37.17-36.24-53.7a142.47,142.47,0,0,1-.32,57.07C821.88,264.45,818,279.47,810,291c0,.1,0,.21.08.32.27,1.19.53,2.4.75,3.61a166.07,166.07,0,0,1,13.31,10.95A252.47,252.47,0,0,1,850,332.39C858.16,306.89,866.9,281.09,862.19,253.16Z"/><path class="cls-1" d="M902,490.16a288.47,288.47,0,0,0-15-78.21,258.11,258.11,0,0,0-18.41-41.2c-12.88-23.08-29.52-43.91-50.19-60.66a93.08,93.08,0,0,1,3.46,27.31C836.88,352.53,851,368.78,861,388c20.93,42.78,29.44,98,5.92,139.21a12,12,0,0,1,2.08,2.1c5.56,6.44,7.79,14,9.27,22.29a103.88,103.88,0,0,1,1.64,16.49c4.21-9.28,7.19-18.61,7.24-29.13a76.8,76.8,0,0,0-5.6-28.71,15.39,15.39,0,0,1,2.45,2.06,17.16,17.16,0,0,1,3.21,4.52,77.16,77.16,0,0,1,5.62,28.9,57.5,57.5,0,0,1-1.42,12.51C901.55,537.08,903.29,513.33,902,490.16Z"/><path class="cls-3" d="M813.75,316.94a76.08,76.08,0,0,1-.52,12.06l4.53,4.4A54.26,54.26,0,0,0,813.75,316.94Z"/><path class="cls-3" d="M357.06,298.88A70.66,70.66,0,0,1,362,280.79c-.21-.31-.43-.6-.66-.88A52.56,52.56,0,0,0,357.06,298.88Z"/><path class="cls-1" d="M364.82,287a56.43,56.43,0,0,0-4.44,20.26q36,13.07,71.71,26.91c-22.31-13.43-44.31-24-64.09-41.18C366.69,292,365.8,289.63,364.82,287Z"/><path class="cls-1" d="M353,278c-16,5-33,9-49-3-5.49-4.27-12.46-5.19-19.56-5.71.18,1.88-.18,4.09-1.06,5.1l-.13.15a1,1,0,0,1-1.4.34,82.2,82.2,0,0,0-27.24-3.68c10.11,2.21,20.16,6.22,29.85,9.43,20.57,6.82,41,14,61.41,21.38l7.36,2.66A69.46,69.46,0,0,1,357,277.41,8.94,8.94,0,0,0,353,278Z"/><path class="cls-1" d="M471.26,349.91q6.48,2.68,13,5.41c7.75,3.28,15.6,6.54,23.32,10.07,4-6.83,7.88-13.89,11.51-21C503.12,346.06,486.92,350.54,471.26,349.91Z"/><path class="cls-3" d="M861,388c-10-19.22-24.12-35.47-39.21-50.6a105.41,105.41,0,0,1-2.09,19.15c-.66,3.25-1.94,2.65-2.64,0a27.39,27.39,0,0,1,0-12,41.57,41.57,0,0,0,.7-11.13l-4.53-4.4c-.11.83-.23,1.67-.37,2.5a95.94,95.94,0,0,1-8.05,25.1c-7.75,16.31-19.43,30.36-32.9,42.28-1.82,1.61-3.19-6.79-1.06-8.68C783,379.45,794,366.58,801.18,352a88,88,0,0,0,7.56-21.27c.11-.53.21-1.07.29-1.6q-.59,1.56-1.29,3.09c-6.51,14-20.24,24.38-33.85,30.95-12.14,5.86-25.57,9-38.77,11.37a274.35,274.35,0,0,1-47.35,4.1A296.11,296.11,0,0,1,630.65,373c-26.17-5-50.29-15.28-68.15-35.65-14.33-16.36-20.25-37-20.09-58.11-6.95,6.52-12.2,15.07-13.42,24.64-.22,1.73-.78,5.65-2.55,3.05s-1.07-8.55-.68-11.63A58.15,58.15,0,0,1,532,275.13a41.11,41.11,0,0,0-19.61,17.3c-1.1,1.88-2.42-.7-2.71-1.62a8,8,0,0,1,.71-6.15,43.37,43.37,0,0,1,12-13.28c-16.54,3-32.35,9.91-47.68,16.71-9.06,4-18.89,9.8-29,10.79a18.21,18.21,0,0,1-2.32.09,5.13,5.13,0,0,1-1,3.46,15.29,15.29,0,0,0-4.09,7.31c-.16,1-.75,4-2.44,3.14s-1.6-4.1-1.38-5.53a26.47,26.47,0,0,1,2-6.82A14,14,0,0,0,435,301a23.37,23.37,0,0,0-9.59,7.42c-1.29,1.59-2.37-.41-2.71-1.62-.51-1.8-.53-4.61.71-6.15a29.9,29.9,0,0,1,6.86-6.43c-3.49-2.41-6.74-5.41-10.08-8.16-18.25-15-38.18-27.82-58.5-39.87-8.34-4.95-14.43-10.51-19.3-19-5.37-9.35-8.8-19.53-11.64-29.88-.8-2.89-1.3-8.68-5.52-6.78-3.64,1.64-7.45,7.38-9.54,10.88-3.36,5.63-2.8,10.34-1.39,16.42.48,2.11,1,4.19,1.57,6.27,1.12,4.14,2.42,8.22,3.94,12.26.67,1.79,1,4.62,0,6.37-.79,1.35-2.12,1.81-2.8,0-1.39-3.7-2.9-7.71-4.24-11.85-13.31-3.16-24.62-8.95-34.5-18.43-4.89-4.68-9.52-9.66-14.61-14.13-3-2.6-6.66-6.56-10.76-4.56a34.31,34.31,0,0,0-7.15,5.12c-1,.84-1.81,1.77-2.7,2.68,1,1.42,1.88,3.12,2.7,4.14,2.45,3.06,5,6,7.69,8.92,5.26,5.73,10.68,11.37,17.2,15.68,2.89,1.91,5.87,3.65,8.92,5.27,4.67,2.47,9.5,4.64,14.38,6.63,2.48,1,1.78,9.85-1.06,8.68-3.73-1.53-7.44-3.15-11.06-4.95a1,1,0,0,1-.94-.05c-10.11-5.44-20.1-10.83-31.79-9.22-4.59.64-25.09,2.23-22.69,10,3.19,10.26,18.26,10,26.62,10.91,10.72,1.2,20.32,3.61,29.92,8.68.88.27,1.38,1.57,1.53,3.09,7.1.52,14.07,1.44,19.56,5.71,16,12,33,8,49,3a8.94,8.94,0,0,1,4-.59c.59-1.7,1.26-3.39,2-5.05s2-1.44,2.8,0c1,1.7.77,4.63,0,6.37-.17.39-.33.78-.49,1.18.23.28.45.57.66.88.63-1.49,1.29-3,2-4.43,2.19-4.32,3.95,4.11,2.8,6.37-.72,1.41-1.35,2.84-2,4.28,1,2.62,1.87,5,3.18,6,19.78,17.2,41.78,27.75,64.09,41.18q19.67,7.68,39.17,15.73c15.66.63,31.86-3.85,47.79-5.55,1.69-3.32,3.35-6.66,4.93-10,2.06-4.35,3.88,4.09,2.8,6.37-4.32,9.13-9.08,18.24-14.12,27,5.19,2.49,10.28,5.12,15.22,8,2.88,1.68,6.33,3.54,8.26,6.37a12.45,12.45,0,0,1,.79,1.32.54.54,0,0,1,.05-.11c3.5-6.62,8.95-12,16.82-12.56,8.72-.58,18.05,4.62,25.76,8,13.87,6,27.17,13.17,40.83,19.62,11.5,5.42,25,9.41,34.26,18.56,7.57,7.49,12.15,18.33,10.68,29a59.09,59.09,0,0,1-3.42,12.29c-.61,1.68-1.25,3.34-1.86,5-2.19,6-4.34,12-6.4,18,9.74,3.48,19.13,8.08,28.34,12.65,5.8,2.88,12.26,4.24,18.44,6.1,9.7,2.93,19.66,6,29.72,8.16,9.29-22.76,20.48-45.57,20-70-3.16-3.66-6.42-7.26-9.8-10.76-1.8-1.86-.58-10.45,2-7.77a281.6,281.6,0,0,1,33.27,42,329.43,329.43,0,0,1,19.13,33.66,6.1,6.1,0,0,1,.33,2.78l.93,0,.26-.18a50.13,50.13,0,0,1,19.92-8.38c1.78-.31,2.39.66,1.53,2.19a8.31,8.31,0,0,1-5.21,3.65,36.36,36.36,0,0,0-10.19,3.32c5.81.76,11.56,2,17,3.26,3,.68,2.31,9.53,0,9-12.9-2.92-27.79-6.18-40.84-2.13a100,100,0,0,0-16.83,7.5l-.8.42a27.27,27.27,0,0,1-15.43,2.69h-.07c18.6,13.94,32.93,34.62,32.8,58.39a9.78,9.78,0,0,1,.79-.9,9.08,9.08,0,0,1,7-3v3c10-7,23-6,35-8,17-2,28-17,38-30a98,98,0,0,0,7.63-11.28.63.63,0,0,1-.08-.47c.06-.13.2-.12.37,0C890.44,486,881.93,430.78,861,388ZM319.76,277.77a15.22,15.22,0,0,1-3.21-4.52,55.15,55.15,0,0,1-2-29.2s2.95,2.85,3.21,3.18c.6.74,2.66,2.77,2.45,3.81a54.44,54.44,0,0,0,2,28.79C322.32,280.14,320.13,278.19,319.76,277.77Z"/><path class="cls-1" d="M730.15,508.15A128.64,128.64,0,0,0,745,510.48c3.72.34,7.78.54,11.38-.66a11.23,11.23,0,0,0,1.25-.5,4.74,4.74,0,0,1,.35-2c2.84-5.65,5.11-11.67,7.45-17.54,3.05-7.65,5.65-14.92,6-23.28a4.37,4.37,0,0,1,0-.46,282.54,282.54,0,0,0-21.25-27.89C750.63,462.58,739.44,485.39,730.15,508.15Z"/><path class="cls-1" d="M821,569c-12,2-25,1-35,8v-3a9.08,9.08,0,0,0-7,3,9.78,9.78,0,0,0-.79.9V578a.31.31,0,0,0,0-.09c-2.39,3-3.57,7.15-7.17,8-12,0-21,7-31,12a56.94,56.94,0,0,1-7,3.31,84.27,84.27,0,0,0,34.81,2.38c2.23-.29,4.49-.67,6.76-1.12,24.8-5,48-15.73,72.9-20.23,8.25-1.49,17.07-2.09,25-4.92a.65.65,0,0,1,0-.37c3.11-7.29,2-17.26,1.1-24.86a98.81,98.81,0,0,0-2.54-14.07c-.43-1.67-.92-3.32-1.5-4.94s-1.9-3.62-.74-2.41a15.61,15.61,0,0,1-2.24-3A98,98,0,0,1,859,539C849,552,838,567,821,569Z"/><path class="cls-3" d="M771,586c3.6-.9,4.78-5,7.17-8-.35-.53-2.84-2.67-3.18-3.09-.72-.91-2.45-2.58-2.44-3.81.09-11.28-2.65-23.06-9.31-32.33-5.55-7.73-14.12-14-22.23-18.72a7,7,0,0,1-1.42-1.16c-12.38-1.75-24.65-5.57-36.54-9.07-5.85-1.72-12.08-3.08-17.77-5.23-3.21-1.22-6.22-3-9.3-4.47-6.84-3.37-13.87-6.37-21-9.12-1.61-.62-3.32-1.26-5.1-1.89-8-2.81-17.5-5.27-25.92-4.15a1,1,0,0,1-.6.13l-.16,0a22.61,22.61,0,0,0-9.46,3.67,60.72,60.72,0,0,0-9.73,8.63v0a2.42,2.42,0,0,1-1.11,1.54l-.5.22c-2.6,2.94-5.07,6-7.47,9.14-.3.92-.75,1.6-1.34,1.74-1.83,2.37-3.62,4.71-5.41,6.93-1.65,2-3.34,4.07-5,6.13a81.64,81.64,0,0,0-6.39,8.93c-2.92,4.86-7.12,11.58-3,16.79,5.71,7.17,15.29,1.14,19.33-4.38,1.94-2.66,3.91-5.29,5.93-7.86a77.85,77.85,0,0,1,8.9-11.13c3.42-3.51,7.47-6.27,10.93-9.71a64.7,64.7,0,0,1,6.67-6c2.65-2,5.43-4.36,8.55-5.52,2.48-.91,5.38-.7,7.71-1.93,2.61-1.36,3.48,7.42,1.06,8.68-1.76.92-3.74,1-5.64,1.46a19,19,0,0,0-7.31,3.58,58.54,58.54,0,0,0-7.77,6.18c-4,3.95-8.34,7.37-12.29,11.28a2.65,2.65,0,0,1-.52,1c-2.87,3.15-5.66,6.38-8.31,9.73-3.84,5.55-7,11.67-7.87,18.27-.51,4,.43,6.77,4.64,7.63a14.41,14.41,0,0,0,5,.05c3.64-.6,6.88-3.08,10-4.91a.89.89,0,0,1,.47-.15,43.4,43.4,0,0,1,11.06-18.39c5.81-5.89,13.16-10.28,19.94-15s18.11-12.65,26.59-8.47c2.46,1.22,1.59,10-1.06,8.68-6.91-3.41-16.79,3.38-22.36,7-4.3,2.82-8.57,5.83-12.74,8.82-7.4,5.3-17.09,13.54-18.36,23.21,0,.31-.08.63-.1.94-.26,3.59-.09,6.29,3.19,8.42a10,10,0,0,0,7.37,1.52c3.33-.66,6.69-2.55,9.7-4.08a1.36,1.36,0,0,1,.44-.13,47.76,47.76,0,0,1,3.17-6.71c4.31-7.49,13.27-12.46,20.35-17a77.75,77.75,0,0,1,10.79-6.15c2.7-1.16,4.92-.73,7.74,0a151.4,151.4,0,0,1,18.87,6.43c2.48,1,1.81,9.82-1.06,8.68-6.56-2.61-13.65-5.75-20.68-6.73-3-.42-5,.83-7.63,2.29-4.32,2.41-8.49,5.09-12.57,7.88-3.79,2.59-7.92,5.25-11.1,8.59a31.53,31.53,0,0,0-5.63,10.1,2.79,2.79,0,0,0,0,2c2.23,3.56,10.84,4,14.48,4.09,5.46.1,10.16-1.89,15.13-3.92,8.12-3.3,17.11-6.58,25.91-4.11a40,40,0,0,1,9,4c4.14,2.36,8.11,5.14,12.22,7.33,1.36.72,2.72,1.41,4.08,2A86.38,86.38,0,0,0,733,601.31a56.94,56.94,0,0,0,7-3.31C750,593,759,586,771,586Z"/><path class="cls-2" d="M887.21,516.83a77.16,77.16,0,0,1,5.62,28.9,57.5,57.5,0,0,1-1.42,12.51c-.47,1-1,2-1.47,3-2.62,5-5.75,9.28-10,12.41,0-1,0-1.92,0-2.84s0-1.78,0-2.67c4.21-9.28,7.19-18.61,7.24-29.13a76.8,76.8,0,0,0-5.6-28.71,15.39,15.39,0,0,1,2.45,2.06A17.16,17.16,0,0,1,887.21,516.83Z"/><path class="cls-2" d="M889.94,561.19c.51-1,1-2,1.47-3A95.65,95.65,0,0,1,883.22,580c0-.31-1.86-1.81-3.46-3.4.08-1,.12-2,.14-3C884.19,570.47,887.32,566.2,889.94,561.19Z"/><path class="cls-2" d="M885.36,241.36l-.13,0,.08,0c5.49-2.7,3.7,2.61.13,4.36-13,6.39-28.34,9.72-42.7,7.83-3.56-.46,2.84-6.34,5.28-6a65.2,65.2,0,0,0,26-2.1,75.26,75.26,0,0,0,8.43-2.85c.87-.35,1.74-.72,2.6-1.1l.07,0Zm.1-.05.09,0Z"/><path class="cls-2" d="M885.46,241.31l.09,0Z"/><path class="cls-2" d="M885.23,241.4l.13,0-.22.09h0Z"/><path class="cls-2" d="M879.91,568.09c0,.89,0,1.78,0,2.67s0,1.87,0,2.84c-.57.42-1.16.82-1.77,1.19-.52-.7-.79-1.32-.58-1.74Q878.78,570.56,879.91,568.09Z"/><path class="cls-2" d="M879.9,573.6c0,1-.06,2-.14,3a15.42,15.42,0,0,1-1.63-1.82C878.74,574.42,879.33,574,879.9,573.6Z"/><path class="cls-2" d="M879.76,576.61a22.6,22.6,0,0,1-1.54,7.39c0-.69-5.64-4.63-5.72-6.58.42-.14.84-.3,1.25-.46a26.66,26.66,0,0,0,4.38-2.17A15.42,15.42,0,0,0,879.76,576.61Z"/><path class="cls-2" d="M868.87,530.77c-1-1.19-2.55-3-2.32-3.52s2.13,1.7,2.45,2.06c5.56,6.44,7.79,14,9.27,22.29a103.88,103.88,0,0,1,1.64,16.49q-1.12,2.48-2.36,5c-.21.42.06,1,.58,1.74a26.66,26.66,0,0,1-4.38,2.17c-.41.16-.83.32-1.25.46a.65.65,0,0,1,0-.37c3.11-7.29,2-17.26,1.1-24.86a98.81,98.81,0,0,0-2.54-14.07c-.43-1.67-.92-3.32-1.5-4.94S867.71,529.56,868.87,530.77Z"/><path class="cls-2" d="M878.22,584h0c-4.94,2.63-10.56,3.9-16.13,4.89-12.55,2.24-25,4.11-37.18,8-17.7,5.63-36.17,12.88-54.93,15.71.32-2.66-.51-6.71-1.84-6.49l-.34-2.41c2.23-.29,4.49-.67,6.76-1.12,24.8-5,48-15.73,72.9-20.23,8.25-1.49,17.07-2.09,25-4.92C872.58,579.37,878.22,583.31,878.22,584Z"/><path class="cls-2" d="M873.46,170.09c5.36,9.24,4.24,20.85.8,30.76q-2-1.54-4.07-3c2.41-5.85,4.41-13.33,1.59-19.29-2.19-4.64-6.31-8.26-10.27-11.36a127.22,127.22,0,0,0-23.09-13.88c-12.52-6.07-25.53-11.16-38.37-16.57a149.16,149.16,0,0,0-10.25-13.59l.11,0c19.16,8.63,39.41,15.53,57.83,25.72C857.12,154.11,867.93,160.55,873.46,170.09Z"/><path class="cls-2" d="M874.26,200.85c-.45,1.33-1,2.62-1.48,3.88s-1.36,1.47-2.08.89a3.53,3.53,0,0,1-.72-.89c-1-1.73-.75-4.6,0-6.37l.21-.51Q872.24,199.31,874.26,200.85Z"/><path class="cls-2" d="M873.15,367.06l-1.37,2.67c-.84,1.63-1.62,1.43-2.19.43-.93-1.63-1.33-5.4-.61-6.8l1-2C871.08,363.25,872.13,365.14,873.15,367.06Z"/><path class="cls-1" d="M871.78,178.56c2.82,6,.82,13.44-1.59,19.29-1.07-.78-2.14-1.53-3.22-2.27-17.1-11.75-35.48-21.39-52.61-33.08a181.9,181.9,0,0,0-14.31-25.75c12.84,5.41,25.85,10.5,38.37,16.57a127.22,127.22,0,0,1,23.09,13.88C865.47,170.3,869.59,173.92,871.78,178.56Z"/><path class="cls-2" d="M870.7,205.62l-1,1.34c-4.62-3.32-9.39-6.46-14.13-9.59-11.73-7.74-24.09-14.44-35.94-22q-1.06-3-2.28-5.91-1.46-3.51-3-7c17.13,11.69,35.51,21.33,52.61,33.08,1.08.74,2.15,1.49,3.22,2.27l-.21.51c-.75,1.77-1,4.64,0,6.37A3.53,3.53,0,0,0,870.7,205.62Z"/><path class="cls-2" d="M870,361.37l-1,2c-.72,1.4-.32,5.17.61,6.8l-1.07.59c-12.88-23.08-29.52-43.91-50.19-60.66a78.53,78.53,0,0,0-4-10.89c-1-2.21-1.77-.43-2.19,1.25a4.22,4.22,0,0,0-.61-1.54c-.19-1.35-.42-2.7-.68-4a166.07,166.07,0,0,1,13.31,10.95c16,14.34,30.19,30,41.53,48.27C867.17,356.49,868.61,358.92,870,361.37Z"/><path class="cls-2" d="M819.68,175.38c8.78,24.36,10.14,50.34,4.92,75.78C821.88,264.45,818,279.47,810,291c-.42-1.45-1.29-2.26-2.63-1.29a2.06,2.06,0,0,0-.67.93l-1.72-.7a40.31,40.31,0,0,0,8.44-17c1.79-4.41,3.16-9,4.53-13.52a138.23,138.23,0,0,0,5.17-25.48c2.34-22.35-2.17-43.77-11.24-64l.16-.07a2.4,2.4,0,0,0,.8,1.08C815.1,172.42,817.38,173.91,819.68,175.38Z"/><path class="cls-4" d="M726.31,91.79a143.61,143.61,0,0,0-23.63-4.27q6.15,2.82,12.18,6A78.26,78.26,0,0,1,726.31,91.79Z"/><path class="cls-5" d="M811.89,169.87c-1-2.17-2-4.33-3.08-6.47a162.6,162.6,0,0,0-20.77-32,123.79,123.79,0,0,0-30-26.06q-4.53-2.78-9.21-5.09a2.84,2.84,0,0,1-1.69.16,73.37,73.37,0,0,0-24.46-2.7c12.23,7.06,23.66,15.5,33.35,26.26,22.06,25.21,25.5,57.25,26,88.78a47,47,0,0,1,19.08,14,44.2,44.2,0,0,1,5.77,9.05c4.1,8.62,7.26,19.75,7.39,29.32a33.94,33.94,0,0,1-.77,7.72c1.79-4.41,3.16-9,4.53-13.52a138.23,138.23,0,0,0,5.17-25.48C825.47,211.5,821,190.08,811.89,169.87Z"/><path class="cls-4" d="M722.65,97.74a74.38,74.38,0,0,0-16.11,2.72c-2,.56-2.15-.81-1.53-2.19.83-1.85,3.37-3.12,5.21-3.65,1.54-.44,3.09-.81,4.64-1.15q-6-3.14-12.18-6a182.53,182.53,0,0,0-27.89-.5c-26.47,1.47-52.2,7.71-74.3,23a122.64,122.64,0,0,0-26.68,25.29c10.77-4.48,21.82-8.11,33.53-9.37A116.88,116.88,0,0,1,653,130a49.39,49.39,0,0,1,16.3-10.11c1.38-.51,3.08-.67,2.81,1.2s-3.11,3.5-4.66,4.08a30.4,30.4,0,0,0-10.13,6.2,122.93,122.93,0,0,1,37,20.19c22.11,17.47,40.62,38.16,54.46,62.79a3.7,3.7,0,0,1,.38,1.41,31.76,31.76,0,0,1,6.39-3.72,37.38,37.38,0,0,1,26.41.73c-.46-31.53-3.9-63.57-26-88.78C746.31,113.24,734.88,104.8,722.65,97.74Z"/><path class="cls-2" d="M818.33,310.09c4.32,15,4.45,31.29,1.37,46.46-.66,3.25-1.94,2.65-2.64,0a27.39,27.39,0,0,1,0-12c1.93-9.52.25-18.76-3.31-27.59-.11-3.71-.44-7.41-.88-11.12Q815.65,307.9,818.33,310.09Z"/><path class="cls-2" d="M819.38,502c3,.68,2.31,9.53,0,9-12.9-2.92-27.79-6.18-40.84-2.13a100,100,0,0,0-16.83,7.5l-.8.42-1.36-1.89c.38,0,.8-.35,1.23-1.21,1.31-2.61,2.6-5.27,3.83-8a88.87,88.87,0,0,1,14.66-6.06,46.49,46.49,0,0,1,10.89-1.58c.62,1.2,1.22,2.41,1.82,3.62.75,1.51,1.45,1.47,2,.68,1.17.78,3.74-.8,4.48-1.32a32.89,32.89,0,0,1,3.89-2.31C808.16,499.54,813.91,500.81,819.38,502Z"/><path class="cls-2" d="M817.4,169.47q1.22,2.94,2.28,5.91c-2.3-1.47-4.58-3-6.83-4.5a2.4,2.4,0,0,1-.8-1.08c-1.18-2.79,0-8.89,1.86-7.6l.45.3Q815.95,166,817.4,169.47Z"/><path class="cls-2" d="M816.22,489.62c1.78-.31,2.39.66,1.53,2.19a8.31,8.31,0,0,1-5.21,3.65,36.36,36.36,0,0,0-10.19,3.32c-2.1-.27-4.21-.48-6.31-.6l.26-.18A50.13,50.13,0,0,1,816.22,489.62Z"/><path class="cls-2" d="M818.33,310.09q-2.69-2.19-5.46-4.27c-.18-1.49-.37-3-.58-4.47,0-.33-.1-.63-.16-.9.42-1.68,1.19-3.46,2.19-1.25A78.53,78.53,0,0,1,818.33,310.09Z"/><path class="cls-2" d="M814.36,162.5l-.45-.3c-1.89-1.29-3,4.81-1.86,7.6l-.16.07c-1-2.17-2-4.33-3.08-6.47a162.6,162.6,0,0,0-20.77-32l.14-.12a1.72,1.72,0,0,0,.67.57c3.71,1.67,7.45,3.28,11.2,4.87A181.9,181.9,0,0,1,814.36,162.5Z"/><path class="cls-2" d="M814.2,265.13a33.94,33.94,0,0,1-.77,7.72,53.32,53.32,0,0,1-4.18,8.43c-4,6.51-9.31,11.2-15.78,15.25a139,139,0,0,1-21.24,10.62A39.07,39.07,0,0,1,754.3,301c-.63-.41-1.26-.82-1.87-1.27a6.12,6.12,0,0,0-.65-3.34,3,3,0,0,0-.93-1l.06-.11a42.34,42.34,0,0,0,7.24,3.2c15.63,5.33,28.91-2.12,39.32-13.37,5.61-6.07,9.65-13.41,10.77-21.69,1.26-9.29-1.79-18.94-4.61-27.69a27.38,27.38,0,0,0-3.73-8l1.14-.91a44.2,44.2,0,0,1,5.77,9.05C810.91,244.43,814.07,255.56,814.2,265.13Z"/><path class="cls-2" d="M813.75,316.94a72.69,72.69,0,0,1-.89,14.56,95.94,95.94,0,0,1-8.05,25.1c-7.75,16.31-19.43,30.36-32.9,42.28-1.82,1.61-3.19-6.79-1.06-8.68C783,379.45,794,366.58,801.18,352a88,88,0,0,0,7.56-21.27c.11-.53.21-1.07.29-1.6a52.21,52.21,0,0,0,3.21-15.7c.06.17.13.33.2.49C812.9,314.89,813.34,315.91,813.75,316.94Z"/><path class="cls-2" d="M813.75,316.94c-.41-1-.85-2.05-1.31-3.06-.07-.16-.14-.32-.2-.49a68.1,68.1,0,0,0,0-8.08l.68.51C813.31,309.53,813.64,313.23,813.75,316.94Z"/><path class="cls-2" d="M812.29,301.35c.21,1.49.4,3,.58,4.47l-.68-.51c-.07-1.22-.18-2.45-.32-3.68h0a11.59,11.59,0,0,1,.26-1.17C812.19,300.72,812.24,301,812.29,301.35Z"/><path class="cls-2" d="M812.19,305.31a68.1,68.1,0,0,1,0,8.08c-1-2.46-1-5.75-.76-8.6Z"/><path class="cls-2" d="M812.19,305.31l-.71-.52c.07-.9.17-1.76.28-2.54,0-.15,0-.36.11-.62C812,302.86,812.12,304.09,812.19,305.31Z"/><path class="cls-2" d="M812.13,300.45a11.59,11.59,0,0,0-.26,1.17c-.1-.9-.22-1.81-.35-2.71A4.22,4.22,0,0,1,812.13,300.45Z"/><path class="cls-2" d="M811.87,301.62h0c-.06.26-.09.47-.11.62-.11.78-.21,1.64-.28,2.54-.87-.65-1.75-1.28-2.63-1.91a2,2,0,0,1-.43-.43c.17-2.76,2-5.15,3.1-3.54C811.65,299.81,811.77,300.72,811.87,301.62Z"/><path class="cls-2" d="M808.85,302.88c.88.63,1.76,1.26,2.63,1.91-.24,2.85-.2,6.14.76,8.6a52.21,52.21,0,0,1-3.21,15.7c1.44-8.48.62-16.85-.56-25.35a7,7,0,0,1-.05-1.29A2,2,0,0,0,808.85,302.88Z"/><path class="cls-2" d="M810.84,294.88c.26,1.33.49,2.68.68,4-1.14-1.61-2.93.78-3.1,3.54a4.68,4.68,0,0,1-.72-2c-.47-3,.62-7.39,2.21-6.27Z"/><path class="cls-2" d="M810.84,294.88l-.93-.68c-1.59-1.12-2.68,3.24-2.21,6.27l-.14,0c-.23-1.53-.53-3.09-.89-4.68q0-.19-.09-.45l.5-.57q1.54-1.85,2.93-3.84c0,.1,0,.21.08.32C810.36,292.46,810.62,293.67,810.84,294.88Z"/><path class="cls-2" d="M809.25,281.28a53.32,53.32,0,0,0,4.18-8.43,40.31,40.31,0,0,1-8.44,17c-.81,1-1.65,1.95-2.54,2.88-5.89,6.19-12.5,11.79-21.06,13.73a31.38,31.38,0,0,1-9.16.65,139,139,0,0,0,21.24-10.62C799.94,292.48,805.2,287.79,809.25,281.28Z"/><path class="cls-2" d="M808.47,303.74c1.18,8.5,2,16.87.56,25.35q-.59,1.56-1.29,3.09c-6.51,14-20.24,24.38-33.85,30.95-12.14,5.86-25.57,9-38.77,11.37a274.35,274.35,0,0,1-47.35,4.1A296.11,296.11,0,0,1,630.65,373c-26.17-5-50.29-15.28-68.15-35.65-14.33-16.36-20.25-37-20.09-58.11.15-.16.31-.3.47-.45,1.72-1.58,1.6-5.87,1.42-8.77l1.08.07c.63,0,1.13-.43,1.48-1.19,0,.09.09.18.14.27-1.48,13-.76,27,4.1,39.14,4.31,10.76,11.53,20,19.84,28,19.82,19,46.46,26,72.89,29.93a290.61,290.61,0,0,0,48.25,3.38c41-.72,124.13-11.79,115.48-69.06l.14,0a4.68,4.68,0,0,0,.72,2A7,7,0,0,0,808.47,303.74Z"/><path class="cls-2" d="M807.38,289.66c1.34-1,2.21-.16,2.63,1.29q-1.38,2-2.93,3.84l-.5.57a10.16,10.16,0,0,1,.13-4.77A2.06,2.06,0,0,1,807.38,289.66Z"/><path class="cls-3" d="M794,256c6.13-10.51,2.29-24.1-4.14-35.37a40,40,0,0,0-5.21-1.68c-7.79-2-15.76-2.66-23.44.09-15.67,6.79-24.32,26.74-25,43-.3,7.25.47,14.6,3.4,21.3a25.57,25.57,0,0,0,11.27,11.92,38.23,38.23,0,0,0,4.92,2.33C772.39,288.57,785.11,272.29,794,256Z"/><path class="cls-1" d="M803.63,235.67a27.38,27.38,0,0,0-3.73-8,17.25,17.25,0,0,0-5.19-4.65,34.1,34.1,0,0,0-4.85-2.39c6.43,11.27,10.27,24.86,4.14,35.37-8.89,16.29-21.61,32.57-38.17,41.55.76.31,1.54.6,2.32.87,15.63,5.33,28.91-2.12,39.32-13.37,5.61-6.07,9.65-13.41,10.77-21.69C809.5,254.07,806.45,244.42,803.63,235.67Z"/><path class="cls-1" d="M807.56,300.49c-.23-1.53-.53-3.09-.89-4.68q0-.19-.09-.45c-5,5.7-11.58,9.85-18.23,13.4-6.94,15.38-19.5,29.12-34.35,35.24-55,21-118,20-170-10-18.09-9.52-33.44-26.29-37.47-46.86a69.57,69.57,0,0,0,4.57,21.12c4.31,10.76,11.53,20,19.84,28,19.82,19,46.46,26,72.89,29.93a290.61,290.61,0,0,0,48.25,3.38C733.12,368.83,816.21,357.76,807.56,300.49Z"/><path class="cls-3" d="M584,334c52,30,115,31,170,10,14.85-6.12,27.41-19.86,34.35-35.24L788,309a215.75,215.75,0,0,1-53.25,19.62,200,200,0,0,1-43.43,5c-29.14.07-58.25-6.2-84.39-19.17a274.94,274.94,0,0,1-40.82-24.78c-6.1-4.51-12.46-9.56-16.58-16l-.11-.16q-1.29-2.12-2.38-4.31a100.14,100.14,0,0,0-.47,18C550.56,307.71,565.91,324.48,584,334Z"/><path class="cls-2" d="M805,289.89l1.72.7a10.16,10.16,0,0,0-.13,4.77c-5.1,5.81-11.84,10-18.62,13.61a215.75,215.75,0,0,1-53.25,19.62l-.14-.63a1.38,1.38,0,0,0,.81-.53c2.86-3.28,5.68-6.65,8.24-10.21q6.17-1.75,12.22-3.91c5.46-1.94,11-3.94,16.39-6.16a31.38,31.38,0,0,0,9.16-.65c8.56-1.94,15.17-7.54,21.06-13.73C803.34,291.84,804.18,290.88,805,289.89Z"/><path class="cls-2" d="M801,226.76l-1.14.91a17.25,17.25,0,0,0-5.19-4.65A37,37,0,0,0,784.65,219c-7.79-2-15.76-2.66-23.44.09-.05,0-4.31-7.58-5.66-7C772.16,206.09,790.29,213.61,801,226.76Z"/><path class="cls-2" d="M802.35,498.78a32.89,32.89,0,0,0-3.89,2.31c-.74.52-3.31,2.1-4.48,1.32a8.18,8.18,0,0,0,1-3.38c.37-.34.74-.63,1-.85C798.14,498.3,800.25,498.51,802.35,498.78Z"/><path class="cls-2" d="M795.11,498.14l.93,0c-.28.22-.65.51-1,.85C795.07,498.73,795.09,498.43,795.11,498.14Z"/><path class="cls-2" d="M794.78,495.36a6.1,6.1,0,0,1,.33,2.78q-2.49-.12-5,0-7-13.68-15.18-26.58c.19-1.66.31-3.33.38-5,0-.88-.15-3-1-4l1.28-.83A329.43,329.43,0,0,1,794.78,495.36Z"/><path class="cls-2" d="M795.11,498.14c0,.29,0,.59-.09.89-1,.92-2,2.17-1.33,3.09a1.14,1.14,0,0,0,.29.29c-.55.79-1.25.83-2-.68-.6-1.21-1.2-2.42-1.82-3.62Q792.62,498,795.11,498.14Z"/><path class="cls-2" d="M795,499a8.18,8.18,0,0,1-1,3.38,1.14,1.14,0,0,1-.29-.29C793.05,501.2,794,500,795,499Z"/><path class="cls-2" d="M800.05,136.75c-3.75-1.59-7.49-3.2-11.2-4.87a1.72,1.72,0,0,1-.67-.57c-1.6-2.22-.76-9,1.62-8.15A149.16,149.16,0,0,1,800.05,136.75Z"/><path class="cls-2" d="M789.8,123.16c-2.38-.85-3.22,5.93-1.62,8.15l-.14.12a123.79,123.79,0,0,0-30-26.06q-4.53-2.78-9.21-5.09c2.76-1,6.38-4.73,5.08-5.54l.4-.72a121.3,121.3,0,0,1,21.79,15.17A132.18,132.18,0,0,1,789.8,123.16Z"/><path class="cls-1" d="M790.16,498.11a46.49,46.49,0,0,0-10.89,1.58,88.87,88.87,0,0,0-14.66,6.06c5-10.86,9.08-22.48,10.37-34.22Q783.2,484.42,790.16,498.11Z"/><path class="cls-2" d="M745.41,519.51c18.64,14,33,34.7,32.8,58.53,0-.29-2.85-2.73-3.22-3.18-.72-.91-2.45-2.58-2.44-3.81.09-11.28-2.65-23.06-9.31-32.33-5.55-7.73-14.12-14-22.23-18.72a7,7,0,0,1-1.42-1.16Q742.5,519.28,745.41,519.51Z"/><path class="cls-2" d="M775.65,461.7l-1.28.83a1.29,1.29,0,0,0-1-.49c-1.54,0-1.87,2.68-2,4a278.88,278.88,0,0,0-31-38.65c-1.8-1.86-.58-10.45,2-7.77A281.6,281.6,0,0,1,775.65,461.7Z"/><path class="cls-2" d="M774.37,462.53c.84,1,1,3.13,1,4-.07,1.66-.19,3.33-.38,5-1.16-1.83-2.35-3.65-3.55-5.45.08-1.36.41-4,2-4A1.29,1.29,0,0,1,774.37,462.53Z"/><path class="cls-2" d="M771.43,466.08c1.2,1.8,2.39,3.62,3.55,5.45-1.29,11.74-5.41,23.36-10.37,34.22l-2.44,1.18c-1.55.74-3,1.69-4.54,2.39a4.74,4.74,0,0,1,.35-2c2.84-5.65,5.11-11.67,7.45-17.54,3.05-7.65,5.65-14.92,6-23.28A4.37,4.37,0,0,1,771.43,466.08Z"/><path class="cls-2" d="M768.14,606.1c1.33-.22,2.16,3.83,1.84,6.49-3.36.5-6.73.87-10.11,1a35.71,35.71,0,0,0,7.51-7A1.32,1.32,0,0,1,768.14,606.1Z"/><path class="cls-2" d="M770,612.59a3.94,3.94,0,0,1-.6,1.84c-3.64,4.71-8.87,8.4-13.91,11.46-3.76,2.28-8,5.12-12.29,6.31-5.49,1.54-11.43-.29-16.91-1.16a110.38,110.38,0,0,1-20.6-4.86q2.72-3.63,5.35-7.29A131.65,131.65,0,0,0,727,622.15c4.91.77,10.36,2.48,15.32,1.29,4.13-1,8.54-4,12.14-6.23,1.81-1.1,3.66-2.28,5.45-3.57C763.25,613.46,766.62,613.09,770,612.59Z"/><path class="cls-2" d="M767.8,603.69l.34,2.41a1.32,1.32,0,0,0-.76.56,35.71,35.71,0,0,1-7.51,7c-2.68.15-5.38.19-8.07.1-11-.38-21.63-3.46-31.59-8,0-.09.11-.17.17-.26a7.75,7.75,0,0,0,.71-6.16,4.34,4.34,0,0,0-1.35-2.11l.34-.72A83.33,83.33,0,0,0,767.8,603.69Z"/><path class="cls-2" d="M762.17,506.93l2.44-1.18c-1.23,2.71-2.52,5.37-3.83,8-.43.86-.85,1.21-1.23,1.21-1.14,0-2-3.24-1.92-5.62C759.19,508.62,760.62,507.67,762.17,506.93Z"/><path class="cls-2" d="M761.21,219c-1.54.55-5.43-7.08-5.66-7C756.9,211.46,761.16,219.06,761.21,219Z"/><path class="cls-2" d="M755.55,212.05c.23-.09,4.12,7.54,5.66,7-15.67,6.79-24.32,26.74-25,43-.3,7.25.47,14.6,3.4,21.3a25.57,25.57,0,0,0,11.27,11.92l-.06.11c-.66-.4-1.38-.2-1.87,1-.07.17-.13.34-.21.5A51.72,51.72,0,0,1,730.53,258c0-13.18,4.83-28.83,14.62-38.71.28.48.56,1,.83,1.46,2,3.59,3.53-1.84,3.18-5A31.76,31.76,0,0,1,755.55,212.05Z"/><path class="cls-2" d="M759.55,514.94l1.36,1.89a27.27,27.27,0,0,1-15.43,2.69h-.07a104.37,104.37,0,0,0-9.66-6.42c-.48-.29,1.35,2.61,1.51,2.82a28.15,28.15,0,0,0,2.33,2.93c-12.38-1.75-24.65-5.57-36.54-9.07-5.85-1.72-12.08-3.08-17.77-5.23-3.21-1.22-6.22-3-9.3-4.47-6.84-3.37-13.87-6.37-21-9.12-1.61-.62-3.32-1.26-5.1-1.89l.44-1.25c.57.17,1.19-.34,1.75-2s1-3.05,1.56-4.57c9.74,3.48,19.13,8.08,28.34,12.65,5.8,2.88,12.26,4.24,18.44,6.1,14.45,4.36,29.49,9.1,44.57,10.49,3.72.34,7.78.54,11.38-.66a11.23,11.23,0,0,0,1.25-.5C757.58,511.7,758.41,514.94,759.55,514.94Z"/><path class="cls-4" d="M772.23,307.15c-5.42,2.22-10.93,4.22-16.39,6.16q-6.06,2.15-12.22,3.91a66.67,66.67,0,0,0,8.16-14.49,9.92,9.92,0,0,0,.65-3c.61.45,1.24.86,1.87,1.27A39.07,39.07,0,0,0,772.23,307.15Z"/><path class="cls-1" d="M751.8,613.74c2.69.09,5.39,0,8.07-.1-1.79,1.29-3.64,2.47-5.45,3.57-3.6,2.19-8,5.23-12.14,6.23-5,1.19-10.41-.52-15.32-1.29A131.65,131.65,0,0,1,711,618.89q4.72-6.52,9.19-13.2C730.17,610.28,740.81,613.36,751.8,613.74Z"/><path class="cls-2" d="M754.28,94l-.4.72a.8.8,0,0,0-.23-.1,79.22,79.22,0,0,0-27.34-2.85c-16.58-4.51-34-5.74-51.52-4.77-26.47,1.47-52.2,7.71-74.3,23a122.64,122.64,0,0,0-26.68,25.29q-4.51,1.88-9,3.91a1.8,1.8,0,0,0-.79.78l-.63-.4c11.53-18.39,27.23-34.11,46.34-44.65,22.74-12.55,48.36-16.73,74-17.28C708.49,77.12,732.92,82.33,754.28,94Z"/><path class="cls-2" d="M753.88,94.74c1.3.81-2.32,4.57-5.08,5.54a122.68,122.68,0,0,0-22.49-8.49,79.22,79.22,0,0,1,27.34,2.85A.8.8,0,0,1,753.88,94.74Z"/><path class="cls-2" d="M751.78,296.36a6.12,6.12,0,0,1,.65,3.34,43.65,43.65,0,0,1-3.66-2.84c.08-.16.14-.33.21-.5.49-1.23,1.21-1.43,1.87-1A3,3,0,0,1,751.78,296.36Z"/><path class="cls-2" d="M752.43,299.7a9.92,9.92,0,0,1-.65,3,66.67,66.67,0,0,1-8.16,14.49q-5.16,1.47-10.39,2.65a1.13,1.13,0,0,1,.15-.21c6-6.91,11.91-14.22,15.39-22.8A43.65,43.65,0,0,0,752.43,299.7Z"/><path class="cls-2" d="M749.16,215.77c.35,3.12-1.17,8.55-3.18,5-.27-.49-.55-1-.83-1.46A35,35,0,0,1,749.16,215.77Z"/><path class="cls-2" d="M748.78,214.36a3.7,3.7,0,0,1,.38,1.41,35,35,0,0,0-4,3.5,192.73,192.73,0,0,0-30.45-40.09c-18.35-18.46-39.81-34.8-65.3-41.37l.34-1.26c1.78.38,4.39-1.8,5.44-3,.69-.78,1.4-1.51,2.14-2.2a122.93,122.93,0,0,1,37,20.19C716.43,169,734.94,189.73,748.78,214.36Z"/><path class="cls-2" d="M748.8,100.28a2.84,2.84,0,0,1-1.69.16,73.71,73.71,0,0,0-40.57,0c-2,.56-2.15-.81-1.53-2.19.83-1.85,3.37-3.12,5.21-3.65a79.37,79.37,0,0,1,16.09-2.83A122.68,122.68,0,0,1,748.8,100.28Z"/><path class="cls-6" d="M573,154c-19,30-25,68-17,103,3-37,14-84,56-92,36.5-6.55,69.49,7.92,99.81,25.38C674.86,159.35,621.15,138.59,573,154Z"/><path class="cls-7" d="M730.53,258c0-13.18,4.83-28.83,14.62-38.71a192.73,192.73,0,0,0-30.45-40.09c-18.35-18.46-39.81-34.8-65.3-41.37-.93-.25-1.87-.48-2.81-.69a119.76,119.76,0,0,0-43.07-1.73c-13.2,1.85-25.56,7-37.61,12.49a1,1,0,0,1-.89,0,137.87,137.87,0,0,0-15.55,35.93,160.37,160.37,0,0,0-5.09,36.27c-.6,15.69-1.43,31.59,7,45.54a34.62,34.62,0,0,0,3.89,5c8.44,9.24,19.73,15.88,30.28,22.36,12.77,7.86,25.88,15.06,40,20.25,26.08,9.6,54.49,12.9,82.12,10.54a187.74,187.74,0,0,0,25.58-4,1.13,1.13,0,0,1,.15-.21c6-6.91,11.91-14.22,15.39-22.8A51.72,51.72,0,0,1,730.53,258ZM716,194q-2.06-1.83-4.19-3.62C681.49,172.92,648.5,158.45,612,165c-42,8-53,55-56,92-8-35,0-72,19-102,48.15-15.41,99.86,4.35,136.81,35.38,2.07,1.19,4.14,2.4,6.19,3.62-2-1.22-4.12-2.43-6.19-3.62Q713.94,192.17,716,194Z"/><path class="cls-2" d="M745.41,519.51q-2.91-.24-5.82-.67a28.15,28.15,0,0,1-2.33-2.93c-.16-.21-2-3.11-1.51-2.82A104.37,104.37,0,0,1,745.41,519.51Z"/><path class="cls-2" d="M743.62,317.22c-2.56,3.56-5.38,6.93-8.24,10.21a1.38,1.38,0,0,1-.81.53c-1.8.27-2.61-6.11-1.34-8.09Q738.47,318.68,743.62,317.22Z"/><path class="cls-2" d="M734.57,328l.14.63a200,200,0,0,1-43.43,5c-29.14.07-58.25-6.2-84.39-19.17a274.94,274.94,0,0,1-40.82-24.78c-6.1-4.51-12.46-9.56-16.58-16,1.07,1.5,2.3-.86,2.6-1.78a8,8,0,0,0-.71-6.15,34.62,34.62,0,0,0,3.89,5c8.44,9.24,19.73,15.88,30.28,22.36,12.77,7.86,25.88,15.06,40,20.25,26.08,9.6,54.49,12.9,82.12,10.54a187.74,187.74,0,0,0,25.58-4C732,321.85,732.77,328.23,734.57,328Z"/><path class="cls-2" d="M721.09,599.27a7.75,7.75,0,0,1-.71,6.16c-.06.09-.12.17-.17.26l-.22-.1c-1.75-.81-3.46-1.73-5.16-2.72q1.81-2.58,3.55-5.21c.47-.71.94-.76,1.36-.5A4.34,4.34,0,0,1,721.09,599.27Z"/><path class="cls-2" d="M720,605.59l.22.1q-4.47,6.67-9.19,13.2c-1.72-.5-3.42-1-5.11-1.69a1.3,1.3,0,0,0-1.58.53l-.14-.1c3.63-4.86,7.2-9.77,10.64-14.76C716.53,603.86,718.24,604.78,720,605.59Z"/><path class="cls-2" d="M720.08,596.44l-.34.72c-.42-.26-.89-.21-1.36.5q-1.74,2.63-3.55,5.21c-3.73-2.16-7.36-4.6-11.11-6.72,1.19-1.92.9-6.7-.67-7.81l.73-1.27c4.14,2.36,8.11,5.14,12.22,7.33C717.36,595.12,718.72,595.81,720.08,596.44Z"/><path class="cls-2" d="M711,618.89q-2.62,3.66-5.35,7.29l-.82-.3c-1.93-.73-2-6.26-.52-8.15a1.3,1.3,0,0,1,1.58-.53C707.6,617.84,709.3,618.39,711,618.89Z"/><path class="cls-1" d="M451,796c2.86,24-5.43,46.45-20,63.27a101.06,101.06,0,0,0,36.53-6.22c.27-.1.62.06,1,.39a32.15,32.15,0,0,0,5.92-10.37c4.39-12.83,4.22-27.54,5-40.92,0-.38.07-1.32.08-1.48,0-.74.07-1.48.1-2.22q.12-2.91.18-5.82.18-9.32-.16-18.64a375.92,375.92,0,0,0-4.9-48.41c0-.13-.1-.26-.14-.4a105.2,105.2,0,0,1-15.16-1.63c-4.29-.77-8.58-1.51-12.8-2.49C439.24,745.71,447.06,770.37,451,796Z"/><path class="cls-3" d="M627,653c11-5,20-13,29-21,11.3-10.36,25.26-18.06,34.37-30.62-20.83,7.25-42,13.41-63.78,17.21-23.3,4.07-46.88,5.8-70.38,8.26a3.81,3.81,0,0,1-1.71,2.73c-1.87.85-5.39-1.08-7.11-1.67-5.3-1.83-10.54-3.85-15.76-5.87-18-7-35.83-14.27-53.65-21.63q-10-4.14-20-8.31a4.26,4.26,0,0,1-1,2.78,396.07,396.07,0,0,1-35.65,27.18c-6.55,4.52-13.18,9-19.85,13.44a300.43,300.43,0,0,0-26.32,20.15c-4.61,3.9-9.64,8.74-12.21,13.69A41.14,41.14,0,0,0,359,681.47a8.66,8.66,0,0,1,2.17,3.36c2.2,9.36,6.2,18.8,13.23,25.56a61.21,61.21,0,0,0,27.31,14.7c1.37.35,3,3.06,3.75,4.08.16.21,2.17,3,1.51,2.83-21.93-5.59-40.51-23.54-48.67-44.75a185.1,185.1,0,0,0-.18,18.78c.41,21,2.08,42.22,6.28,62.81,3.74,18.3,7.38,35.84,6.92,54.7,0,.26,0,.67-.08,1.14h0a10.14,10.14,0,0,1,0,3.56c.25.38.5.77.73,1.16,12.31,20.73,35.54,29.5,59,29.86,14.55-16.82,22.84-39.22,20-63.27-3.94-25.63-11.76-50.29-4.32-74.94A70.53,70.53,0,0,1,434,717c-1.48-.66-2.84-2.86-3.75-4.09-.15-.19-2.08-3.08-1.51-2.82,7.46,3.29,15.44,4.78,23.42,6.18,2.13-1.17,4.42-2.33,5.83-3.27C512,685,571,676,627,653Z"/><path class="cls-1" d="M703.72,596.15a1.66,1.66,0,0,1-.81.73q-6.25,2.31-12.54,4.5C681.26,613.94,667.3,621.64,656,632c-9,8-18,16-29,21-56,23-115,32-169,60-1.41.94-3.7,2.1-5.83,3.27l3.45.61a101,101,0,0,0,20.08,1.39,1.26,1.26,0,0,1,.68-.23c24.78-1.22,50.07-1.61,74.53-6.08,23.42-4.27,45.84-12.67,67.63-22.06,19-8.16,40-15.4,53.71-31.53,7.63-8.93,14.94-18.4,22.08-27.73,3.3-4.31,6.61-8.64,9.86-13,3.63-4.86,7.2-9.77,10.64-14.76C711.1,600.71,707.47,598.27,703.72,596.15Z"/><path class="cls-2" d="M704.85,625.88l.82.3c-4.39,5.9-8.89,11.72-13.41,17.49-3.53,4.5-7.44,8.72-10.91,13.26-3.91,5.11-7.63,10.22-12.29,14.71-7.39,7.11-16,11.89-25.27,16.12-10.83,5-21.68,9.86-32.69,14.41-22,9.07-44.73,16.83-68.34,20.1-21,2.91-42.39,3.62-63.58,4.63-.07-.55-.16-1.09-.25-1.63,2.72,0,5.47-.08,8.28-.23a43.45,43.45,0,0,0-2.45-3.81c-.56-.7-2.15-3.24-3.21-3.18-2,.11-3.92.18-5.85.22a1.26,1.26,0,0,1,.68-.23c24.78-1.22,50.07-1.61,74.53-6.08,23.42-4.27,45.84-12.67,67.63-22.06,19-8.16,40-15.4,53.71-31.53,7.63-8.93,14.94-18.4,22.08-27.73,3.3-4.31,6.61-8.64,9.86-13l.14.1C702.87,619.62,702.92,625.15,704.85,625.88Z"/><path class="cls-2" d="M703.78,587.07l-.73,1.27a1.23,1.23,0,0,0-1.2-.14q-4.65,1.72-9.31,3.37c-10-1.9-19.73,3.64-29,6.84-7.43,2.56-18.76,2.85-25.15-2.54A9.14,9.14,0,0,1,636,592.8c1.34-.87,1.7-3.93,1.27-6.19l.35-.18a2.58,2.58,0,0,0,1.09-1.56l.54.14a2.79,2.79,0,0,0,0,2c2.23,3.56,10.84,4,14.48,4.09,5.46.1,10.16-1.89,15.13-3.92,8.12-3.3,17.11-6.58,25.91-4.11A40,40,0,0,1,703.78,587.07Z"/><path class="cls-2" d="M703.05,588.34c1.57,1.11,1.86,5.89.67,7.81a47.7,47.7,0,0,0-8.25-3.82,21.43,21.43,0,0,0-2.93-.76q4.66-1.65,9.31-3.37A1.23,1.23,0,0,1,703.05,588.34Z"/><path class="cls-2" d="M703.72,596.15a1.66,1.66,0,0,1-.81.73c-24.86,9.18-50.18,17.14-76.32,21.71-23.3,4.07-46.88,5.8-70.38,8.26.66-2.7.42-6.53.45-8,0-.34,0-.68,0-1,22.74-2.38,45.56-4.06,68.13-7.91,23.15-3.94,45.63-10.52,67.73-18.33a21.43,21.43,0,0,1,2.93.76A47.7,47.7,0,0,1,703.72,596.15Z"/><path class="cls-2" d="M697.91,554.2c2.48,1,1.81,9.82-1.06,8.68-6.56-2.61-13.65-5.75-20.68-6.73-3-.42-5,.83-7.63,2.29-4.32,2.41-8.49,5.09-12.57,7.88-3.79,2.59-7.92,5.25-11.1,8.59a31.53,31.53,0,0,0-5.63,10.1l-.54-.14c.85-2.64.09-7.42-1.71-7.25a47.76,47.76,0,0,1,3.17-6.71c4.31-7.49,13.27-12.46,20.35-17a77.75,77.75,0,0,1,10.79-6.15c2.7-1.16,4.92-.73,7.74,0A151.4,151.4,0,0,1,697.91,554.2Z"/><path class="cls-8" d="M663.5,598.41c9.31-3.2,19-8.74,29-6.84C670.44,599.38,648,606,624.81,609.9c-22.57,3.85-45.39,5.53-68.13,7.91.09-4.6,0-9.2-.1-13.8l78.8-11a1.35,1.35,0,0,0,.61-.24,9.14,9.14,0,0,0,2.36,3.07C644.74,601.26,656.07,601,663.5,598.41Z"/><path class="cls-2" d="M669.3,119.9c1.38-.51,3.08-.67,2.81,1.2s-3.11,3.5-4.66,4.08a30.4,30.4,0,0,0-10.13,6.2c-1.43-.49-2.87-.94-4.32-1.37A49.39,49.39,0,0,1,669.3,119.9Z"/><path class="cls-2" d="M670.91,523.2c2.46,1.22,1.59,10-1.06,8.68-6.91-3.41-16.79,3.38-22.36,7-4.3,2.82-8.57,5.83-12.74,8.82-7.4,5.3-17.09,13.54-18.36,23.21l-1.15-.14c.25-2.63-.53-5.88-1.92-5.76a43.4,43.4,0,0,1,11.06-18.39c5.81-5.89,13.16-10.28,19.94-15S662.43,519,670.91,523.2Z"/><path class="cls-2" d="M654.65,417c7.57,7.49,12.15,18.33,10.68,29a59.09,59.09,0,0,1-3.42,12.29L661,458a.88.88,0,0,0,.05-.15,7.78,7.78,0,0,0-.71-6.15c-.21-.31-.42-.62-.64-.92a31.15,31.15,0,0,0,1.88-8c.68-9.4-8-18.29-15.49-22.89-10.15-6.27-21.76-10.2-32.43-15.47-11.94-5.9-23.79-12-36-17.25-6.4-2.76-13.42-6.47-20.44-7.2s-13.06,2.66-16.68,8.48c-.39-.12-.79-.22-1.18-.33a.8.8,0,0,0-.67.12,22.09,22.09,0,0,0-1.78-4.69.54.54,0,0,1,.05-.11c3.5-6.62,8.95-12,16.82-12.56,8.72-.58,18.05,4.62,25.76,8,13.87,6,27.17,13.17,40.83,19.62C631.89,403.81,645.42,407.8,654.65,417Z"/><path class="cls-2" d="M661,458l.87.32c-.61,1.68-1.25,3.34-1.86,5-2.19,6-4.34,12-6.4,18-1.48-.53-3-1-4.46-1.5q3.28-9.74,6.79-19.38.51-1.38,1.08-2.79.68.92,1.32,1.86C659.51,461.08,660.65,459.06,661,458Z"/><path class="cls-1" d="M646.13,419.81c7.46,4.6,16.17,13.49,15.49,22.89a31.15,31.15,0,0,1-1.88,8c-15.78-22.37-42.36-30.69-66.1-42.24a306,306,0,0,0-53.08-20.13c3.62-5.82,9.55-9.22,16.68-8.48s14,4.44,20.44,7.2c12.23,5.28,24.08,11.35,36,17.25C624.37,409.61,636,413.54,646.13,419.81Z"/><path class="cls-2" d="M660.38,451.66a7.78,7.78,0,0,1,.71,6.15.88.88,0,0,1-.05.15c-.39,1.1-1.53,3.12-2.66,1.47q-.64-.94-1.32-1.86c.89-2.22,1.86-4.51,2.68-6.83C660,451,660.17,451.35,660.38,451.66Z"/><path class="cls-2" d="M659.74,450.74c-.82,2.32-1.79,4.61-2.68,6.83-15.56-21.19-41.57-29.24-64.47-40.39a300.67,300.67,0,0,0-52-19.81c-.08-.48-.18-1-.27-1.45-.32-1.7-.63-3.57-1-5.43a3.32,3.32,0,0,0,.51-.76c.25-.47.51-.92.78-1.36a306,306,0,0,1,53.08,20.13C617.38,420.05,644,428.37,659.74,450.74Z"/><path class="cls-1" d="M549.37,476.12c0,.51.09,1,.13,1.54a142.52,142.52,0,0,0,22.27,13.95c6.76,3.46,14,5.81,20.86,9q.55-.68,1.14-1.35a24.54,24.54,0,0,1-12-7.55A25,25,0,0,1,576.42,478C567.41,479.28,558.35,479.11,549.37,476.12Z"/><path class="cls-1" d="M630.59,435.27c2.7,12.43-3.23,26-13.59,30.73-3.64,1.21-7.33,2.52-11.06,3.82l2.38.8c4.94,1.61,9.84,5,15.06,5.42l.09,0c6.84-.92,14.27.51,20.82,2.25q2.48.66,4.9,1.43,3.28-9.74,6.79-19.38.51-1.38,1.08-2.79C650,447.92,640.73,441,630.59,435.27Z"/><path class="cls-3" d="M630.59,435.27c-12.13-6.86-25.52-12-38-18.09a300.67,300.67,0,0,0-52-19.81c3.53,18.84,5.21,38.07,6.95,57.14q1,10.8,1.85,21.61c9,3,18,3.16,27,1.83a19.57,19.57,0,0,1,1.22-8.4c3.24-8.22,9.49-7.66,16.31-4.49a122.48,122.48,0,0,0,12,4.76c3.73-1.3,7.42-2.61,11.06-3.82C627.36,461.29,633.29,447.7,630.59,435.27Z"/><path class="cls-2" d="M657.32,131.38c-.74.69-1.45,1.42-2.14,2.2-1,1.17-3.66,3.35-5.44,3s-1.12-2-.16-3,2.23-2.4,3.42-3.5C654.45,130.44,655.89,130.89,657.32,131.38Z"/><path class="cls-2" d="M653.65,481.24q-.79,2.28-1.56,4.57c-.56,1.66-1.18,2.17-1.75,2-1.31-.4-2.35-4.53-1.67-6.54.17-.51.34-1,.52-1.53C650.69,480.21,652.17,480.71,653.65,481.24Z"/><path class="cls-2" d="M653,130q-1.79,1.65-3.42,3.5c-1,1.09-1.65,2.66.16,3l-.34,1.26c-.93-.25-1.87-.48-2.81-.69a119.76,119.76,0,0,0-43.07-1.73c-13.2,1.85-25.56,7-37.61,12.49a1,1,0,0,1-.89,0,134.29,134.29,0,0,1,8.79-12.63c10.77-4.48,21.82-8.11,33.53-9.37A116.88,116.88,0,0,1,653,130Z"/><path class="cls-2" d="M650.34,487.81l-.44,1.25c-8-2.81-17.5-5.27-25.92-4.15,2-1.05,2.07-8.46-.51-8.85,6.84-.92,14.27.51,20.82,2.25q2.48.66,4.9,1.43c-.18.51-.35,1-.52,1.53C648,483.28,649,487.41,650.34,487.81Z"/><path class="cls-2" d="M641.85,502.2c2.61-1.36,3.48,7.42,1.06,8.68-1.76.92-3.74,1-5.64,1.46a19,19,0,0,0-7.31,3.58,58.54,58.54,0,0,0-7.77,6.18c-4,3.95-8.34,7.37-12.29,11.28.85-2.9-.35-9.1-2.52-6.72-2.91,3.19-5.65,6.48-8.29,9.86a77.85,77.85,0,0,1,8.9-11.13c3.42-3.51,7.47-6.27,10.93-9.71a64.7,64.7,0,0,1,6.67-6c2.65-2,5.43-4.36,8.55-5.52C636.62,503.22,639.52,503.43,641.85,502.2Z"/><path class="cls-2" d="M637,577.62c1.8-.17,2.56,4.61,1.71,7.25a2.58,2.58,0,0,1-1.09,1.56l-.35.18c-.28-1.54-.93-2.7-1.88-2.57l-.17,0A33.42,33.42,0,0,1,637,577.62Z"/><path class="cls-2" d="M637.26,586.61c.43,2.26.07,5.32-1.27,6.19a12.09,12.09,0,0,1-1.07-5Z"/><path class="cls-2" d="M636.55,577.75a1.36,1.36,0,0,1,.44-.13,33.42,33.42,0,0,0-1.78,6.44l-19.38,2.7a14,14,0,0,1-3.09-6.17,31.83,31.83,0,0,1-.68-5.6l1.85-1.11c.78-.45,1.19-1.67,1.33-3.07l1.15.14c0,.31-.08.63-.1.94-.26,3.59-.09,6.29,3.19,8.42a10,10,0,0,0,7.37,1.52C630.18,581.17,633.54,579.28,636.55,577.75Z"/><path class="cls-2" d="M637.26,586.61l-2.34,1.2a20.07,20.07,0,0,1,.29-3.75l.17,0C636.33,583.91,637,585.07,637.26,586.61Z"/><path class="cls-2" d="M636,592.8a1.35,1.35,0,0,1-.61.24l-78.8,11-.15-5.48c0-1.16-.07-2.32-.11-3.48h.06l59.45-8.28a11.86,11.86,0,0,0,9.55,4.28c3.19-.15,6.52-1.69,9.54-3.23A12.09,12.09,0,0,0,636,592.8Z"/><path class="cls-2" d="M615.83,586.76l19.38-2.7a20.07,20.07,0,0,0-.29,3.75c-3,1.54-6.35,3.08-9.54,3.23A11.86,11.86,0,0,1,615.83,586.76Z"/><path class="cls-2" d="M623.47,476.06c2.58.39,2.53,7.8.51,8.85l-.76.11c-4-.37-8-2.08-11.88-3.79a24.6,24.6,0,0,1,10.16-4.84C622.15,476.26,622.81,476.15,623.47,476.06Z"/><path class="cls-2" d="M624,484.91a1,1,0,0,1-.6.13l-.16,0Z"/><path class="cls-2" d="M623.38,476l.09,0c-.66.09-1.32.2-2,.33a24.6,24.6,0,0,0-10.16,4.84,72.64,72.64,0,0,0-7.13-2.82A84,84,0,0,1,593.44,474c-2.16-1-4.58-2.46-7-2.52-8.83-.19-5.63,9.32-2,13.19a18.83,18.83,0,0,0,8.46,5.07c2.39.66,6.61,1.61,9,.47l.06,0c-2.78,2.92-5.5,6-8.14,9.07a24.54,24.54,0,0,1-12-7.55c-4.77-5.93-7-14.92-4.12-22.15,3.24-8.22,9.49-7.66,16.31-4.49a125.09,125.09,0,0,0,14.37,5.56C613.26,472.23,618.16,475.59,623.38,476Z"/><path class="cls-9" d="M615.83,586.76,556.38,595h-.06c-.65-21.18-1.8-42.34-3.07-63.48-.13-2.18-.27-4.37-.4-6.55l16.87,9.65c-2.67,7.69-3,15.9,2.49,22.34,4.58,5.34,11.9,4.49,17.24.93a27.42,27.42,0,0,0,.51,14.3c1.85,5.39,6.66,7.47,12.12,7,3.66-.34,6.86-2.3,10-4.2a31.83,31.83,0,0,0,.68,5.6A14,14,0,0,0,615.83,586.76Z"/><path class="cls-2" d="M613.32,565.05c1.39-.12,2.17,3.13,1.92,5.76-.14,1.4-.55,2.62-1.33,3.07L612.06,575A33.49,33.49,0,0,1,613.32,565.05Z"/><path class="cls-2" d="M623.22,485a22.61,22.61,0,0,0-9.46,3.67,60.72,60.72,0,0,0-9.73,8.63c.9-2.8,0-8-2.12-7.14l1.47-1.52a76.51,76.51,0,0,1,8-7.43C615.25,482.94,619.22,484.65,623.22,485Z"/><path class="cls-2" d="M612.85,565.2a.89.89,0,0,1,.47-.15,33.49,33.49,0,0,0-1.26,9.94c-3.12,1.9-6.32,3.86-10,4.2-5.46.52-10.27-1.56-12.12-7a27.42,27.42,0,0,1-.51-14.3,17.63,17.63,0,0,0,2.6-2.09c2.77-2.71,4.79-6.15,7.12-9.23.63-.83,1.26-1.65,1.9-2.46-3.84,5.55-7,11.67-7.87,18.27-.51,4,.43,6.77,4.64,7.63a14.41,14.41,0,0,0,5,.05C606.47,569.51,609.71,567,612.85,565.2Z"/><path class="cls-2" d="M607.38,526.66c2.17-2.38,3.37,3.82,2.52,6.72a52.15,52.15,0,0,0-3.88,4.24c-1.69,2.08-3.37,4.26-4.95,6.54-.64.81-1.27,1.63-1.9,2.46-2.33,3.08-4.35,6.52-7.12,9.23a17.63,17.63,0,0,1-2.6,2.09,55.58,55.58,0,0,1,7-17.25c.85-1.4,1.73-2.8,2.64-4.17C601.73,533.14,604.47,529.85,607.38,526.66Z"/><path class="cls-2" d="M609.9,533.38a2.65,2.65,0,0,1-.52,1c-2.87,3.15-5.66,6.38-8.31,9.73,1.58-2.28,3.26-4.46,4.95-6.54A52.15,52.15,0,0,1,609.9,533.38Z"/><path class="cls-3" d="M604.21,478.41a72.64,72.64,0,0,1,7.13,2.82,76.51,76.51,0,0,0-8,7.43l-1.47,1.52-.06,0c-2.4,1.14-6.62.19-9-.47a18.83,18.83,0,0,1-8.46-5.07c-3.59-3.87-6.79-13.38,2-13.19,2.44.06,4.86,1.51,7,2.52A84,84,0,0,0,604.21,478.41Z"/><path class="cls-2" d="M601.91,490.18c2.12-.9,3,4.34,2.12,7.14v0c-.55.58-1.08,1.17-1.61,1.76a13.67,13.67,0,0,1-8.64.15C596.41,496.14,599.13,493.1,601.91,490.18Z"/><path class="cls-2" d="M602.41,499.1c.53-.59,1.06-1.18,1.61-1.76a2.42,2.42,0,0,1-1.11,1.54Z"/><path class="cls-2" d="M602.41,499.1c-2.6,2.94-5.07,6-7.47,9.14.78-2.34.56-6.27-1-7l-1.28-.6q.55-.68,1.14-1.35A13.67,13.67,0,0,0,602.41,499.1Z"/><path class="cls-2" d="M599.09,536.52c-.91,1.37-1.79,2.77-2.64,4.17a55.58,55.58,0,0,0-7,17.25c-5.34,3.56-12.66,4.41-17.24-.93-5.52-6.44-5.16-14.65-2.49-22.34l2.13,1.21c2.43,1.39,3.46-7,1.18-8.6a65.8,65.8,0,0,1,4-6.39l3.86,2a1.13,1.13,0,0,0,1.53-.49l.82.65a81.64,81.64,0,0,0-6.39,8.93c-2.92,4.86-7.12,11.58-3,16.79,5.71,7.17,15.29,1.14,19.33-4.38C595.1,541.72,597.07,539.09,599.09,536.52Z"/><path class="cls-2" d="M593.91,501.2c1.59.77,1.81,4.7,1,7L593.6,510a1.07,1.07,0,0,1-.75-.1c-1.87-.9-3.78-1.73-5.69-2.53q2.69-3.42,5.47-6.75Z"/><path class="cls-2" d="M593.6,510l1.34-1.74C594.64,509.16,594.19,509.84,593.6,510Z"/><path class="cls-2" d="M592.85,509.88a1.07,1.07,0,0,0,.75.1c-1.83,2.37-3.62,4.71-5.41,6.93-1.65,2-3.34,4.07-5,6.13l-.82-.65c1.31-1.86,1.41-7.22-.47-8.19q2.57-3.45,5.25-6.85C589.07,508.15,591,509,592.85,509.88Z"/><path class="cls-2" d="M592.63,500.6q-2.79,3.33-5.47,6.75c-5.5-2.3-11.12-4.34-16.44-7.06a146.2,146.2,0,0,1-20.43-12.54c-.25-3.37-.52-6.73-.79-10.09a142.52,142.52,0,0,0,22.27,13.95C578.53,495.07,585.76,497.42,592.63,500.6Z"/><path class="cls-3" d="M587.16,507.35q-2.68,3.4-5.25,6.85-15.43-8-30.85-15.92-.36-5.26-.77-10.53a146.2,146.2,0,0,0,20.43,12.54C576,503,581.66,505.05,587.16,507.35Z"/><path class="cls-2" d="M581.91,514.2c1.88,1,1.78,6.33.47,8.19a1.13,1.13,0,0,1-1.53.49l-3.86-2,.61-.85C579,518.09,580.44,516.14,581.91,514.2Z"/><path class="cls-2" d="M551.06,498.28q15.42,8,30.85,15.92c-1.47,1.94-2.9,3.89-4.31,5.84l-.61.85-25.26-13C551.52,504.66,551.29,501.47,551.06,498.28Z"/><path class="cls-8" d="M551.73,507.85l25.26,13a65.8,65.8,0,0,0-4,6.39l-.12-.08-20.68-11.82Q552,511.62,551.73,507.85Z"/><path class="cls-2" d="M573,527.28c2.28,1.6,1.25,10-1.18,8.6l-2.13-1.21A51.08,51.08,0,0,1,573,527.28Z"/><path class="cls-2" d="M572.91,527.2l.12.08a51.08,51.08,0,0,0-3.31,7.39L552.85,525c-.2-3.21-.41-6.43-.62-9.64Z"/><path class="cls-2" d="M573.81,135.29A134.29,134.29,0,0,0,565,147.92c-1.71-.64-2.19-5.82-1-7.94a1.8,1.8,0,0,1,.79-.78Q569.31,137.18,573.81,135.29Z"/><path class="cls-2" d="M563.43,139.58l.63.4c-1.23,2.12-.75,7.3,1,7.94a137.87,137.87,0,0,0-15.55,35.93,160.37,160.37,0,0,0-5.09,36.27c-.6,15.69-1.43,31.59,7,45.54-1.13-1.79-2.4.64-2.71,1.61a7.89,7.89,0,0,0,.71,6.16q-1.29-2.12-2.38-4.31c0-.31.07-.63.11-.94.78-2.59.29-7-1.73-7.14-.6-.05-1.21-.09-1.81-.11a60.66,60.66,0,0,1-2.06-8c-2.61-14.1-1.58-29-.54-43.28a157,157,0,0,1,9.17-43A145.72,145.72,0,0,1,563.43,139.58Z"/><path class="cls-2" d="M556.58,604c.11,4.6.19,9.2.1,13.8l-2.3.23c-.82.09-1.39.86-1.72,1.93,0-.17,0-.33,0-.43.47-15.79-.5-31.69-1.22-47.46q-1.19-25.77-2.87-51.52l.89-.06c.09,1.52.52,2.9,1.37,3.38l2,1.14c.13,2.18.27,4.37.4,6.55,1.27,21.14,2.42,42.3,3.07,63.48-2.86.52-2.46,9.35.06,9Z"/><path class="cls-2" d="M552.42,623c0-.46,1-2.27,1.36-2.32.06,0,.1,0,.11,0a.09.09,0,0,0-.11,0c-.2,0-.62,0-.72-.07a4.21,4.21,0,0,0-.41-.28c0-.14,0-.28,0-.4.33-1.07.9-1.84,1.72-1.93l2.3-.23c0,.34,0,.68,0,1,0,1.49.21,5.32-.45,8l-1.83.19c-1.79.19-2.5-4-1.82-6.71a.18.18,0,0,1,.09,0c0,.33,0,.69,0,.93A6.7,6.7,0,0,0,552.42,623Z"/><path class="cls-2" d="M556.58,604l-.2,0c-2.52.36-2.92-8.47-.06-9,0,1.16.08,2.32.11,3.48Z"/><path class="cls-2" d="M554.38,627l1.83-.19a3.81,3.81,0,0,1-1.71,2.73c-1.87.85-5.39-1.08-7.11-1.67-5.3-1.83-10.54-3.85-15.76-5.87-18-7-35.83-14.27-53.65-21.63q-10-4.14-20-8.31c.3-3-.77-7.05-2.1-5.9s-2.62,2.27-3.94,3.37Q395.65,566,340,541.13c-18-8.1-36-16.27-53.67-25.14-5-2.53-10.07-5.08-14.91-7.95,2.49.19,2.86-7.72.5-8.86l.07-.11c11.62,7,24.17,12.66,36.43,18.42,19.85,9.33,39.89,18.28,60,27.1q65.81,28.92,132.38,56c14.28,5.8,28.57,11.63,43,16.93,2.38.88,6.61,1.5,8.78,2.77C551.88,623.06,552.59,627.23,554.38,627Z"/><path class="cls-2" d="M553.78,620.72a.09.09,0,0,1,.11,0S553.84,620.73,553.78,620.72Z"/><path class="cls-2" d="M552.62,621.3c0-.24,0-.6,0-.93a4.21,4.21,0,0,1,.41.28c.1.08.52,0,.72.07-.38,0-1.36,1.86-1.36,2.32a6.7,6.7,0,0,1,.2-1.74c0,.14,0,.25,0,.28S552.61,621.45,552.62,621.3Z"/><path class="cls-2" d="M552.85,525l-2-1.14c-.85-.48-1.28-1.86-1.37-3.38-.17-2.84.82-6.22,2.43-5.3l.32.18C552.44,518.59,552.65,521.81,552.85,525Z"/><path class="cls-8" d="M551.46,572.08c.72,15.77,1.69,31.67,1.22,47.46,0,.1,0,.26,0,.43s-.07.24-.1.36c-2.17-1.27-6.4-1.89-8.78-2.77-14.48-5.3-28.77-11.13-43-16.93q-66.59-27.06-132.38-56c-20.08-8.82-40.12-17.77-60-27.1-12.26-5.76-24.81-11.41-36.43-18.42l-.84-.5a33.15,33.15,0,0,1-4.15-2.8,4.9,4.9,0,0,1-1.59-2.18c-1.95-4.3-3-10.62-4-15.92-3.71-20.92-5.69-42.19-7.65-63.33-3.86-41.7-6.67-83.5-9-125.3q-.19-3.41-.37-6.81c.11.83.46-.55,1.93-1.78.51-.42,2.31-1.3,1.92-1.33.27,0,.55,0,.83.05a20.83,20.83,0,0,1,4.11.84c5.1,1.26,10.14,2.83,15.15,4.41,17.6,5.52,35.05,11.57,52.45,17.7q18.17,6.39,36.27,13,50.26,18.23,99.9,38.1c17.09,6.88,34.18,13.88,50.9,21.67l3.13,1.47c5.61,2.65,11.22,5.37,16.56,8.54a43.25,43.25,0,0,1,4.94,3.29,5.52,5.52,0,0,1,1.73,1.9,19.07,19.07,0,0,1,1.53,4.93c.69,2.83,1.22,5.64,1.7,8.46,1.44,8.53,2.51,17.12,3.48,25.7,2,17.91,3.64,35.87,5,53.83q.63,8.16,1.22,16.33.76,10.63,1.45,21.26Q550.27,546.3,551.46,572.08Z"/><path class="cls-2" d="M552.66,620c0,.12,0,.26,0,.4a.18.18,0,0,0-.09,0C552.59,620.21,552.63,620.09,552.66,620Z"/><path class="cls-2" d="M552.61,621.58s0-.14,0-.28C552.61,621.45,552.61,621.54,552.61,621.58Z"/><path class="cls-2" d="M551.38,265.66a8,8,0,0,1,.71,6.15c-.3.92-1.53,3.28-2.6,1.78l-.11-.16a7.89,7.89,0,0,1-.71-6.16C549,266.3,550.25,263.87,551.38,265.66Z"/><path class="cls-2" d="M552.23,515.38l-.32-.18c-1.61-.92-2.6,2.46-2.43,5.3l-.89.06q-.69-10.63-1.45-21.26-.58-8.16-1.22-16.33l.79-.06a4.33,4.33,0,0,0,1.14,3c.8.63,1.61,1.26,2.44,1.87q.4,5.26.77,10.53l-.15-.08c-2.6-1.34-3.52,7.41-1.06,8.68l1.88,1Q552,511.62,552.23,515.38Z"/><path class="cls-2" d="M551.73,507.85l-1.88-1c-2.46-1.27-1.54-10,1.06-8.68l.15.08C551.29,501.47,551.52,504.66,551.73,507.85Z"/><path class="cls-2" d="M549.5,477.66c.27,3.36.54,6.72.79,10.09-.83-.61-1.64-1.24-2.44-1.87a4.33,4.33,0,0,1-1.14-3c-.25-3,.82-6.8,2.2-5.71Z"/><path class="cls-2" d="M549.5,477.66l-.59-.46c-1.38-1.09-2.45,2.72-2.2,5.71l-.79.06c-1.39-18-3-35.92-5-53.83-1-8.58-2-17.17-3.48-25.7-.48-2.82-1-5.63-1.7-8.46l2-.22a2.83,2.83,0,0,0,1.71,2.28l1.19.33c3.53,18.84,5.21,38.07,6.95,57.14Q548.59,466.08,549.5,477.66Z"/><path class="cls-2" d="M544,262.24c1.26-2.57,3.72,1.13,3.26,4.5-.06.48-.13,1-.18,1.44-.08.24-.16.47-.25.67A60,60,0,0,1,544,262.24Z"/><path class="cls-2" d="M547.29,266.74c.46-3.37-2-7.07-3.26-4.5-.16-.44-.31-.87-.46-1.31.6,0,1.21.06,1.81.11,2,.16,2.51,4.55,1.73,7.14C547.16,267.7,547.23,267.22,547.29,266.74Z"/><path class="cls-2" d="M547.11,268.18c0,.31-.08.63-.11.94,0-.09-.1-.18-.14-.27S547,268.42,547.11,268.18Z"/><path class="cls-2" d="M546.86,268.85c-.35.76-.85,1.24-1.48,1.19L544.3,270c0-.65-.09-1.23-.12-1.69a25.2,25.2,0,0,0-.66-4.27,6.44,6.44,0,0,1,.51-1.77A60,60,0,0,0,546.86,268.85Z"/><path class="cls-2" d="M544.3,270c.18,2.9.3,7.19-1.42,8.77-.16.15-.32.29-.47.45,0-3.09.17-6.2.44-9.3Z"/><path class="cls-2" d="M544.18,268.28c0,.46.08,1,.12,1.69l-1.45-.08c.17-1.85.37-3.7.62-5.54,0-.12,0-.23,0-.34A25.2,25.2,0,0,1,544.18,268.28Z"/><path class="cls-2" d="M543.57,260.93c.15.44.3.87.46,1.31a6.44,6.44,0,0,0-.51,1.77c-.36-1.36-.9-2.34-1.64-1.66s-1.61,1.53-2.36,2.32c-.3-.49-.69-.74-1.14-.63a44.7,44.7,0,0,0-16,7.34c-16.54,3-32.35,9.91-47.68,16.71-9.06,4-18.89,9.8-29,10.79a18.21,18.21,0,0,1-2.32.09,10.72,10.72,0,0,0-.33-2.7,4.26,4.26,0,0,0-.87-1.74c-.05-2.11-.67-4.21-1.63-4.47l.08-.4a19,19,0,0,0,6,.1c5.2-.72,10.14-2.95,14.92-5,6.76-2.93,13.46-6,20.21-8.94C501.17,267.31,522.06,259.74,543.57,260.93Z"/><path class="cls-2" d="M543.52,264c0,.11,0,.22,0,.34-.25,1.84-.45,3.69-.62,5.54-.86,0-1.72-.07-2.57-.07a8.66,8.66,0,0,0-.76-5.15c.75-.79,1.54-1.57,2.36-2.32S543.16,262.65,543.52,264Z"/><path class="cls-2" d="M542.85,269.89c-.27,3.1-.43,6.21-.44,9.3-6.95,6.52-12.2,15.07-13.42,24.64-.22,1.73-.78,5.65-2.55,3.05s-1.07-8.55-.68-11.63A58.15,58.15,0,0,1,532,275.13a41.53,41.53,0,0,1,6.39-2.09c1.09-.26,1.69-1.63,1.9-3.22C541.13,269.82,542,269.85,542.85,269.89Z"/><path class="cls-2" d="M540.3,395.92c.09.48.19,1,.27,1.45l-1.19-.33a2.83,2.83,0,0,1-1.71-2.28,10.48,10.48,0,0,1,0-4.46c.45.69,1,.9,1.62.19C539.67,392.35,540,394.22,540.3,395.92Z"/><path class="cls-2" d="M539.38,388c.39.11.79.21,1.18.33-.27.44-.53.89-.78,1.36a3.32,3.32,0,0,1-.51.76c-.17-.79-.35-1.57-.56-2.33A.8.8,0,0,1,539.38,388Z"/><path class="cls-2" d="M539.52,264.67a8.66,8.66,0,0,1,.76,5.15c-1.69,0-3.38,0-5,.07A47.19,47.19,0,0,1,539.52,264.67Z"/><path class="cls-2" d="M535.23,269.89c1.67-.08,3.36-.11,5-.07-.21,1.59-.81,3-1.9,3.22a41.53,41.53,0,0,0-6.39,2.09A49.57,49.57,0,0,1,535.23,269.89Z"/><path class="cls-2" d="M538.71,388.16c.21.76.39,1.54.56,2.33-.61.71-1.17.5-1.62-.19A3.6,3.6,0,0,1,538.71,388.16Z"/><path class="cls-2" d="M538.38,264c.45-.11.84.14,1.14.63a47.19,47.19,0,0,0-4.29,5.22,93.63,93.63,0,0,0-12.85,1.49A44.7,44.7,0,0,1,538.38,264Z"/><path class="cls-2" d="M538.71,388.16a3.6,3.6,0,0,0-1.06,2.14c-1-1.5-1.41-5.31-.72-6.83A22.09,22.09,0,0,1,538.71,388.16Z"/><path class="cls-2" d="M537.67,394.76l-2,.22a19.07,19.07,0,0,0-1.53-4.93,5.52,5.52,0,0,0-1.73-1.9,43.25,43.25,0,0,0-4.94-3.29c-5.34-3.17-11-5.89-16.56-8.54l-3.13-1.47.38-.82c.38.17.79.05,1.18-.6q1.67-2.81,3.28-5.65c5.19,2.49,10.28,5.12,15.22,8,2.88,1.68,6.33,3.54,8.26,6.37a12.45,12.45,0,0,1,.79,1.32c-.69,1.52-.26,5.33.72,6.83A10.48,10.48,0,0,0,537.67,394.76Z"/><path class="cls-2" d="M535.23,269.89a49.57,49.57,0,0,0-3.24,5.24,41.11,41.11,0,0,0-19.61,17.3c-1.1,1.88-2.42-.7-2.71-1.62a8,8,0,0,1,.71-6.15,43.37,43.37,0,0,1,12-13.28A93.63,93.63,0,0,1,535.23,269.89Z"/><path class="cls-2" d="M524,334.36c2.06-4.35,3.88,4.09,2.8,6.37-4.32,9.13-9.08,18.24-14.12,27-1.7-.81-3.4-1.61-5.12-2.39C513.46,355.38,519,344.87,524,334.36Z"/><path class="cls-2" d="M512.66,367.78q-1.62,2.85-3.28,5.65c-.39.65-.8.77-1.18.6a4.18,4.18,0,0,1-1.53-2.22,8,8,0,0,1,.71-6.15l.16-.27C509.26,366.17,511,367,512.66,367.78Z"/><path class="cls-2" d="M508.2,374l-.38.82c-16.72-7.79-33.81-14.79-50.9-21.67q-49.59-20-99.9-38.1l.79-2.18a1.2,1.2,0,0,0,.57.14c1.72,0,2-3.45,2-4.5,0-.42,0-.85,0-1.27,41.62,15.11,83.08,30.8,123.84,48.05,7.75,3.28,15.6,6.54,23.32,10.07l-.16.27a8,8,0,0,0-.71,6.15A4.18,4.18,0,0,0,508.2,374Z"/><path class="cls-2" d="M484.76,721.23a43.45,43.45,0,0,1,2.45,3.81c-2.81.15-5.56.23-8.28.23-.2-1.31-.42-2.61-.64-3.92-1-6-4.51-1.64-3.82,2.39l.24,1.44a.09.09,0,0,1-.07,0c-.69-2.28-.37-6,1.06-6.91,1.93,0,3.87-.11,5.85-.22C482.61,718,484.2,720.53,484.76,721.23Z"/><path class="cls-2" d="M479.48,802.15c0-.38.07-1.32.08-1.48,0-.74.07-1.48.1-2.22q.12-2.91.18-5.82.18-9.32-.16-18.64a375.92,375.92,0,0,0-4.9-48.41c.35.9.88,1.5,1.6,1.46l2.8-.14c4.95,32,5.56,64.15,2.82,96.45-1,12.14-2.43,25.26-9.53,35.58-1-1.58-2.66-4.41-3.91-5.49a32.15,32.15,0,0,0,5.92-10.37C478.87,830.24,478.7,815.53,479.48,802.15Z"/><path class="cls-2" d="M479.18,726.9l-2.8.14c-.72,0-1.25-.56-1.6-1.46,0-.14,0-.27-.07-.4,1.4.06,2.81.09,4.22.09C479,725.81,479.11,726.35,479.18,726.9Z"/><path class="cls-2" d="M478.29,721.35c.22,1.31.44,2.61.64,3.92-1.41,0-2.82,0-4.22-.09l-.24-1.44C473.78,719.71,477.27,715.36,478.29,721.35Z"/><path class="cls-2" d="M455.62,716.88a101,101,0,0,0,20.08,1.39c-1.43,1-1.75,4.63-1.06,6.91a105.2,105.2,0,0,1-15.16-1.63c-8.67-1.56-17.36-3-25.47-6.55-1.48-.66-2.84-2.86-3.75-4.09-.15-.19-2.08-3.08-1.51-2.82C437.29,713.86,446.5,715.26,455.62,716.88Z"/><path class="cls-2" d="M474.71,725.18c0,.13.05.26.07.4,0-.13-.1-.26-.14-.4A.09.09,0,0,0,474.71,725.18Z"/><path class="cls-2" d="M472.47,858.93a6.08,6.08,0,0,0,.74,1.11l-2.12.77C471.57,860.2,472,859.57,472.47,858.93Z"/><path class="cls-2" d="M472.47,858.93c-.44.64-.9,1.27-1.38,1.88a100.87,100.87,0,0,1-17,4.3c5.46-3.31,10.57-7,14.52-11.67C469.81,854.52,471.52,857.35,472.47,858.93Z"/><path class="cls-2" d="M467.55,853.05c.27-.1.62.06,1,.39-3.95,4.7-9.06,8.36-14.52,11.67a92.51,92.51,0,0,1-38.72-1.69c-18.74-5.08-33.75-17.79-44.57-33.49a5.62,5.62,0,0,0,.54-1.68c.25.38.5.77.73,1.16C391,861.33,435.82,864.93,467.55,853.05Z"/><path class="cls-2" d="M455.85,586.2c1.33-1.15,2.4,2.86,2.1,5.9l-6-2.53C453.23,588.47,454.54,587.34,455.85,586.2Z"/><path class="cls-2" d="M451.91,589.57l6,2.53a4.26,4.26,0,0,1-1,2.78,396.07,396.07,0,0,1-35.65,27.18l-.16-.24c1.9-1.3,1.84-7.88-.29-8.69C431.5,605.74,441.91,598,451.91,589.57Z"/><path class="cls-2" d="M471.09,860.81c-8.37,10.65-22.27,16.66-33.79,23-31.06,17-67.33,30.52-103,20.55-11.32-3.17-24.87-7.2-32-17.3-9.73-13.79-1-30.67,8.75-41.72,14.16-16,36.07-20.47,56.34-23,0,.42,0,.84,0,1.26v.15c-.61-.51-1.2-.92-.66,0,.24.4.48.81.74,1.21.16,1.4.65,3.15,1.9,3.15h.09c.41.64.84,1.27,1.28,1.9a1.86,1.86,0,0,1-1.37,1.11c-21.65,2.6-45.9,7.17-59.5,26.08-5.11,7.12-11.16,15.44-4.54,23.46,3.84,4.64,9.53,7.64,15,10a100.19,100.19,0,0,0,43.95,8c32.17-1.57,61-16.57,88.25-32.58l1.51-.9A100.87,100.87,0,0,0,471.09,860.81Z"/><path class="cls-10" d="M454,865.11l-1.51.9c-27.21,16-56.08,31-88.25,32.58a100.19,100.19,0,0,1-43.95-8c-5.46-2.33-11.15-5.33-15-10-6.62-8-.57-16.34,4.54-23.46,13.6-18.91,37.85-23.48,59.5-26.08a1.86,1.86,0,0,0,1.37-1.11c10.82,15.7,25.83,28.41,44.57,33.49A92.51,92.51,0,0,0,454,865.11Z"/><path class="cls-2" d="M443.09,296.27a10.72,10.72,0,0,1,.33,2.7,16.9,16.9,0,0,1-2.39-.18c.89-.69,1.24-2.48,1.19-4.26A4.26,4.26,0,0,1,443.09,296.27Z"/><path class="cls-2" d="M443.42,299a5.13,5.13,0,0,1-1,3.46,15.29,15.29,0,0,0-4.09,7.31c-.16,1-.75,4-2.44,3.14s-1.6-4.1-1.38-5.53a26.47,26.47,0,0,1,2-6.82,17.71,17.71,0,0,0,4.47-1.65l.12-.09A16.9,16.9,0,0,0,443.42,299Z"/><path class="cls-2" d="M442.22,294.53c0,1.78-.3,3.57-1.19,4.26a18.61,18.61,0,0,1-3.28-.74,19.28,19.28,0,0,1,2.63-3.39C441.12,293.9,441.74,294,442.22,294.53Z"/><path class="cls-2" d="M442.22,294.53c-.48-.5-1.1-.63-1.84.13a19.28,19.28,0,0,0-2.63,3.39,28.17,28.17,0,0,1-7.51-3.82,21.19,21.19,0,0,1,3.05-1.64c2.09-.91,4.63-1.16,6.56-2.39a.86.86,0,0,1,.74-.14C441.55,290.32,442.17,292.42,442.22,294.53Z"/><path class="cls-2" d="M441,298.79l-.12.09a17.71,17.71,0,0,1-4.47,1.65,20.2,20.2,0,0,1,1.31-2.48A18.61,18.61,0,0,0,441,298.79Z"/><path class="cls-2" d="M440.67,289.66l-.08.4a.86.86,0,0,0-.74.14c-1.93,1.23-4.47,1.48-6.56,2.39a21.19,21.19,0,0,0-3.05,1.64c-3.49-2.41-6.74-5.41-10.08-8.16-18.25-15-38.18-27.82-58.5-39.87-8.34-4.95-14.43-10.51-19.3-19-5.37-9.35-8.8-19.53-11.64-29.88-.8-2.89-1.3-8.68-5.52-6.78-3.64,1.64-7.45,7.38-9.54,10.88-3.36,5.63-2.8,10.34-1.39,16.42.48,2.11,1,4.19,1.57,6.27l-.72.2c-.3-1.16-.86-2.05-1.74-2.26-1.1-.25-2.18-.52-3.25-.82a44.46,44.46,0,0,1-.76-16.34,32.74,32.74,0,0,1,7.19-15.25c2.36-2.9,7-9.94,11.6-8.37,2.83,1,3.93,4.69,4.74,7.21,1.93,6,3.27,12.09,5.53,18,3.86,10.05,8.8,20.49,17.77,26.93,8.81,6.34,18.7,11.33,27.84,17.22,11.3,7.27,22.35,15,32.88,23.32C424.29,279.77,431.34,288,440.67,289.66Z"/><path class="cls-2" d="M437.75,298.05a20.2,20.2,0,0,0-1.31,2.48A14,14,0,0,0,435,301a23.37,23.37,0,0,0-9.59,7.42c-1.29,1.59-2.37-.41-2.71-1.62-.51-1.8-.53-4.61.71-6.15a29.9,29.9,0,0,1,6.86-6.43A28.17,28.17,0,0,0,437.75,298.05Z"/><path class="cls-3" d="M386,592c4-3,0-10-3-15-13.6-15.48-29.62-27.21-46.61-37.48-16.82-7.57-33.62-15.25-50.1-23.53-5-2.53-10.07-5.08-14.91-7.95-11.42-.84-24.45-1.08-33.93,6.27-8.9,6.91-16.27,16-23.11,24.86a176.34,176.34,0,0,0-24,41.45c-4.69,11.54-8.09,23.54-12.59,35.16-5.3,13.68-10.23,27.38-12.44,42,0,.1,0,.19,0,.28a7.19,7.19,0,0,1,1,1.81c6,17.82,18.84,30.21,34,39.65,33-27,49.55-66.05,74.77-102.48a19.87,19.87,0,0,1,17.29-8.75A51.2,51.2,0,0,0,271,561a15.9,15.9,0,0,1-3.75-4.09c-.17-.22-2-3.11-1.51-2.82a78.67,78.67,0,0,1,29.67,34.33l1,.12c-2.23-16.78-11.31-31.89-24.83-42.82a21.55,21.55,0,0,1-4-4.67c-.15-.22-1.88-2.81-.49-1.68,15.67,12.67,29.17,30.24,33.79,50,8.65,1.9,17.53,5.74,25.08,6.68C346,599,368,605,386,592Z"/><path class="cls-3" d="M296.8,591.74c-.09-1.07-.2-2.14-.34-3.2l-1-.12C295.91,589.52,296.37,590.62,296.8,591.74Z"/><path class="cls-1" d="M275,597c-25.22,36.43-41.73,75.48-74.77,102.48a201,201,0,0,0,29.52,14.61l.28.14a12.82,12.82,0,0,0,3.22-3c4.13-5.41,6.29-12.74,9.66-18.68,6.12-10.79,13.52-20.63,21-30.5,5.12-6.78,8.94-14.22,13.11-21.58a309.24,309.24,0,0,1,19.55-30,10.15,10.15,0,0,1-.11-3.35,3.77,3.77,0,0,1-.89-1.9,63.47,63.47,0,0,0-3.26-17A19.87,19.87,0,0,0,275,597Z"/><path class="cls-1" d="M340,541.13l-3.57-1.61c17,10.27,33,22,46.61,37.48,3,5,7,12,3,15-18,13-40,7-60,4-7.55-.94-16.43-4.78-25.08-6.68a62.87,62.87,0,0,1,1.71,15.46c38.92,6.57,78.34,7.74,117.75,8.26a1,1,0,0,1,.43.09c10.69-7.39,21.1-15.11,31.1-23.56Q395.65,566,340,541.13Z"/><path class="cls-2" d="M420.81,613.13c2.13.81,2.19,7.39.29,8.69a1.33,1.33,0,0,1-.72.22q-6.24-.09-12.48-.2Q414.41,617.55,420.81,613.13Z"/><path class="cls-2" d="M421.1,621.82l.16.24c-6.55,4.52-13.18,9-19.85,13.44a300.43,300.43,0,0,0-26.32,20.15c-4.61,3.9-9.64,8.74-12.21,13.69A41.14,41.14,0,0,0,359,681.47c-.37-.42-.74-.81-1-1.16s-2.41-2.32-2.45-2.09a47.49,47.49,0,0,1,5.68-17.3c3.87-6.54,9.78-11.5,15.59-16.26a312.38,312.38,0,0,1,27-20.11l4.12-2.71q6.24.12,12.48.2A1.33,1.33,0,0,0,421.1,621.82Z"/><path class="cls-2" d="M420.38,613a1,1,0,0,1,.43.09q-6.39,4.43-12.91,8.71c-35.54-.63-71-2.21-106.15-8.21a8.64,8.64,0,0,0,.25-2.84c.13.13.21.22.21.25a57.55,57.55,0,0,0,.42-6.26C341.55,611.35,381,612.52,420.38,613Z"/><path class="cls-2" d="M405.5,729.17c.16.21,2.17,3,1.51,2.83-21.93-5.59-40.51-23.54-48.67-44.75q.23-2.93.7-5.78a8.66,8.66,0,0,1,2.17,3.36c2.2,9.36,6.2,18.8,13.23,25.56a61.21,61.21,0,0,0,27.31,14.7C403.12,725.44,404.74,728.15,405.5,729.17Z"/><path class="cls-2" d="M364.44,768.84c3.74,18.3,7.38,35.84,6.92,54.7,0,.26,0,.67-.08,1.14-.28-1.56-.93-2.76-1.9-2.64l-2,.24a156.38,156.38,0,0,0-3.34-35.38c-2.41-11.24-4.93-22.36-6.44-33.77-2.69-20.26-4.29-41.33-3.27-61.77a128.14,128.14,0,0,1,1.18-13.11,67.29,67.29,0,0,0,2.79,9,185.1,185.1,0,0,0-.18,18.78C358.57,727,360.24,748.25,364.44,768.84Z"/><path class="cls-2" d="M371.28,824.69a10.14,10.14,0,0,1,0,3.56c-.23-.34-.46-.68-.71-1A6.58,6.58,0,0,0,371.28,824.69Z"/><path class="cls-2" d="M371.28,824.68h0a6.58,6.58,0,0,1-.7,2.55,24.23,24.23,0,0,0-2.3-2.73c-.11-.12-.5-.49-.88-.81h0v-.15c0-.42,0-.84,0-1.26l2-.24C370.35,821.92,371,823.12,371.28,824.68Z"/><path class="cls-2" d="M371.29,828.25a5.62,5.62,0,0,1-.54,1.68c-.44-.63-.87-1.26-1.28-1.9a1.39,1.39,0,0,0,1.11-.79C370.83,827.57,371.06,827.91,371.29,828.25Z"/><path class="cls-2" d="M370.58,827.24a1.39,1.39,0,0,1-1.11.79c-.69-1-1.35-2.08-2-3.14a9.44,9.44,0,0,1-.08-1.19c.38.32.77.69.88.81A24.23,24.23,0,0,1,370.58,827.24Z"/><path class="cls-2" d="M369.47,828h-.09c-1.25,0-1.74-1.75-1.9-3.15C368.12,826,368.78,827,369.47,828Z"/><path class="cls-2" d="M367.48,824.89c-.26-.4-.5-.81-.74-1.21-.54-.91.05-.5.66,0h0A9.44,9.44,0,0,0,367.48,824.89Z"/><path class="cls-2" d="M364,276.36c2.19-4.32,3.95,4.11,2.8,6.37a57.34,57.34,0,0,0-6.4,24.54c-1-.38-2-.75-3-1.11,0-.33,0-.61,0-.81a51,51,0,0,1-.23-6.41.06.06,0,0,1,0-.06A70.17,70.17,0,0,1,364,276.36Z"/><path class="cls-2" d="M361.78,272.36c1,1.7.77,4.63,0,6.37a53,53,0,0,0-4.72,20.15.06.06,0,0,0,0,.06,66.19,66.19,0,0,0-.59,6.9l-3.24-1.17A68.94,68.94,0,0,1,359,272.36C359.77,270.58,360.94,270.92,361.78,272.36Z"/><path class="cls-2" d="M357.34,306.16c1,.36,2,.73,3,1.11,0,.42,0,.85,0,1.27,0,1-.26,4.5-2,4.5a1.2,1.2,0,0,1-.57-.14,3.52,3.52,0,0,1-1.26-2.52C357.3,309.41,357.39,307.42,357.34,306.16Z"/><path class="cls-2" d="M358,680.31c.3.35.67.74,1,1.16q-.48,2.85-.7,5.78a67.29,67.29,0,0,1-2.79-9v0C355.59,678,357.67,679.94,358,680.31Z"/><path class="cls-2" d="M357.81,312.9l-.79,2.18q-18.11-6.58-36.27-13c-17.4-6.13-34.85-12.18-52.45-17.7-5-1.58-10.05-3.15-15.15-4.41a20.83,20.83,0,0,0-4.11-.84c-.28,0-.56-.06-.83-.05a.75.75,0,0,0-.24,0,.65.65,0,0,1,.24,0c.39,0-1.41.91-1.92,1.33-1.47,1.23-1.82,2.61-1.93,1.78a0,0,0,0,1,0,0,1,1,0,0,0,0-.17c0-.27,0-.53,0-.8-.06-1.16-.21-4.5-2-4.5-1.28,0-1.79,2-1.94,3.4a12.4,12.4,0,0,1,4.08-8c.85-.13,1.71-.24,2.59-.35q3.8-.46,7.56-.59c10.11,2.21,20.16,6.22,29.85,9.43,20.57,6.82,41,14,61.41,21.38l7.36,2.66c0,1,.14,2.05.24,3.07.12,1.25.74,3.74,2.44,3.14a1.36,1.36,0,0,0,.64-.5A3.52,3.52,0,0,0,357.81,312.9Z"/><path class="cls-2" d="M357.34,306.16c.05,1.26,0,3.25-.79,4.22a11.76,11.76,0,0,1-.15-1.84c0-.9,0-1.8.07-2.7Z"/><path class="cls-2" d="M357.34,306.16l-.87-.32a66.19,66.19,0,0,1,.59-6.9,51,51,0,0,0,.23,6.41C357.31,305.55,357.33,305.83,357.34,306.16Z"/><path class="cls-2" d="M356.47,305.84c-.05.9-.07,1.8-.07,2.7a11.76,11.76,0,0,0,.15,1.84,1.36,1.36,0,0,1-.64.5c-1.7.6-2.32-1.89-2.44-3.14-.1-1-.19-2.05-.24-3.07Z"/><path class="cls-2" d="M322.21,279.83c.11.31-2.08-1.64-2.45-2.06a15.22,15.22,0,0,1-3.21-4.52,55.15,55.15,0,0,1-2-29.2s2.95,2.85,3.21,3.18c.6.74,2.66,2.77,2.45,3.81A54.44,54.44,0,0,0,322.21,279.83Z"/><path class="cls-2" d="M319.78,236.36c.67,1.79,1,4.62,0,6.37-.79,1.35-2.12,1.81-2.8,0-1.39-3.7-2.9-7.71-4.24-11.85l.64.16c1.63.38,2.45-3.94,1.74-6.74l.72-.2C317,228.24,318.26,232.32,319.78,236.36Z"/><path class="cls-2" d="M315.12,224.3c.71,2.8-.11,7.12-1.74,6.74l-.64-.16a95,95,0,0,1-2.61-9.66c1.07.3,2.15.57,3.25.82C314.26,222.25,314.82,223.14,315.12,224.3Z"/><path class="cls-2" d="M241.33,199.59c1.7,1.6-2,5.49.95,2.7l.74-.73c1,1.42,1.88,3.12,2.7,4.14,2.45,3.06,5,6,7.69,8.92,5.26,5.73,10.68,11.37,17.2,15.68,2.89,1.91,5.87,3.65,8.92,5.27l-.15.28A96,96,0,0,0,260.79,228a22.68,22.68,0,0,0-4.84-.77c-1.16-1.19-2.29-2.4-3.42-3.61a131.63,131.63,0,0,1-12.1-14.46c-2.15-3.09-3.76-6.26-2.68-10.13,1.19-4.31,5.39-7.67,8.75-10.32,2.73-2.16,6.41-5.41,10.13-4.43,4.06,1.07,7.64,4.93,10.58,7.69,4.14,3.87,8.06,8,12.14,11.88a69.51,69.51,0,0,0,30.78,17.39,95,95,0,0,0,2.61,9.66c-13.31-3.16-24.62-8.95-34.5-18.43-4.89-4.68-9.52-9.66-14.61-14.13-3-2.6-6.66-6.56-10.76-4.56a34.31,34.31,0,0,0-7.15,5.12c-1,.84-1.81,1.77-2.7,2.68A8.7,8.7,0,0,0,241.33,199.59Z"/><path class="cls-2" d="M267.13,539.37c19.67,15.9,35.93,39.53,35.5,65.41l-2.29-.4a66.52,66.52,0,0,0-3.54-12.64c-1.43-18-10.8-34.4-25.17-46a21.55,21.55,0,0,1-4-4.67C267.47,540.83,265.74,538.24,267.13,539.37Z"/><path class="cls-2" d="M302.63,604.78a57.55,57.55,0,0,1-.42,6.26s-.08-.12-.21-.25c-.09-1.95-.61-4-1.36-4.54-.08-.63-.18-1.25-.3-1.87Z"/><path class="cls-2" d="M302,610.79a8.64,8.64,0,0,1-.25,2.84l-3.37-.59c-1-.17-1.56-1.22-1.83-2.54.42-.58.84-1.16,1.27-1.73.37.38.7.73.94,1s2.48,2.58,2.45,2.06-.08-1.32-.14-2C301.46,610.24,301.8,610.57,302,610.79Z"/><path class="cls-2" d="M298.38,613l3.37.59a2.58,2.58,0,0,1-.37.8,342.55,342.55,0,0,0-26,40.36c-5.46,10-12.47,18.56-19.06,27.77a180.87,180.87,0,0,0-13.09,20.81c-2.81,5.33-4.67,11.78-8.69,16.44-.44-.73-1-1.54-1.07-1.64-.83-1.11-2.1-3.18-3.47-3.94a12.82,12.82,0,0,0,3.22-3c4.13-5.41,6.29-12.74,9.66-18.68,6.12-10.79,13.52-20.63,21-30.5,5.12-6.78,8.94-14.22,13.11-21.58a309.24,309.24,0,0,1,19.55-30C296.82,611.82,297.42,612.87,298.38,613Z"/><path class="cls-2" d="M302,610.79c-.2-.22-.54-.55-.93-.93-.11-1.21-.25-2.42-.43-3.61C301.39,606.8,301.91,608.84,302,610.79Z"/><path class="cls-2" d="M301.21,611.83c0,.52-2.13-1.7-2.45-2.06s-.57-.62-.94-1l.91-1.23.26.32c.18.21,1.23,1.19,2.08,2C301.13,610.51,301.17,611.17,301.21,611.83Z"/><path class="cls-2" d="M300.64,606.25c.18,1.19.32,2.4.43,3.61-.85-.81-1.9-1.79-2.08-2l-.26-.32c.21-.3.43-.59.65-.88C299.84,606,300.27,606,300.64,606.25Z"/><path class="cls-2" d="M300.34,604.38c.12.62.22,1.24.3,1.87-.37-.29-.8-.21-1.26.41-.22.29-.44.58-.65.88a15.63,15.63,0,0,1-1.81-2.29c.34-.82.84-1.32,1.46-1.21Z"/><path class="cls-2" d="M300.34,604.38l-2-.34c-.62-.11-1.12.39-1.46,1.21a2,2,0,0,1-.37-1.2,61.25,61.25,0,0,0,.25-12.31A66.52,66.52,0,0,1,300.34,604.38Z"/><path class="cls-2" d="M298.73,607.54l-.91,1.23c-.46-.5-1-1.06-1.38-1.62a7.13,7.13,0,0,1,.48-1.9A15.63,15.63,0,0,0,298.73,607.54Z"/><path class="cls-2" d="M297.82,608.77c-.43.57-.85,1.15-1.27,1.73a10.15,10.15,0,0,1-.11-3.35C296.86,607.71,297.36,608.27,297.82,608.77Z"/><path class="cls-2" d="M296.8,591.74a61.25,61.25,0,0,1-.25,12.31,2,2,0,0,0,.37,1.2,7.13,7.13,0,0,0-.48,1.9,3.77,3.77,0,0,1-.89-1.9c-1-18.07-9-34.49-24.54-44.25a15.9,15.9,0,0,1-3.75-4.09c-.17-.22-2-3.11-1.51-2.82A78.49,78.49,0,0,1,296.8,591.74Z"/><path class="cls-2" d="M293.91,242.2c2.48,1,1.78,9.85-1.06,8.68-3.73-1.53-7.44-3.15-11.06-4.95,1.8-.9,2.23-7.59.12-8.73l-2.53-1.35.15-.28C284.2,238,289,240.21,293.91,242.2Z"/><path class="cls-2" d="M282.91,266.2c1.87,1,1.76,6.33.47,8.19l-.13.15a1.35,1.35,0,0,1-1.4.34,67.49,67.49,0,0,0-21.18-7.37c-7.29-1.15-14.74-1.34-22-2.9l-.92-.22c6.46-2.18,14.27-2.3,20.7-2.35C266.72,262,275.08,263.79,282.91,266.2Z"/><path class="cls-2" d="M283.38,274.39c1.29-1.86,1.4-7.2-.47-8.19C284.87,266.81,285,272.56,283.38,274.39Z"/><path class="cls-2" d="M283.25,274.54a1,1,0,0,1-1.4.34A1.35,1.35,0,0,0,283.25,274.54Z"/><path class="cls-2" d="M281.91,237.2c2.11,1.14,1.68,7.83-.12,8.73a108,108,0,0,1-12.75-7.3A82.16,82.16,0,0,1,256,227.21a22.68,22.68,0,0,1,4.84.77,96,96,0,0,1,18.59,7.87Z"/><path class="cls-2" d="M269,238.63a108,108,0,0,0,12.75,7.3,1,1,0,0,1-.94-.05c-10.11-5.44-20.1-10.83-31.79-9.22-4.59.64-25.09,2.23-22.69,10,3.19,10.26,18.26,10,26.62,10.91,10.72,1.2,20.32,3.61,29.92,8.68-7.83-2.41-16.19-4.22-24.42-4.16-6.43,0-14.24.17-20.7,2.35-9.08-2.29-15.68-9.22-15.82-19-.19-12.68,10.91-14.81,21.19-16.71,4.27-.79,8.53-1.63,12.79-1.42A82.16,82.16,0,0,0,269,238.63Z"/><path class="cls-2" d="M260.67,267.51a67.49,67.49,0,0,1,21.18,7.37,82.2,82.2,0,0,0-27.24-3.68c-1.48-.33-3-.61-4.43-.85a7,7,0,0,0-5.72,1.79c-5.8.82-10.88,2.22-13.84,7.78a1.13,1.13,0,0,1-.1-.13c-.29,1.43-.28,1.5.06.2l0-.07a12.32,12.32,0,0,0,1.08,1.31c1.14.86,2.05,2.1,3.21,3a13.91,13.91,0,0,0,5.73,2.56q.24,4.55.5,9.09c-6.17-1.18-12.63-5.74-14.37-12s1.41-14.73,7.11-17.83a24.37,24.37,0,0,1,3.91-1.68l.92.22C245.93,266.17,253.38,266.36,260.67,267.51Z"/><path class="cls-2" d="M271.88,499.18c2.36,1.14,2,9.05-.5,8.86l-.88-.52c-2.82-1.7-5.71-3.39-7.33-6.36a24.6,24.6,0,0,1-1.2-2.54c3.23,0,6.41.2,9.41.42A1.25,1.25,0,0,1,271.88,499.18Z"/><path class="cls-2" d="M272,499.07l-.07.11a1.25,1.25,0,0,0-.5-.14c-3-.22-6.18-.41-9.41-.42-1.75-4.26-2.58-9.09-3.44-13.5-1.81-9.24-3.11-18.59-4.29-27.93-3.07-24.54-5.2-49.2-7.15-73.85q-3.47-43.69-6-87.49c.42.08.83.14,1.24.19,2.56.3,2.94-8.65,0-9-.6-.07-1.18-.16-1.74-.28-.09-1.56-.17-3.12-.25-4.68.11,1.45.5,3.65,1.93,3.65,1.63,0,2-3.17,2-4.36,0,.27,0,.49,0,.66a1,1,0,0,1,0,.17,0,0,0,0,0,0,0q.18,3.4.37,6.81c2.36,41.8,5.17,83.6,9,125.3,2,21.14,3.94,42.41,7.65,63.33.94,5.3,2,11.62,4,15.92a4.9,4.9,0,0,0,1.59,2.18,33.15,33.15,0,0,0,4.15,2.8Z"/><path class="cls-2" d="M270.5,507.52l.88.52c-11.42-.84-24.45-1.08-33.93,6.27-8.9,6.91-16.27,16-23.11,24.86a176.34,176.34,0,0,0-24,41.45c-4.69,11.54-8.09,23.54-12.59,35.16-5.3,13.68-10.23,27.38-12.44,42,0,.1,0,.19,0,.28l-.14-.19c.31-2.2,0-4.84-1.2-5.63-.57-.37-1.14-.72-1.72-1.05,2.81-15.3,8.14-29.67,13.69-44.21,4.9-12.82,8.56-26,14.16-38.61a188,188,0,0,1,26.06-41.7c6.5-8,13.63-16.52,22.22-22.41,6.69-4.59,15.33-5.66,23.65-5.6a24.6,24.6,0,0,0,1.2,2.54C264.79,504.13,267.68,505.82,270.5,507.52Z"/><path class="cls-2" d="M250.18,270.35c1.48.24,2.95.52,4.43.85q-3.77.12-7.56.59c-.88.11-1.74.22-2.59.35A7,7,0,0,1,250.18,270.35Z"/><path class="cls-2" d="M248,279.14a.75.75,0,0,1,.24,0A.65.65,0,0,0,248,279.14Z"/><path class="cls-2" d="M244.3,281.23c0,.27,0,.53,0,.8,0-.17,0-.39,0-.66Z"/><path class="cls-2" d="M244.3,281.23v.14c0,1.19-.35,4.36-2,4.36-1.43,0-1.82-2.2-1.93-3.65a.38.38,0,0,1,0-.1l0-.51c0-.08,0-.16,0-.24,0-.23,0-.47,0-.71v-.07c0-.05,0-.1,0-.16a.92.92,0,0,1,0-.16c.15-1.41.66-3.4,1.94-3.4C244.09,276.73,244.24,280.07,244.3,281.23Z"/><path class="cls-2" d="M243,201.56l-.74.73c-2.94,2.79.75-1.1-.95-2.7A8.7,8.7,0,0,1,243,201.56Z"/><path class="cls-2" d="M242.38,287c2.94.35,2.56,9.3,0,9-.41-.05-.82-.11-1.24-.19q-.25-4.55-.5-9.09C241.2,286.88,241.78,287,242.38,287Z"/><path class="cls-2" d="M240.35,281.47l0,.51C240.36,281.79,240.36,281.62,240.35,281.47Z"/><path class="cls-2" d="M240.35,280.52c0,.24,0,.48,0,.71A5.83,5.83,0,0,1,240.35,280.52Z"/><path class="cls-2" d="M234.57,719.81c.41.69.73,1.31.44,1.19l-1.1-.46A8.88,8.88,0,0,0,234.57,719.81Z"/><path class="cls-2" d="M234.57,719.81a8.88,8.88,0,0,1-.66.73c-3.1-1.28-6.26-2.64-9.43-4.07a16.58,16.58,0,0,0,5.55-2.24c1.37.76,2.64,2.83,3.47,3.94C233.58,718.27,234.13,719.08,234.57,719.81Z"/><path class="cls-2" d="M233.91,720.54a6.08,6.08,0,0,1-.5.52c-3.3,3.21-7.57,4.4-12,4.92a179.05,179.05,0,0,1-17.93,1.15c-12.09.2-24.56-3.87-36-7.32C153,715.46,138.85,710.37,124.8,705c-11.7-4.49-25.62-8.59-34.55-17.86-8.66-9-6.92-22.32,1.07-31.1,7.22-7.92,16-11.11,26.63-11.68,15-.81,30.93-.92,44.24,6.81q-.28,1.46-.51,2.94c-.61-.54-1.19-1-1.13-.84.28.83.57,1.65.88,2.46-.22,2.39.95,4.82,2.09,5l.14.29a.81.81,0,0,1-.81-.1c-14-9-32.25-8.8-48.3-7.3-5.89.54-11.26,2.08-16.07,5.61-3.91,2.88-8.83,7.29-9.9,12.22-1.24,5.76,6.62,10.74,10.76,13.24a110.81,110.81,0,0,0,16.32,7.66c12.44,5,25,9.67,37.69,14,12.51,4.23,25.24,8.3,38.26,10.64,9.93,1.79,20.31,1.3,30.28,0a24.13,24.13,0,0,0,2.59-.45C227.65,717.9,230.81,719.26,233.91,720.54Z"/><path class="cls-2" d="M230.62,279.92l0,.07c-.34,1.3-.35,1.23-.06-.2A1.13,1.13,0,0,0,230.62,279.92Z"/><path class="cls-2" d="M229.75,714.09l.28.14a16.58,16.58,0,0,1-5.55,2.24c-13.22-6-26.55-13.29-36.7-23.14-9.56-9.3-18.43-20.16-24.12-32.35a1.34,1.34,0,0,0,.63-.57h0a4.4,4.4,0,0,0,.95-2.38,7.19,7.19,0,0,1,1,1.81C175.9,688.58,203.35,703.19,229.75,714.09Z"/><path class="cls-10" d="M224.48,716.47a24.13,24.13,0,0,1-2.59.45c-10,1.29-20.35,1.78-30.28,0-13-2.34-25.75-6.41-38.26-10.64-12.69-4.29-25.25-9-37.69-14a110.81,110.81,0,0,1-16.32-7.66c-4.14-2.5-12-7.48-10.76-13.24,1.07-4.93,6-9.34,9.9-12.22,4.81-3.53,10.18-5.07,16.07-5.61,16-1.5,34.31-1.73,48.3,7.3a.81.81,0,0,0,.81.1c5.69,12.19,14.56,23,24.12,32.35C197.93,703.18,211.26,710.5,224.48,716.47Z"/><path class="cls-2" d="M165.11,657.83l.14.19a4.4,4.4,0,0,1-.95,2.38A6.65,6.65,0,0,0,165.11,657.83Z"/><path class="cls-2" d="M163.91,652.2c1.22.79,1.51,3.43,1.2,5.63-.66-.91-1.45-1.77-2.11-2.52-.17-.19-.76-.74-1.32-1.22q.23-1.49.51-2.94C162.77,651.48,163.34,651.83,163.91,652.2Z"/><path class="cls-2" d="M163,655.31c.66.75,1.45,1.61,2.11,2.52a6.65,6.65,0,0,1-.81,2.57h0a.88.88,0,0,1-.77.28q-1.12-2.46-2.09-5c0-.12,0-.24,0-.36q.09-.63.21-1.26C162.24,654.57,162.83,655.12,163,655.31Z"/><path class="cls-2" d="M163.52,660.69a.88.88,0,0,0,.77-.28,1.34,1.34,0,0,1-.63.57Z"/><path class="cls-2" d="M161.68,654.09q-.12.63-.21,1.26c0,.12,0,.24,0,.36-.31-.81-.6-1.63-.88-2.46C160.49,653.09,161.07,653.55,161.68,654.09Z"/><path class="cls-2" d="M161.43,655.71q1,2.52,2.09,5C162.38,660.53,161.21,658.1,161.43,655.71Z"/></svg>