<svg id="Layer_3" data-name="Layer 3" xmlns="http://www.w3.org/2000/svg" viewBox="0 0 1000 1000"><defs><style>.cls-1{fill:#d8d8d8;}.cls-2{fill:#333;}.cls-3{fill:#fcfcfc;}.cls-4{fill:#8d969e;}.cls-5{fill:#797e82;}.cls-6{fill:#cedadb;}.cls-7{fill:#001019;}.cls-8{fill:#8e8e8e;}.cls-9{fill:#7c7c7c;}.cls-10{fill:#4f4f4f;}.cls-11{fill:#bcbcbc;}.cls-12{fill:#b2b2b2;}</style></defs><path class="cls-1" d="M197.61,246.92c.1,1.82.19,3.64.3,5.46a16.2,16.2,0,0,1-6.69-3c-1.35-1-2.42-2.47-3.75-3.47a15.52,15.52,0,0,1-1.26-1.53c3.46-6.49,9.38-8.12,16.15-9.08a14.47,14.47,0,0,0-4.76,9.33,1.15,1.15,0,0,0,0,.18c0,.07,0,.13,0,.19v.08a4.69,4.69,0,0,0,0,.83c0,.09,0,.19,0,.28s0,.37,0,.59A.53.53,0,0,0,197.61,246.92Z"/><path class="cls-2" d="M976.79,213.18c1.46,7.93.39,15.72-1,23.57-6.67,38.19-22.27,75-39.78,109.34q-1.78-3.36-3.67-6.64c9.83-19.26,18.84-38.58,25.85-59.11,5.44-15.94,10.86-32.21,13.57-48.86.58-3.6,1.37-7.36,1.2-11-.21-4.34-1.73-8.62-2.85-12.78a68.51,68.51,0,0,0-12.53-24.93c-7.22-9.29-16.11-16.73-25.54-23.5l1.11-1.56c.84.67,1.76.51,2.43-1s1.2-3,1.73-4.53c12.32,9.36,23.36,20.22,30.83,34.05C972.57,194.38,975.13,204.06,976.79,213.18Z"/><path class="cls-2" d="M947.77,594.59c4.15-8.36,7.62-16.62,9.56-25.4,11.83-24.69,13.86-52.41,12.31-79.45-1.78-31-7.32-61.86-17.54-91.27a301.22,301.22,0,0,0-21.48-48.07l1.25-.69c.66,1.16,1.57,1.4,2.55-.5.54-1,1.06-2.08,1.6-3.12a324.62,324.62,0,0,1,28.61,76.25c8,32.79,12.43,68.36,9.46,102.07a163.1,163.1,0,0,1-9.68,43.23c-3.57,9.43-8.14,19.79-15.63,26.79a31.57,31.57,0,0,1-6.84,4.83h0a26.19,26.19,0,0,0,1.79-8.62C945.6,592.48,947.77,594.23,947.77,594.59Z"/><path class="cls-3" d="M973,220.47c-.21-4.34-1.73-8.62-2.85-12.78a68.51,68.51,0,0,0-12.53-24.93c-7.22-9.29-16.11-16.73-25.54-23.5-5.39-3.88-10.95-7.54-16.49-11.19-13.68-9-28.11-16.85-41.94-25.66a155.47,155.47,0,0,1,6.12,21.83c16.31,19.29,36.2,36.83,42.29,62.67a83.62,83.62,0,0,0,15-2.76,88.88,88.88,0,0,0,9.84-3.32c1-.41,2-.84,3-1.29l.08,0h0l.1-.05a.28.28,0,0,0,.09,0c6.41-3.15,4.32,3,.15,5.09a95.75,95.75,0,0,1-27.13,8.68c5.5,32.6-4.71,62.7-14.28,92.46A225,225,0,0,1,927.3,331c1.74,2.78,3.42,5.62,5.05,8.48,9.83-19.26,18.84-38.58,25.85-59.11,5.44-15.94,10.86-32.21,13.57-48.86C972.35,227.88,973.14,224.12,973,220.47Z"/><path class="cls-1" d="M923.23,213.17a79,79,0,0,1-22.7.46c-4.15-.54,3.32-7.4,6.17-7a70.26,70.26,0,0,0,15.33.31c-6.09-25.84-26-43.38-42.29-62.67a166,166,0,0,1-.38,66.6c-3.17,15.51-7.73,33-17,46.43l.09.38c.32,1.38.62,2.8.88,4.21a193.71,193.71,0,0,1,15.53,12.78,296.34,296.34,0,0,1,30.11,31C918.52,275.87,928.73,245.77,923.23,213.17Z"/><path class="cls-1" d="M969.64,489.74c-1.78-31-7.32-61.86-17.54-91.27a301.22,301.22,0,0,0-21.48-48.07c-15-26.94-34.45-51.25-58.57-70.79a109,109,0,0,1,4,31.87c17.6,17.65,34.09,36.62,45.75,59,24.43,49.91,34.35,114.33,6.91,162.45a14.29,14.29,0,0,1,2.43,2.45c6.49,7.51,9.09,16.35,10.82,26a122,122,0,0,1,1.91,19.24c4.91-10.83,8.39-21.71,8.45-34a89.5,89.5,0,0,0-6.54-33.5,17.14,17.14,0,0,1,2.86,2.4,19.84,19.84,0,0,1,3.75,5.28A90.17,90.17,0,0,1,959,554.59a67,67,0,0,1-1.66,14.6C969.16,544.5,971.19,516.78,969.64,489.74Z"/><path class="cls-3" d="M866.7,287.6a87.34,87.34,0,0,1-.61,14.08q2.65,2.55,5.29,5.13A63.19,63.19,0,0,0,866.7,287.6Z"/><path class="cls-3" d="M333.76,266.53a82.83,82.83,0,0,1,5.71-21.11,12.07,12.07,0,0,0-.78-1A61.5,61.5,0,0,0,333.76,266.53Z"/><path class="cls-1" d="M342.82,252.68a65.71,65.71,0,0,0-5.18,23.64q42,15.24,83.68,31.4c-26-15.67-51.71-28-74.79-48.06C345,258.52,344,255.73,342.82,252.68Z"/><path class="cls-1" d="M329,242.16c-18.68,5.83-38.51,10.5-57.19-3.5-6.4-5-14.54-6-22.83-6.66.22,2.19-.2,4.77-1.23,5.95l-.15.17a1.21,1.21,0,0,1-1.63.4,96.05,96.05,0,0,0-31.79-4.3c11.8,2.58,23.52,7.26,34.83,11,24,8,47.87,16.37,71.67,25l8.58,3.1a81.37,81.37,0,0,1,4.37-31.81A10.27,10.27,0,0,0,329,242.16Z"/><path class="cls-1" d="M467,326.07q7.58,3.14,15.12,6.32c9.05,3.83,18.21,7.63,27.22,11.75,4.71-8,9.19-16.21,13.42-24.53C504.21,321.58,485.31,326.81,467,326.07Z"/><path class="cls-3" d="M921.84,370.53c-11.66-22.43-28.15-41.4-45.75-59a123.42,123.42,0,0,1-2.44,22.35c-.77,3.79-2.27,3.09-3.08,0a31.93,31.93,0,0,1,0-14,48.41,48.41,0,0,0,.81-13q-2.64-2.58-5.29-5.13c-.12,1-.26,1.94-.43,2.91a111.33,111.33,0,0,1-9.39,29.29c-9,19-22.67,35.43-38.39,49.34-2.13,1.88-3.72-7.92-1.24-10.13,14.19-12.54,27-27.56,35.39-44.62a103,103,0,0,0,8.83-24.82c.13-.62.24-1.25.34-1.87-.46,1.21-1,2.42-1.51,3.61-7.6,16.37-23.62,28.45-39.5,36.11C806,348.34,790.35,352,775,354.77a320,320,0,0,1-55.26,4.79A345.42,345.42,0,0,1,653,353c-30.54-5.88-58.68-17.83-79.53-41.6-16.72-19.09-23.63-43.16-23.44-67.81-8.11,7.61-14.24,17.58-15.66,28.75-.26,2-.91,6.6-3,3.56s-1.25-10-.79-13.57a67.83,67.83,0,0,1,7.27-23.48A48,48,0,0,0,515,259c-1.29,2.19-2.83-.82-3.17-1.89a9.31,9.31,0,0,1,.83-7.18,50.74,50.74,0,0,1,14-15.5C507.38,238,488.93,246,471,253.93c-10.57,4.68-22,11.44-33.79,12.6a22.55,22.55,0,0,1-2.71.1,6,6,0,0,1-1.21,4c-2.31,2.38-4.34,5.79-4.77,8.53-.19,1.15-.88,4.63-2.85,3.66s-1.87-4.78-1.61-6.45a30.48,30.48,0,0,1,2.3-8c-.59.17-1.17.34-1.72.56a27.33,27.33,0,0,0-11.19,8.66c-1.51,1.86-2.77-.48-3.16-1.89-.6-2.1-.62-5.38.83-7.18a34.94,34.94,0,0,1,8-7.5c-4.07-2.81-7.86-6.31-11.76-9.52-21.3-17.55-44.56-32.47-68.27-46.53-9.73-5.78-16.84-12.26-22.52-22.18C310.34,172,306.34,160.08,303,148c-.94-3.37-1.52-10.13-6.45-7.91-4.24,1.91-8.69,8.61-11.13,12.69-3.92,6.57-3.27,12.07-1.62,19.16.56,2.47,1.17,4.89,1.83,7.32,1.31,4.83,2.83,9.59,4.6,14.31.78,2.09,1.19,5.39,0,7.43-.92,1.58-2.48,2.11-3.27,0-1.62-4.32-3.38-9-4.95-13.83-15.53-3.68-28.73-10.44-40.26-21.5-5.7-5.47-11.11-11.28-17.05-16.49-3.45-3-7.77-7.66-12.55-5.32a40.23,40.23,0,0,0-8.35,6c-1.12,1-2.11,2.07-3.15,3.13,1.15,1.65,2.2,3.64,3.15,4.83,2.86,3.57,5.87,7,9,10.41,6.14,6.68,12.46,13.27,20.07,18.3,3.37,2.22,6.85,4.26,10.41,6.15,5.45,2.88,11.08,5.41,16.78,7.73,2.89,1.19,2.08,11.5-1.24,10.13-4.35-1.78-8.68-3.67-12.9-5.77a1.17,1.17,0,0,1-1.1-.06c-11.8-6.35-23.46-12.64-37.1-10.76-5.36.74-29.28,2.6-26.48,11.61,3.73,12,21.31,11.65,31.07,12.73,12.51,1.4,23.71,4.21,34.91,10.13,1,.32,1.61,1.84,1.78,3.61,8.29.61,16.43,1.68,22.83,6.66,18.68,14,38.51,9.33,57.19,3.5a10.27,10.27,0,0,1,4.63-.69c.7-2,1.48-3.95,2.34-5.89s2.29-1.68,3.27,0c1.17,2,.9,5.4,0,7.43-.2.46-.38.92-.58,1.38a12.07,12.07,0,0,1,.78,1c.73-1.75,1.51-3.47,2.37-5.17,2.55-5.05,4.61,4.79,3.27,7.43-.84,1.64-1.58,3.31-2.29,5,1.15,3,2.18,5.84,3.71,7,23.08,20.08,48.76,32.39,74.79,48.06q22.95,9,45.71,18.35c18.28.74,37.18-4.49,55.76-6.46,2-3.89,3.91-7.78,5.76-11.68,2.41-5.08,4.53,4.77,3.27,7.43-5,10.66-10.6,21.29-16.48,31.57,6.06,2.91,12,6,17.76,9.34,3.36,2,7.39,4.13,9.64,7.43a13.92,13.92,0,0,1,.92,1.54l.06-.13c4.09-7.72,10.45-14,19.63-14.66,10.18-.67,21.07,5.4,30.06,9.3,16.19,7,31.71,15.37,47.65,22.9,13.42,6.33,29.21,11,40,21.66,8.83,8.74,14.18,21.39,12.46,33.89a68.4,68.4,0,0,1-4,14.34c-.71,2-1.46,3.9-2.17,5.83-2.55,7-5.06,13.95-7.47,21,11.37,4.06,22.33,9.43,33.07,14.77,6.77,3.36,14.31,4.94,21.52,7.11,11.32,3.42,22.95,7,34.69,9.53,10.83-26.56,23.9-53.19,23.37-81.65q-5.53-6.4-11.44-12.55c-2.1-2.17-.67-12.2,2.34-9.07a328.91,328.91,0,0,1,38.82,49.06,383,383,0,0,1,22.33,39.28,7.17,7.17,0,0,1,.38,3.25l1.09,0,.3-.21a58.53,58.53,0,0,1,23.25-9.78c2.07-.36,2.78.77,1.78,2.56a9.68,9.68,0,0,1-6.08,4.26,42.19,42.19,0,0,0-11.89,3.87c6.78.89,13.49,2.37,19.87,3.81,3.5.79,2.7,11.12,0,10.5-15-3.41-32.43-7.21-47.66-2.49A117.58,117.58,0,0,0,806,520.38c-.31.16-.63.32-.93.49-5.81,2.91-11.33,3.7-18,3.13H787c21.71,16.27,38.43,40.4,38.28,68.14a11.52,11.52,0,0,1,.92-1,10.62,10.62,0,0,1,8.17-3.5v3.5c11.67-8.17,26.84-7,40.84-9.33,19.84-2.34,32.68-19.84,44.35-35a112.3,112.3,0,0,0,8.9-13.17.72.72,0,0,1-.09-.54c.07-.16.23-.15.43,0C956.19,484.86,946.27,420.44,921.84,370.53ZM290.24,241.89c-1.33-1.5-3.09-3.34-3.75-5.27a64.35,64.35,0,0,1-2.33-34.08c0,.06,3.44,3.33,3.74,3.71.7.87,3.11,3.24,2.86,4.45a63.6,63.6,0,0,0,2.33,33.6C293.22,244.66,290.67,242.38,290.24,241.89Z"/><path class="cls-1" d="M769.15,510.74a151.6,151.6,0,0,0,17.32,2.72c4.35.39,9.08.63,13.28-.77a13.48,13.48,0,0,0,1.46-.59,5.69,5.69,0,0,1,.41-2.29c3.32-6.59,6-13.61,8.7-20.46,3.56-8.93,6.59-17.41,7-27.17a3.91,3.91,0,0,1,0-.54,330.66,330.66,0,0,0-24.8-32.55C793.05,457.55,780,484.18,769.15,510.74Z"/><path class="cls-1" d="M875.16,581.75c-14,2.33-29.17,1.16-40.84,9.33v-3.5a10.62,10.62,0,0,0-8.17,3.5,11.52,11.52,0,0,0-.92,1v.17a.21.21,0,0,0-.05-.11c-2.79,3.51-4.16,8.34-8.36,9.39-14,0-24.51,8.17-36.18,14a68.68,68.68,0,0,1-8.18,3.86,98.27,98.27,0,0,0,40.62,2.78c2.6-.34,5.24-.78,7.89-1.31,28.94-5.78,56-18.36,85.07-23.61,9.63-1.74,19.92-2.44,29.22-5.74a.77.77,0,0,1,.06-.43c3.63-8.51,2.29-20.14,1.28-29a114.41,114.41,0,0,0-3-16.42c-.5-2-1.07-3.87-1.75-5.76s-2.22-4.23-.86-2.82a18.08,18.08,0,0,1-2.62-3.56,112.3,112.3,0,0,1-8.9,13.17C907.84,561.91,895,579.41,875.16,581.75Z"/><path class="cls-3" d="M816.82,601.58c4.2-1.05,5.57-5.88,8.36-9.39-.4-.62-3.31-3.12-3.71-3.61-.84-1.06-2.86-3-2.85-4.44.11-13.16-3.09-26.91-10.86-37.73-6.48-9-16.48-16.29-25.94-21.84a8.69,8.69,0,0,1-1.66-1.36c-14.45-2-28.76-6.5-42.64-10.58-6.83-2-14.1-3.6-20.74-6.11-3.74-1.42-7.25-3.44-10.85-5.21-8-3.94-16.18-7.44-24.48-10.65-1.88-.72-3.88-1.47-6-2.2-9.36-3.28-20.43-6.15-30.25-4.84a1.19,1.19,0,0,1-.7.15.63.63,0,0,1-.19,0,26.4,26.4,0,0,0-11,4.29A70.67,70.67,0,0,0,622,498.1v0a2.81,2.81,0,0,1-1.3,1.8l-.58.26c-3,3.43-5.92,7.06-8.72,10.66-.35,1.08-.87,1.87-1.56,2-2.14,2.77-4.23,5.5-6.32,8.09-1.92,2.38-3.89,4.75-5.82,7.15a97,97,0,0,0-7.46,10.42c-3.4,5.67-8.31,13.52-3.47,19.6,6.66,8.36,17.84,1.33,22.55-5.11,2.27-3.11,4.57-6.18,6.92-9.18a91.89,91.89,0,0,1,10.39-13c4-4.09,8.72-7.31,12.75-11.33a75.36,75.36,0,0,1,7.79-7c3.09-2.34,6.33-5.09,10-6.44,2.89-1.07,6.27-.82,9-2.26,3-1.58,4.06,8.66,1.24,10.13-2.05,1.08-4.36,1.2-6.58,1.71-3.42.75-5.71,2.18-8.53,4.17a67.78,67.78,0,0,0-9.07,7.22c-4.61,4.61-9.73,8.6-14.34,13.16a3,3,0,0,1-.61,1.22c-3.35,3.68-6.6,7.45-9.7,11.36-4.48,6.48-8.19,13.62-9.18,21.32-.6,4.63.5,7.9,5.41,8.9a16.78,16.78,0,0,0,5.83.06c4.25-.7,8-3.59,11.69-5.73a1.1,1.1,0,0,1,.55-.17,50.51,50.51,0,0,1,12.91-21.46c6.78-6.88,15.35-12,23.26-17.5s21.14-14.76,31-9.88c2.88,1.42,1.86,11.66-1.23,10.13-8.07-4-19.6,3.94-26.1,8.21-5,3.29-10,6.81-14.86,10.3-8.64,6.18-20,15.8-21.43,27.08,0,.36-.09.74-.11,1.1-.31,4.19-.11,7.34,3.72,9.82a11.64,11.64,0,0,0,8.6,1.78c3.88-.77,7.81-3,11.32-4.76a1.54,1.54,0,0,1,.51-.15,55.65,55.65,0,0,1,3.7-7.83c5-8.75,15.49-14.55,23.75-19.8A91.57,91.57,0,0,1,700.47,557c3.15-1.36,5.74-.86,9,0a175.74,175.74,0,0,1,22,7.51c2.9,1.15,2.11,11.45-1.23,10.12-7.66-3-15.93-6.71-24.14-7.85-3.51-.49-5.84,1-8.9,2.67-5,2.82-9.91,5.94-14.67,9.2-4.42,3-9.24,6.13-13,10-1.94,2.06-5.65,8.15-6.57,11.79a3.22,3.22,0,0,0,0,2.36c2.6,4.15,12.65,4.7,16.89,4.77,6.38.12,11.86-2.21,17.66-4.58,9.48-3.85,20-7.67,30.24-4.79a46.94,46.94,0,0,1,10.52,4.64c4.83,2.76,9.47,6,14.26,8.56,1.59.84,3.18,1.64,4.76,2.38a99.08,99.08,0,0,0,15.07,5.68,68.68,68.68,0,0,0,8.18-3.86C792.31,609.75,802.81,601.58,816.82,601.58Z"/><path class="cls-2" d="M952.43,520.87A90.17,90.17,0,0,1,959,554.59a67,67,0,0,1-1.66,14.6c-.55,1.15-1.12,2.3-1.72,3.44-3.05,5.85-6.71,10.83-11.71,14.48,0-1.13,0-2.24,0-3.31s0-2.08,0-3.12c4.91-10.83,8.39-21.71,8.45-34a89.5,89.5,0,0,0-6.54-33.5,17.14,17.14,0,0,1,2.86,2.4A19.84,19.84,0,0,1,952.43,520.87Z"/><path class="cls-2" d="M955.61,572.63c.6-1.14,1.17-2.29,1.72-3.44-1.94,8.78-5.41,17-9.56,25.4,0-.36-2.17-2.11-4-4,.1-1.18.14-2.36.17-3.52C948.9,583.46,952.56,578.48,955.61,572.63Z"/><path class="cls-2" d="M950.27,199.4l-.15,0a.28.28,0,0,0,.09,0c6.41-3.15,4.32,3,.15,5.09-15.11,7.46-33.07,11.34-49.83,9.14-4.15-.54,3.32-7.4,6.17-7a76,76,0,0,0,30.36-2.45,88.88,88.88,0,0,0,9.84-3.32c1-.41,2-.84,3-1.29l.08,0Zm.12-.06.1,0Z"/><path class="cls-2" d="M950.39,199.34l.1,0Z"/><path class="cls-2" d="M950.12,199.45l.15,0-.26.11h0Z"/><path class="cls-2" d="M943.91,580.68c0,1,0,2.08,0,3.12s0,2.18,0,3.31c-.67.49-1.36,1-2.07,1.39-.6-.81-.92-1.54-.67-2Q942.59,583.57,943.91,580.68Z"/><path class="cls-2" d="M943.9,587.11c0,1.16-.07,2.34-.17,3.52a18.71,18.71,0,0,1-1.9-2.13C942.54,588.07,943.23,587.6,943.9,587.11Z"/><path class="cls-2" d="M943.73,590.63a26.19,26.19,0,0,1-1.79,8.62c0-.8-6.58-5.4-6.68-7.68.49-.16,1-.35,1.46-.53a31.2,31.2,0,0,0,5.11-2.54A18.71,18.71,0,0,0,943.73,590.63Z"/><path class="cls-2" d="M931,537.13c-1.22-1.39-3-3.54-2.71-4.1.34-.72,2.48,2,2.86,2.4,6.49,7.51,9.09,16.35,10.82,26a122,122,0,0,1,1.91,19.24q-1.32,2.9-2.75,5.79c-.25.49.07,1.22.67,2a31.2,31.2,0,0,1-5.11,2.54c-.48.18-1,.37-1.46.53a.77.77,0,0,1,.06-.43c3.63-8.51,2.29-20.14,1.28-29a114.41,114.41,0,0,0-3-16.42c-.5-2-1.07-3.87-1.75-5.76S929.67,535.72,931,537.13Z"/><path class="cls-2" d="M941.94,599.25h0c-5.77,3.07-12.33,4.55-18.83,5.71-14.64,2.61-29.16,4.79-43.38,9.31-20.66,6.57-42.21,15-64.1,18.33.37-3.1-.6-7.83-2.15-7.57l-.4-2.81c2.6-.34,5.24-.78,7.89-1.31,28.94-5.78,56-18.36,85.07-23.61,9.63-1.74,19.92-2.44,29.22-5.74C935.36,593.85,941.94,598.45,941.94,599.25Z"/><path class="cls-2" d="M936.38,116.23c6.26,10.79,5,24.33.94,35.9q-2.36-1.8-4.75-3.5c2.81-6.83,5.14-15.56,1.85-22.51-2.55-5.42-7.36-9.64-12-13.26-8.26-6.46-17.53-11.63-27-16.2-14.61-7.08-29.79-13-44.77-19.33a172.85,172.85,0,0,0-12-15.86l.13,0c22.36,10.08,46,18.13,67.49,30C917.31,97.59,929.93,105.1,936.38,116.23Z"/><path class="cls-2" d="M937.32,152.13q-.8,2.33-1.73,4.53c-.67,1.55-1.59,1.71-2.43,1a4.37,4.37,0,0,1-.84-1c-1.18-2-.87-5.37,0-7.44l.25-.59Q935,150.32,937.32,152.13Z"/><path class="cls-2" d="M936,346.09c-.54,1-1.06,2.08-1.6,3.12-1,1.9-1.89,1.66-2.55.5-1.09-1.9-1.56-6.3-.72-7.94l1.2-2.32Q934.24,342.74,936,346.09Z"/><path class="cls-1" d="M934.42,126.12c3.29,6.95,1,15.68-1.85,22.51q-1.87-1.37-3.76-2.65c-20-13.71-41.4-25-61.39-38.6a213.49,213.49,0,0,0-16.7-30c15,6.31,30.16,12.25,44.77,19.33,9.42,4.57,18.69,9.74,27,16.2C927.06,116.48,931.87,120.7,934.42,126.12Z"/><path class="cls-2" d="M933.16,157.7l-1.11,1.56c-5.39-3.88-10.95-7.54-16.49-11.19-13.68-9-28.11-16.85-41.94-25.66q-1.23-3.47-2.66-6.9-1.69-4.1-3.54-8.13c20,13.64,41.43,24.89,61.39,38.6q1.89,1.29,3.76,2.65l-.25.59c-.87,2.07-1.18,5.42,0,7.44A4.37,4.37,0,0,0,933.16,157.7Z"/><path class="cls-2" d="M932.35,339.45l-1.2,2.32c-.84,1.64-.37,6,.72,7.94l-1.25.69c-15-26.94-34.45-51.25-58.57-70.79a91.77,91.77,0,0,0-4.68-12.71c-1.17-2.58-2.07-.5-2.56,1.46a4.85,4.85,0,0,0-.71-1.8c-.22-1.57-.49-3.15-.79-4.7a193.71,193.71,0,0,1,15.53,12.78c18.64,16.73,35.23,35,48.46,56.33Q929.91,335.16,932.35,339.45Z"/><path class="cls-2" d="M873.62,122.41c10.25,28.42,11.84,58.74,5.74,88.43-3.17,15.51-7.73,33-17,46.43-.49-1.69-1.51-2.64-3.07-1.5a2.33,2.33,0,0,0-.78,1.08l-2-.81a47,47,0,0,0,9.85-19.89c2.09-5.15,3.69-10.51,5.29-15.78a161.11,161.11,0,0,0,6-29.73c2.73-26.08-2.53-51.08-13.12-74.66l.19-.09a2.85,2.85,0,0,0,.93,1.27C868.28,119,870.94,120.69,873.62,122.41Z"/><path class="cls-4" d="M764.66,24.86a167.55,167.55,0,0,0-27.57-5q7.18,3.29,14.22,6.93A92,92,0,0,1,764.66,24.86Z"/><path class="cls-5" d="M864.53,116c-1.14-2.54-2.33-5.06-3.59-7.55A190,190,0,0,0,836.7,71.12a144.32,144.32,0,0,0-35-30.41c-3.53-2.16-7.11-4.15-10.75-5.94a3.31,3.31,0,0,1-2,.18,86,86,0,0,0-28.55-3.15C774.66,40,788,49.89,799.31,62.45c25.74,29.42,29.75,66.81,30.3,103.6a55,55,0,0,1,22.26,16.31,51.54,51.54,0,0,1,6.73,10.57c4.79,10.06,8.48,23,8.63,34.21a39.48,39.48,0,0,1-.9,9c2.09-5.15,3.69-10.51,5.29-15.78a161.11,161.11,0,0,0,6-29.73C880.38,164.56,875.12,139.56,864.53,116Z"/><path class="cls-4" d="M760.39,31.8A87.41,87.41,0,0,0,741.59,35c-2.28.65-2.51-.95-1.78-2.56,1-2.16,3.93-3.64,6.08-4.26,1.79-.51,3.6-.94,5.42-1.35q-7-3.64-14.22-6.93a214,214,0,0,0-32.55-.59c-30.89,1.72-60.91,9-86.7,26.82A143.17,143.17,0,0,0,586.7,75.62c12.57-5.23,25.47-9.46,39.13-10.93a136.33,136.33,0,0,1,53.28,4.77,57.84,57.84,0,0,1,19-11.8c1.61-.59,3.59-.78,3.27,1.4s-3.62,4.09-5.43,4.76a35.55,35.55,0,0,0-11.82,7.24,143.38,143.38,0,0,1,43.17,23.56c25.8,20.39,47.41,44.53,63.56,73.27a4.39,4.39,0,0,1,.44,1.65,36.44,36.44,0,0,1,7.46-4.34,43.64,43.64,0,0,1,30.82.85c-.55-36.79-4.56-74.18-30.3-103.6C788,49.89,774.66,40,760.39,31.8Z"/><path class="cls-2" d="M872.05,279.61c5,17.5,5.19,36.51,1.6,54.22-.77,3.79-2.27,3.09-3.08,0a31.93,31.93,0,0,1,0-14c2.25-11.11.29-21.89-3.87-32.2-.12-4.33-.51-8.65-1-13C867.84,276.25,870,277.9,872.05,279.61Z"/><path class="cls-2" d="M873.27,503.61c3.5.79,2.7,11.12,0,10.5-15-3.41-32.43-7.21-47.66-2.49A117.58,117.58,0,0,0,806,520.38c-.31.16-.63.32-.93.49l-1.59-2.21c.45,0,.94-.41,1.44-1.41,1.53-3,3-6.15,4.47-9.31,5.53-2.69,11.28-5.47,17.11-7.08a54.4,54.4,0,0,1,12.7-1.84c.73,1.4,1.43,2.81,2.13,4.22.87,1.77,1.69,1.72,2.33.8,1.37.91,4.37-.94,5.23-1.54a37.67,37.67,0,0,1,4.54-2.7C860.18,500.69,866.89,502.17,873.27,503.61Z"/><path class="cls-2" d="M871,115.51q1.42,3.43,2.66,6.9c-2.68-1.72-5.34-3.46-8-5.25a2.85,2.85,0,0,1-.93-1.27c-1.38-3.25,0-10.37,2.17-8.86l.53.35Q869.27,111.42,871,115.51Z"/><path class="cls-2" d="M869.59,489.11c2.07-.36,2.78.77,1.78,2.56a9.68,9.68,0,0,1-6.08,4.26,42.19,42.19,0,0,0-11.89,3.87c-2.45-.31-4.91-.56-7.36-.7l.3-.21A58.53,58.53,0,0,1,869.59,489.11Z"/><path class="cls-2" d="M872.05,279.61c-2.09-1.71-4.21-3.36-6.37-5-.21-1.74-.44-3.48-.68-5.22-.06-.39-.12-.74-.19-1.05.49-2,1.39-4,2.56-1.46A91.77,91.77,0,0,1,872.05,279.61Z"/><path class="cls-2" d="M867.42,107.38l-.53-.35c-2.21-1.51-3.55,5.61-2.17,8.86l-.19.09c-1.14-2.54-2.33-5.06-3.59-7.55A190,190,0,0,0,836.7,71.12l.16-.14a2.06,2.06,0,0,0,.79.66c4.33,2,8.69,3.83,13.07,5.69A213.49,213.49,0,0,1,867.42,107.38Z"/><path class="cls-2" d="M867.23,227.14a39.48,39.48,0,0,1-.9,9,61.71,61.71,0,0,1-4.88,9.84c-4.72,7.59-10.86,13.07-18.41,17.79a162.06,162.06,0,0,1-24.79,12.4A45.6,45.6,0,0,1,797.33,269c-.74-.48-1.47-1-2.18-1.49a7.11,7.11,0,0,0-.76-3.89,3.52,3.52,0,0,0-1.09-1.21l.07-.12a49.61,49.61,0,0,0,8.45,3.73c18.24,6.22,33.74-2.47,45.89-15.6,6.54-7.09,11.26-15.65,12.56-25.31,1.47-10.85-2.09-22.11-5.38-32.32a31.67,31.67,0,0,0-4.35-9.33l1.33-1.07a51.54,51.54,0,0,1,6.73,10.57C863.39,203,867.08,216,867.23,227.14Z"/><path class="cls-2" d="M866.7,287.6a84.35,84.35,0,0,1-1,17,111.33,111.33,0,0,1-9.39,29.29c-9,19-22.67,35.43-38.39,49.34-2.13,1.88-3.72-7.92-1.24-10.13,14.19-12.54,27-27.56,35.39-44.62a103,103,0,0,0,8.83-24.82c.13-.62.24-1.25.34-1.87a60.94,60.94,0,0,0,3.74-18.32c.07.2.15.38.23.57C865.71,285.21,866.23,286.4,866.7,287.6Z"/><path class="cls-2" d="M866.7,287.6c-.47-1.2-1-2.39-1.53-3.57-.08-.19-.16-.37-.23-.57a78.11,78.11,0,0,0-.06-9.43l.8.6C866.19,279,866.58,283.27,866.7,287.6Z"/><path class="cls-2" d="M865,269.41c.24,1.74.47,3.48.68,5.22l-.8-.6c-.08-1.42-.21-2.86-.37-4.29v0a13.77,13.77,0,0,1,.3-1.36C864.88,268.67,864.94,269,865,269.41Z"/><path class="cls-2" d="M864.88,274a78.11,78.11,0,0,1,.06,9.43c-1.12-2.87-1.17-6.71-.89-10Z"/><path class="cls-2" d="M864.88,274l-.83-.61c.09-1.05.2-2.05.33-3a6.3,6.3,0,0,1,.13-.72C864.67,271.17,864.8,272.61,864.88,274Z"/><path class="cls-2" d="M864.81,268.36a13.77,13.77,0,0,0-.3,1.36c-.12-1.05-.26-2.11-.41-3.16A4.85,4.85,0,0,1,864.81,268.36Z"/><path class="cls-2" d="M864.51,269.72v0a6.3,6.3,0,0,0-.13.72c-.13.91-.24,1.91-.33,3-1-.76-2-1.49-3.06-2.23a2.19,2.19,0,0,1-.51-.5c.2-3.22,2.29-6,3.62-4.13C864.25,267.61,864.39,268.67,864.51,269.72Z"/><path class="cls-2" d="M861,271.19c1,.74,2,1.47,3.06,2.23-.28,3.33-.23,7.17.89,10a60.94,60.94,0,0,1-3.74,18.32c1.68-9.9.72-19.66-.66-29.58a8.48,8.48,0,0,1-.06-1.51A2.19,2.19,0,0,0,861,271.19Z"/><path class="cls-2" d="M863.31,261.86c.3,1.55.57,3.13.79,4.7-1.33-1.88-3.42.91-3.62,4.13a5.57,5.57,0,0,1-.84-2.31c-.55-3.53.73-8.62,2.58-7.32Z"/><path class="cls-2" d="M863.31,261.86l-1.09-.8c-1.85-1.3-3.13,3.79-2.58,7.32l-.16,0q-.4-2.69-1-5.47c0-.15-.07-.32-.1-.52.19-.22.39-.44.58-.67,1.2-1.43,2.35-2.93,3.42-4.48l.09.38C862.75,259,863.05,260.45,863.31,261.86Z"/><path class="cls-2" d="M861.45,246a61.71,61.71,0,0,0,4.88-9.84A47,47,0,0,1,856.48,256c-.94,1.15-1.92,2.27-3,3.36-6.88,7.22-14.59,13.75-24.58,16a37,37,0,0,1-10.69.76A162.06,162.06,0,0,0,843,263.78C850.59,259.06,856.73,253.58,861.45,246Z"/><path class="cls-2" d="M860.54,272.2c1.38,9.92,2.34,19.68.66,29.58-.46,1.21-1,2.42-1.51,3.61-7.6,16.37-23.62,28.45-39.5,36.11C806,348.34,790.35,352,775,354.77a320,320,0,0,1-55.26,4.79A345.42,345.42,0,0,1,653,353c-30.54-5.88-58.68-17.83-79.53-41.6-16.72-19.09-23.63-43.16-23.44-67.81.17-.19.36-.35.55-.53,2-1.84,1.87-6.85,1.66-10.23l1.26.08c.73.06,1.31-.5,1.72-1.39,0,.11.11.21.17.32-1.73,15.13-.89,31.53,4.78,45.67,5,12.56,13.46,23.35,23.15,32.65,23.13,22.16,54.22,30.33,85.06,34.93A340,340,0,0,0,724.72,349c47.89-.84,144.85-13.76,134.76-80.59l.16,0a5.57,5.57,0,0,0,.84,2.31A8.48,8.48,0,0,0,860.54,272.2Z"/><path class="cls-2" d="M859.27,255.77c1.56-1.14,2.58-.19,3.07,1.5-1.07,1.55-2.22,3.05-3.42,4.48-.19.23-.39.45-.58.67a11.84,11.84,0,0,1,.15-5.57A2.33,2.33,0,0,1,859.27,255.77Z"/><path class="cls-3" d="M843.66,216.49c7.15-12.27,2.66-28.13-4.84-41.28a45.83,45.83,0,0,0-6.08-2c-9.09-2.29-18.39-3.1-27.35.11-18.29,7.92-28.38,31.2-29.14,50.13-.35,8.46.55,17,4,24.86,2.73,6.23,7.48,10.68,13.15,13.91a47.89,47.89,0,0,0,5.74,2.72C818.43,254.5,833.29,235.5,843.66,216.49Z"/><path class="cls-1" d="M854.89,192.76a31.67,31.67,0,0,0-4.35-9.33,20,20,0,0,0-6.06-5.43,39.64,39.64,0,0,0-5.66-2.79c7.5,13.15,12,29,4.84,41.28-10.37,19-25.23,38-44.55,48.49.89.36,1.8.7,2.71,1,18.24,6.22,33.74-2.47,45.89-15.6,6.54-7.09,11.26-15.65,12.56-25.31C861.74,214.23,858.18,203,854.89,192.76Z"/><path class="cls-1" d="M859.48,268.41q-.4-2.69-1-5.47c0-.15-.07-.32-.1-.52-5.84,6.65-13.52,11.5-21.28,15.63C829,296,814.31,312,797,319.18c-64.19,24.51-137.7,23.34-198.39-11.67-21.1-11.11-39-30.68-43.72-54.68a81.17,81.17,0,0,0,5.33,24.64c5,12.56,13.46,23.35,23.15,32.65,23.13,22.16,54.22,30.33,85.06,34.93A340,340,0,0,0,724.72,349C772.61,348.16,869.57,335.24,859.48,268.41Z"/><path class="cls-3" d="M598.59,307.51c60.69,35,134.2,36.18,198.39,11.67,17.33-7.14,32-23.18,40.08-41.13l-.45.25a251.68,251.68,0,0,1-62.14,22.9A233.71,233.71,0,0,1,723.79,307c-34,.08-68-7.24-98.48-22.37a320,320,0,0,1-47.64-28.92c-7.12-5.26-14.54-11.15-19.35-18.72l-.13-.18q-1.5-2.47-2.77-5a116,116,0,0,0-.55,21C559.57,276.83,577.49,296.4,598.59,307.51Z"/><path class="cls-2" d="M856.48,256l2,.81a11.84,11.84,0,0,0-.15,5.57c-6,6.78-13.82,11.69-21.73,15.88a251.68,251.68,0,0,1-62.14,22.9l-.17-.74a1.55,1.55,0,0,0,1-.62c3.34-3.82,6.63-7.76,9.61-11.91q7.2-2.06,14.26-4.56c6.38-2.27,12.81-4.6,19.13-7.19a37,37,0,0,0,10.69-.76c10-2.27,17.7-8.8,24.58-16C854.56,258.31,855.54,257.19,856.48,256Z"/><path class="cls-2" d="M851.87,182.36l-1.33,1.07a20,20,0,0,0-6.06-5.43,43.27,43.27,0,0,0-11.74-4.75c-9.09-2.29-18.39-3.1-27.35.11-.06,0-5-8.85-6.6-8.16C818.17,158.24,839.33,167,851.87,182.36Z"/><path class="cls-2" d="M853.4,499.8a37.67,37.67,0,0,0-4.54,2.7c-.86.6-3.86,2.45-5.23,1.54a9.49,9.49,0,0,0,1.22-4c.43-.39.86-.73,1.19-1C848.49,499.24,851,499.49,853.4,499.8Z"/><path class="cls-2" d="M845,499.06l1.09,0c-.33.26-.76.6-1.19,1C844.9,499.74,844.93,499.39,845,499.06Z"/><path class="cls-2" d="M844.57,495.81a7.17,7.17,0,0,1,.38,3.25c-1.94-.1-3.86-.11-5.78,0q-8.13-16-17.71-31c.22-1.93.36-3.88.44-5.82,0-1-.17-3.55-1.15-4.68l1.49-1A383,383,0,0,1,844.57,495.81Z"/><path class="cls-2" d="M845,499.06c0,.33-.05.68-.1,1-1.16,1.08-2.3,2.54-1.56,3.61a1.57,1.57,0,0,0,.34.34c-.64.92-1.46,1-2.33-.8-.7-1.41-1.4-2.82-2.13-4.22C841.09,499,843,499,845,499.06Z"/><path class="cls-2" d="M844.85,500.09a9.49,9.49,0,0,1-1.22,4,1.57,1.57,0,0,1-.34-.34C842.55,502.63,843.69,501.17,844.85,500.09Z"/><path class="cls-2" d="M850.72,77.33c-4.38-1.86-8.74-3.74-13.07-5.69a2.06,2.06,0,0,1-.79-.66c-1.86-2.59-.88-10.5,1.89-9.51A172.85,172.85,0,0,1,850.72,77.33Z"/><path class="cls-2" d="M838.75,61.47c-2.77-1-3.75,6.92-1.89,9.51l-.16.14a144.32,144.32,0,0,0-35-30.41c-3.53-2.16-7.11-4.15-10.75-5.94,3.22-1.13,7.44-5.52,5.93-6.47l.46-.84a141.29,141.29,0,0,1,25.43,17.71A152.18,152.18,0,0,1,838.75,61.47Z"/><path class="cls-1" d="M839.17,499a54.4,54.4,0,0,0-12.7,1.84c-5.83,1.61-11.58,4.39-17.11,7.08,5.79-12.68,10.59-26.24,12.1-39.94Q831.06,483,839.17,499Z"/><path class="cls-2" d="M787,524c21.76,16.31,38.5,40.5,38.28,68.31,0-.34-3.33-3.19-3.76-3.72-.84-1.06-2.86-3-2.85-4.44.11-13.16-3.09-26.91-10.86-37.73-6.48-9-16.48-16.29-25.94-21.84a8.39,8.39,0,0,1-1.66-1.36Q783.57,523.72,787,524Z"/><path class="cls-2" d="M822.24,456.53l-1.49,1a1.5,1.5,0,0,0-1.16-.57c-1.79,0-2.18,3.13-2.27,4.71a326,326,0,0,0-36.24-45.1c-2.1-2.17-.67-12.2,2.34-9.07A328.91,328.91,0,0,1,822.24,456.53Z"/><path class="cls-2" d="M820.75,457.5c1,1.13,1.19,3.65,1.15,4.68-.08,1.94-.22,3.89-.44,5.82-1.35-2.13-2.74-4.26-4.14-6.36.09-1.58.48-4.71,2.27-4.71A1.5,1.5,0,0,1,820.75,457.5Z"/><path class="cls-2" d="M817.32,461.64c1.4,2.1,2.79,4.23,4.14,6.36-1.51,13.7-6.31,27.26-12.1,39.94l-2.85,1.37c-1.81.87-3.48,2-5.3,2.79a5.69,5.69,0,0,1,.41-2.29c3.32-6.59,6-13.61,8.7-20.46,3.56-8.93,6.59-17.41,7-27.17A3.91,3.91,0,0,1,817.32,461.64Z"/><path class="cls-2" d="M813.48,625c1.55-.26,2.52,4.47,2.15,7.57-3.93.59-7.86,1-11.8,1.23a41.52,41.52,0,0,0,8.76-8.15A1.6,1.6,0,0,1,813.48,625Z"/><path class="cls-2" d="M815.63,632.61a4.69,4.69,0,0,1-.7,2.15c-4.25,5.5-10.36,9.8-16.24,13.37-4.38,2.67-9.36,6-14.34,7.37-6.41,1.8-13.34-.34-19.73-1.36a128.1,128.1,0,0,1-24-5.67c2.11-2.82,4.2-5.66,6.24-8.5a155.18,155.18,0,0,0,18.6,3.8c5.73.9,12.09,2.89,17.88,1.51,4.82-1.17,10-4.72,14.17-7.27,2.11-1.29,4.27-2.67,6.36-4.17C807.77,633.63,811.7,633.2,815.63,632.61Z"/><path class="cls-2" d="M813.08,622.23l.4,2.81a1.6,1.6,0,0,0-.89.65,41.52,41.52,0,0,1-8.76,8.15c-3.13.17-6.28.22-9.42.12-12.82-.45-25.24-4-36.86-9.4a2.49,2.49,0,0,1,.19-.3,9,9,0,0,0,.83-7.19,5.06,5.06,0,0,0-1.57-2.46l.39-.84A97.23,97.23,0,0,0,813.08,622.23Z"/><path class="cls-2" d="M806.51,509.31l2.85-1.37c-1.44,3.16-2.94,6.26-4.47,9.31-.5,1-1,1.41-1.44,1.41-1.33,0-2.29-3.78-2.24-6.56C803,511.29,804.7,510.18,806.51,509.31Z"/><path class="cls-2" d="M805.39,173.36c-1.8.64-6.34-8.27-6.6-8.16C800.36,164.51,805.33,173.38,805.39,173.36Z"/><path class="cls-2" d="M798.79,165.2c.26-.11,4.8,8.8,6.6,8.16-18.29,7.92-28.38,31.2-29.14,50.13-.35,8.46.55,17,4,24.86,2.73,6.23,7.48,10.68,13.15,13.91l-.07.12c-.77-.46-1.61-.23-2.18,1.21-.08.19-.15.39-.25.58-13.17-11.23-21.3-28.08-21.28-45.37,0-15.38,5.64-33.65,17.06-45.18.33.56.65,1.14,1,1.71,2.34,4.19,4.12-2.15,3.71-5.79A36.44,36.44,0,0,1,798.79,165.2Z"/><path class="cls-2" d="M803.45,518.66l1.59,2.21c-5.81,2.91-11.33,3.7-18,3.13H787a123,123,0,0,0-11.27-7.49c-.56-.34,1.58,3,1.76,3.29a32.28,32.28,0,0,0,2.72,3.42c-14.45-2-28.76-6.5-42.64-10.58-6.83-2-14.1-3.6-20.74-6.11-3.74-1.42-7.25-3.44-10.85-5.21-8-3.94-16.18-7.44-24.48-10.65-1.88-.72-3.88-1.47-6-2.2L676,487c.67.2,1.39-.4,2-2.33s1.2-3.56,1.82-5.34c11.37,4.06,22.33,9.43,33.07,14.77,6.77,3.36,14.31,4.94,21.52,7.11,16.87,5.09,34.42,10.62,52,12.25,4.35.39,9.08.63,13.28-.77a13.48,13.48,0,0,0,1.46-.59C801.16,514.88,802.12,518.66,803.45,518.66Z"/><path class="cls-4" d="M818.25,276.18c-6.32,2.59-12.75,4.92-19.13,7.19q-7.07,2.49-14.26,4.56A77.77,77.77,0,0,0,794.39,271a11.74,11.74,0,0,0,.76-3.54c.71.53,1.44,1,2.18,1.49A45.6,45.6,0,0,0,818.25,276.18Z"/><path class="cls-1" d="M794.41,634c3.14.1,6.29,0,9.42-.12-2.09,1.5-4.25,2.88-6.36,4.17-4.2,2.55-9.35,6.1-14.17,7.27-5.79,1.38-12.15-.61-17.88-1.51a155.18,155.18,0,0,1-18.6-3.8q5.52-7.62,10.73-15.41C769.17,629.92,781.59,633.51,794.41,634Z"/><path class="cls-2" d="M797.3,27.46l-.46.84a1.09,1.09,0,0,0-.27-.11,92.35,92.35,0,0,0-31.91-3.33c-19.34-5.26-39.66-6.7-60.12-5.57-30.89,1.72-60.91,9-86.7,26.82A143.17,143.17,0,0,0,586.7,75.62q-5.26,2.19-10.45,4.57a2.09,2.09,0,0,0-.93.91l-.73-.47C588,59.17,606.37,40.82,628.67,28.52,655.2,13.88,685.1,9,715.05,8.36,743.87,7.74,772.38,13.82,797.3,27.46Z"/><path class="cls-2" d="M796.84,28.3c1.51.95-2.71,5.34-5.93,6.47a142.55,142.55,0,0,0-26.25-9.91,92.35,92.35,0,0,1,31.91,3.33A1.09,1.09,0,0,1,796.84,28.3Z"/><path class="cls-2" d="M794.39,263.59a7.11,7.11,0,0,1,.76,3.89,48.83,48.83,0,0,1-4.28-3.31c.1-.19.17-.39.25-.58.57-1.44,1.41-1.67,2.18-1.21A3.52,3.52,0,0,1,794.39,263.59Z"/><path class="cls-2" d="M795.15,267.48a11.74,11.74,0,0,1-.76,3.54,77.77,77.77,0,0,1-9.53,16.91q-6,1.71-12.12,3.09a2.49,2.49,0,0,1,.17-.24c7.05-8.07,13.9-16.6,18-26.61A48.83,48.83,0,0,0,795.15,267.48Z"/><path class="cls-2" d="M791.33,169.54c.41,3.64-1.37,10-3.71,5.79-.32-.57-.64-1.15-1-1.71A41.2,41.2,0,0,1,791.33,169.54Z"/><path class="cls-2" d="M790.89,167.89a4.39,4.39,0,0,1,.44,1.65,41.2,41.2,0,0,0-4.68,4.08,225.18,225.18,0,0,0-35.53-46.78c-21.42-21.54-46.46-40.61-76.21-48.28l.4-1.47c2.08.45,5.12-2.1,6.35-3.46a35.76,35.76,0,0,1,2.5-2.57,143.38,143.38,0,0,1,43.17,23.56C753.13,115,774.74,139.15,790.89,167.89Z"/><path class="cls-2" d="M790.91,34.77a3.31,3.31,0,0,1-2,.18,86,86,0,0,0-47.35,0c-2.28.65-2.51-.95-1.78-2.56,1-2.16,3.93-3.64,6.08-4.26a92.35,92.35,0,0,1,18.77-3.3A142.55,142.55,0,0,1,790.91,34.77Z"/><path class="cls-6" d="M585.76,97.46c-22.18,35-29.18,79.35-19.84,120.19,3.5-43.17,16.34-98,65.35-107.36,42.59-7.64,81.1,9.24,116.47,29.62C704.62,103.7,641.94,79.48,585.76,97.46Z"/><path class="cls-7" d="M769.59,218.8c0-15.38,5.64-33.65,17.06-45.18a225.18,225.18,0,0,0-35.53-46.78c-21.42-21.54-46.46-40.61-76.21-48.28-1.08-.29-2.18-.56-3.28-.8a139.74,139.74,0,0,0-50.26-2c-15.4,2.16-29.82,8.19-43.89,14.57a1.2,1.2,0,0,1-1,0,161.29,161.29,0,0,0-18.14,41.93c-3.77,13.85-5.4,28-5.94,42.33-.7,18.31-1.67,36.86,8.17,53.14a40.51,40.51,0,0,0,4.54,5.89c9.85,10.79,23,18.53,35.33,26.1,14.9,9.17,30.2,17.57,46.66,23.63,30.43,11.2,63.59,15.05,95.83,12.3A219.87,219.87,0,0,0,772.74,291a2.49,2.49,0,0,1,.17-.24c7.05-8.07,13.9-16.6,18-26.61C777.7,252.94,769.57,236.09,769.59,218.8Zm-17-74.66q-2.4-2.14-4.89-4.23c-35.37-20.38-73.88-37.26-116.47-29.62-49,9.34-61.85,64.19-65.35,107.36-9.34-40.84,0-84,22.17-119,56.19-18,116.53,5.08,159.65,41.29q3.63,2.09,7.23,4.23-3.6-2.14-7.23-4.23Q750.23,142,752.63,144.14Z"/><path class="cls-2" d="M787,524q-3.39-.27-6.79-.78a32.28,32.28,0,0,1-2.72-3.42c-.18-.24-2.32-3.63-1.76-3.29A123,123,0,0,1,787,524Z"/><path class="cls-2" d="M784.86,287.93c-3,4.15-6.27,8.09-9.61,11.91a1.55,1.55,0,0,1-1,.62c-2.1.32-3-7.13-1.56-9.44Q778.84,289.64,784.86,287.93Z"/><path class="cls-2" d="M774.3,300.46l.17.74A233.71,233.71,0,0,1,723.79,307c-34,.08-68-7.24-98.48-22.37a320,320,0,0,1-47.64-28.92c-7.12-5.26-14.54-11.15-19.35-18.72,1.25,1.75,2.69-1,3-2.07a9.32,9.32,0,0,0-.83-7.18,40.51,40.51,0,0,0,4.54,5.89c9.85,10.79,23,18.53,35.33,26.1,14.9,9.17,30.2,17.57,46.66,23.63,30.43,11.2,63.59,15.05,95.83,12.3A219.87,219.87,0,0,0,772.74,291C771.26,293.33,772.2,300.78,774.3,300.46Z"/><path class="cls-2" d="M758.57,617.07a9,9,0,0,1-.83,7.19,2.49,2.49,0,0,0-.19.3l-.26-.11c-2-1-4-2-6-3.18q2.12-3,4.14-6.08c.55-.83,1.1-.89,1.59-.58A5.06,5.06,0,0,1,758.57,617.07Z"/><path class="cls-2" d="M757.29,624.45l.26.11q-5.22,7.8-10.73,15.41c-2-.59-4-1.23-6-2a1.53,1.53,0,0,0-1.85.62l-.16-.11c4.24-5.68,8.4-11.41,12.42-17.23C753.25,622.43,755.25,623.5,757.29,624.45Z"/><path class="cls-2" d="M757.39,613.77l-.39.84c-.49-.31-1-.25-1.59.58q-2,3.06-4.14,6.08c-4.36-2.52-8.59-5.37-13-7.84,1.39-2.24,1.05-7.82-.78-9.11l.85-1.49c4.83,2.76,9.47,6,14.26,8.56C754.22,612.23,755.81,613,757.39,613.77Z"/><path class="cls-2" d="M746.82,640c-2,2.84-4.13,5.68-6.24,8.5l-1-.35c-2.25-.85-2.31-7.3-.61-9.51a1.53,1.53,0,0,1,1.85-.62C742.83,638.74,744.81,639.38,746.82,640Z"/><path class="cls-1" d="M443.39,846.65c3.34,28.06-6.34,54.2-23.32,73.83a118.14,118.14,0,0,0,42.63-7.26c.32-.11.72.07,1.18.46a37.61,37.61,0,0,0,6.91-12.1c5.12-15,4.92-32.14,5.83-47.76,0-.44.08-1.54.1-1.72,0-.87.08-1.73.11-2.59.1-2.27.17-4.53.21-6.8q.21-10.86-.18-21.75a440.18,440.18,0,0,0-5.72-56.49c-.06-.15-.12-.3-.17-.47a122.48,122.48,0,0,1-17.69-1.9c-5-.9-10-1.76-14.93-2.9C429.66,788,438.79,816.74,443.39,846.65Z"/><path class="cls-3" d="M648.77,679.77c12.84-5.83,23.34-15.17,33.85-24.51,13.18-12.09,29.47-21.07,40.1-35.73-24.31,8.46-49,15.65-74.43,20.09-27.19,4.75-54.7,6.76-82.13,9.63-.37,1.52-1,2.74-2,3.19-2.18,1-6.29-1.26-8.3-2-6.18-2.13-12.3-4.49-18.39-6.85-21-8.12-41.81-16.65-62.61-25.24q-11.69-4.83-23.37-9.7a5,5,0,0,1-1.22,3.25,462.38,462.38,0,0,1-41.6,31.72c-7.64,5.27-15.38,10.45-23.16,15.68a351.54,351.54,0,0,0-30.72,23.51c-5.38,4.55-11.25,10.2-14.24,16A47.77,47.77,0,0,0,336.07,713a10.24,10.24,0,0,1,2.54,3.93c2.56,10.92,7.23,21.93,15.44,29.82,8.81,8.48,20.09,14.15,31.86,17.16,1.6.41,3.49,3.57,4.38,4.76.19.24,2.53,3.5,1.76,3.3-25.59-6.52-47.27-27.47-56.79-52.22a215.15,215.15,0,0,0-.21,21.92c.48,24.5,2.42,49.26,7.33,73.29,4.36,21.36,8.61,41.83,8.07,63.83,0,.31,0,.79-.09,1.34h0a12,12,0,0,1,0,4.15c.29.44.58.9.85,1.35,14.37,24.19,41.47,34.43,68.85,34.85,17-19.63,26.66-45.77,23.32-73.83-4.6-29.91-13.73-58.69-5-87.45a83,83,0,0,1-14.79-4.74c-1.73-.77-3.31-3.34-4.38-4.78-.17-.22-2.42-3.59-1.76-3.29,8.71,3.85,18,5.58,27.33,7.22,2.49-1.37,5.16-2.73,6.81-3.82C514.57,717.11,583.42,706.61,648.77,679.77Z"/><path class="cls-1" d="M738.3,613.43a1.91,1.91,0,0,1-.94.85q-7.3,2.7-14.64,5.25c-10.63,14.66-26.92,23.64-40.1,35.73-10.51,9.34-21,18.68-33.85,24.51-65.35,26.84-134.2,37.34-197.21,70-1.65,1.09-4.32,2.45-6.81,3.82l4,.71a118.3,118.3,0,0,0,23.43,1.62,1.5,1.5,0,0,1,.8-.27c28.91-1.42,58.43-1.88,87-7.09,27.33-5,53.49-14.79,78.92-25.75,22.11-9.52,46.62-18,62.68-36.79,8.9-10.42,17.43-21.47,25.76-32.36,3.86-5,7.72-10.08,11.51-15.18,4.24-5.68,8.4-11.41,12.42-17.23C746.91,618.75,742.68,615.9,738.3,613.43Z"/><path class="cls-2" d="M739.62,648.12l1,.35c-5.12,6.89-10.38,13.68-15.65,20.41-4.12,5.25-8.68,10.18-12.73,15.48-4.57,6-8.91,11.92-14.34,17.16-8.63,8.3-18.66,13.88-29.49,18.81-12.64,5.78-25.3,11.51-38.15,16.82-25.62,10.58-52.2,19.64-79.75,23.46-24.53,3.39-49.47,4.22-74.2,5.4-.08-.64-.18-1.27-.29-1.9,3.18,0,6.38-.1,9.66-.27a49.21,49.21,0,0,0-2.86-4.45c-.65-.81-2.5-3.78-3.74-3.71-2.31.13-4.58.21-6.83.26a1.5,1.5,0,0,1,.8-.27c28.91-1.42,58.43-1.88,87-7.09,27.33-5,53.49-14.79,78.92-25.75,22.11-9.52,46.62-18,62.68-36.79,8.9-10.42,17.43-21.47,25.76-32.36,3.86-5,7.72-10.08,11.51-15.18l.16.11C737.31,640.82,737.37,647.27,739.62,648.12Z"/><path class="cls-2" d="M738.37,602.83l-.85,1.49a1.43,1.43,0,0,0-1.4-.17c-3.62,1.34-7.23,2.65-10.86,3.93-11.72-2.21-23,4.25-33.89,8-8.67,3-21.89,3.32-29.35-3a10.65,10.65,0,0,1-2.76-3.58c1.57-1,2-4.59,1.49-7.22l.4-.21a3,3,0,0,0,1.28-1.82l.63.16a3.22,3.22,0,0,0,0,2.36c2.6,4.15,12.65,4.7,16.89,4.77,6.38.12,11.86-2.21,17.66-4.58,9.48-3.85,20-7.67,30.24-4.79A46.94,46.94,0,0,1,738.37,602.83Z"/><path class="cls-2" d="M737.52,604.32c1.83,1.29,2.17,6.87.78,9.11a55.8,55.8,0,0,0-9.62-4.46,26.13,26.13,0,0,0-3.42-.89c3.63-1.28,7.24-2.59,10.86-3.93A1.43,1.43,0,0,1,737.52,604.32Z"/><path class="cls-2" d="M738.3,613.43a1.91,1.91,0,0,1-.94.85c-29,10.71-58.56,20-89.07,25.34-27.19,4.75-54.7,6.76-82.13,9.64.77-3.16.49-7.63.53-9.36,0-.4,0-.8,0-1.19,26.54-2.78,53.17-4.74,79.51-9.24,27-4.59,53.25-12.27,79-21.39a26.13,26.13,0,0,1,3.42.89A55.8,55.8,0,0,1,738.3,613.43Z"/><path class="cls-2" d="M731.52,564.48c2.9,1.15,2.11,11.45-1.23,10.12-7.66-3-15.93-6.71-24.14-7.85-3.51-.49-5.84,1-8.9,2.67-5,2.82-9.91,5.94-14.67,9.2-4.42,3-9.24,6.13-13,10-1.94,2.06-5.65,8.15-6.57,11.79l-.63-.16c1-3.08.1-8.66-2-8.46a55.65,55.65,0,0,1,3.7-7.83c5-8.75,15.49-14.55,23.75-19.8A91.57,91.57,0,0,1,700.47,557c3.15-1.36,5.74-.86,9,0A175.74,175.74,0,0,1,731.52,564.48Z"/><path class="cls-8" d="M671.82,617.49a21.58,21.58,0,0,1-9.8-4.39,10.65,10.65,0,0,1-2.76-3.58,1.63,1.63,0,0,1-.71.28L566.6,622.6c.07,3.21.13,6.42.15,9.63C602.4,632.84,637.43,626.75,671.82,617.49Z"/><path class="cls-9" d="M691.37,616.07a39.56,39.56,0,0,1-19.55,1.42c-34.39,9.26-69.42,15.35-105.07,14.74q0,3.24,0,6.48c26.54-2.78,53.17-4.74,79.51-9.24,27-4.59,53.25-12.27,79-21.39C713.54,605.87,702.23,612.33,691.37,616.07Z"/><path class="cls-2" d="M698.14,57.66c1.61-.59,3.59-.78,3.27,1.4s-3.62,4.09-5.43,4.76a35.55,35.55,0,0,0-11.82,7.24q-2.5-.86-5-1.6A57.84,57.84,0,0,1,698.14,57.66Z"/><path class="cls-2" d="M700,528.3c2.88,1.42,1.86,11.66-1.23,10.13-8.07-4-19.6,3.94-26.1,8.21-5,3.29-10,6.81-14.86,10.3-8.64,6.18-20,15.8-21.43,27.08l-1.34-.16c.29-3.07-.62-6.86-2.24-6.72a50.51,50.51,0,0,1,12.91-21.46c6.78-6.88,15.35-12,23.26-17.5S690.12,523.42,700,528.3Z"/><path class="cls-2" d="M681,404.31c8.83,8.74,14.18,21.39,12.46,33.89a68.4,68.4,0,0,1-4,14.34l-1-.37a1.21,1.21,0,0,0,0-.18,9.1,9.1,0,0,0-.82-7.18c-.25-.36-.49-.72-.75-1.07a36.05,36.05,0,0,0,2.19-9.38c.8-11-9.37-21.34-18.07-26.71-11.85-7.32-25.4-11.91-37.85-18.06-13.93-6.88-27.76-14-42-20.13-7.47-3.22-15.66-7.55-23.85-8.4s-15.24,3.11-19.47,9.9c-.45-.14-.92-.26-1.38-.39a1,1,0,0,0-.78.14,25.58,25.58,0,0,0-2.08-5.47l.06-.13c4.09-7.72,10.45-14,19.63-14.66,10.18-.67,21.07,5.4,30.06,9.3,16.19,7,31.71,15.37,47.65,22.9C654.48,389,670.27,393.63,681,404.31Z"/><path class="cls-2" d="M688.5,452.17l1,.37c-.71,2-1.46,3.9-2.17,5.83-2.55,7-5.06,13.95-7.47,21-1.72-.61-3.45-1.2-5.2-1.75q3.83-11.35,7.92-22.61c.4-1.08.82-2.16,1.26-3.26.53.71,1,1.44,1.54,2.17C686.71,455.81,688,453.45,688.5,452.17Z"/><path class="cls-1" d="M671.1,407.65c8.7,5.37,18.87,15.74,18.07,26.71a36.05,36.05,0,0,1-2.19,9.38c-18.42-26.1-49.43-35.81-77.14-49.29A356.61,356.61,0,0,0,547.9,371c4.23-6.79,11.15-10.76,19.47-9.9s16.38,5.18,23.85,8.4c14.27,6.17,28.1,13.25,42,20.13C645.7,395.74,659.25,400.33,671.1,407.65Z"/><path class="cls-2" d="M687.73,444.81a9.1,9.1,0,0,1,.82,7.18,1.21,1.21,0,0,1,0,.18c-.46,1.28-1.79,3.64-3.11,1.71-.5-.73-1-1.46-1.54-2.17,1-2.59,2.17-5.26,3.13-8C687.24,444.09,687.48,444.45,687.73,444.81Z"/><path class="cls-2" d="M687,443.74c-1,2.71-2.09,5.38-3.13,8-18.16-24.73-48.51-34.12-75.23-47.13a350.53,350.53,0,0,0-60.71-23.12c-.09-.56-.21-1.13-.31-1.69-.38-2-.74-4.17-1.2-6.34a4.14,4.14,0,0,0,.59-.89c.29-.54.6-1.07.91-1.58a356.61,356.61,0,0,1,61.94,23.49C637.55,407.93,668.56,417.64,687,443.74Z"/><path class="cls-1" d="M558.19,473.36c0,.6.1,1.2.14,1.8a166.83,166.83,0,0,0,26,16.27c7.89,4,16.33,6.79,24.34,10.5.44-.53.88-1.05,1.34-1.58a28.63,28.63,0,0,1-14-8.81,29.22,29.22,0,0,1-6.23-16.05C579.23,477,568.66,476.85,558.19,473.36Z"/><path class="cls-1" d="M653,425.69c3.15,14.51-3.76,30.36-15.86,35.86-4.25,1.42-8.55,2.94-12.9,4.46.92.31,1.84.63,2.77.93,5.77,1.88,11.49,5.8,17.58,6.33l.1,0c8-1.07,16.66.59,24.3,2.62,1.93.52,3.83,1.08,5.72,1.67q3.83-11.35,7.92-22.61c.4-1.08.82-2.16,1.26-3.26C675.59,440.46,664.79,432.38,653,425.69Z"/><path class="cls-3" d="M653,425.69c-14.15-8-29.78-14-44.34-21.11a350.53,350.53,0,0,0-60.71-23.12c4.12,22,6.08,44.43,8.11,66.68q1.17,12.6,2.17,25.22c10.47,3.49,21,3.68,31.56,2.13a22.9,22.9,0,0,1,1.42-9.8c3.78-9.59,11.08-8.94,19-5.24a141.32,141.32,0,0,0,14,5.56c4.35-1.52,8.65-3,12.9-4.46C649.2,456.05,656.11,440.2,653,425.69Z"/><path class="cls-2" d="M684.16,71.06a35.76,35.76,0,0,0-2.5,2.57c-1.23,1.36-4.27,3.91-6.35,3.46s-1.31-2.27-.19-3.54c1.28-1.44,2.61-2.81,4-4.09Q681.66,70.21,684.16,71.06Z"/><path class="cls-2" d="M679.87,479.33c-.62,1.78-1.22,3.55-1.82,5.34s-1.37,2.53-2,2.33c-1.53-.47-2.74-5.29-2-7.63.2-.6.4-1.19.61-1.79C676.42,478.13,678.15,478.72,679.87,479.33Z"/><path class="cls-2" d="M679.11,69.46c-1.38,1.28-2.71,2.65-4,4.09-1.12,1.27-1.92,3.1.19,3.54l-.4,1.47c-1.08-.29-2.18-.56-3.28-.8a139.74,139.74,0,0,0-50.26-2c-15.4,2.16-29.82,8.19-43.89,14.57a1.2,1.2,0,0,1-1,0A157.67,157.67,0,0,1,586.7,75.62c12.57-5.23,25.47-9.46,39.13-10.93A136.33,136.33,0,0,1,679.11,69.46Z"/><path class="cls-2" d="M676,487l-.51,1.46c-9.36-3.28-20.43-6.15-30.25-4.84,2.36-1.23,2.41-9.88-.6-10.33,8-1.07,16.66.59,24.3,2.62,1.93.52,3.83,1.08,5.72,1.67-.21.6-.41,1.19-.61,1.79C673.27,481.71,674.48,486.53,676,487Z"/><path class="cls-2" d="M666.1,503.79c3-1.58,4.06,8.66,1.24,10.13-2.05,1.08-4.36,1.2-6.58,1.71-3.42.75-5.71,2.18-8.53,4.17a67.78,67.78,0,0,0-9.07,7.22c-4.61,4.61-9.73,8.6-14.34,13.16,1-3.39-.41-10.62-2.94-7.84-3.4,3.72-6.6,7.56-9.68,11.5a91.89,91.89,0,0,1,10.39-13c4-4.09,8.72-7.31,12.75-11.33a75.36,75.36,0,0,1,7.79-7c3.09-2.34,6.33-5.09,10-6.44C660,505,663.38,505.23,666.1,503.79Z"/><path class="cls-2" d="M660.43,591.81c2.1-.2,3,5.38,2,8.46a3,3,0,0,1-1.28,1.82l-.4.21c-.33-1.8-1.09-3.15-2.2-3l-.2,0A39.08,39.08,0,0,1,660.43,591.81Z"/><path class="cls-2" d="M660.75,602.3c.5,2.63.08,6.2-1.49,7.22A14.15,14.15,0,0,1,658,603.7C659,603.22,659.87,602.74,660.75,602.3Z"/><path class="cls-2" d="M659.92,592a1.54,1.54,0,0,1,.51-.15,39.08,39.08,0,0,0-2.08,7.51l-22.61,3.15a16.21,16.21,0,0,1-3.61-7.2,37.67,37.67,0,0,1-.79-6.53c.72-.45,1.45-.88,2.16-1.3.91-.52,1.39-2,1.55-3.58l1.34.16c0,.36-.09.74-.11,1.1-.31,4.19-.11,7.34,3.72,9.82a11.64,11.64,0,0,0,8.6,1.78C652.48,596,656.41,593.74,659.92,592Z"/><path class="cls-2" d="M660.75,602.3c-.88.44-1.79.92-2.73,1.4a23.4,23.4,0,0,1,.33-4.38l.2,0C659.66,599.15,660.42,600.5,660.75,602.3Z"/><path class="cls-2" d="M659.26,609.52a1.63,1.63,0,0,1-.71.28L566.6,622.6l-.18-6.39c0-1.36-.08-2.71-.13-4.06l.07,0,69.38-9.66a13.86,13.86,0,0,0,11.14,5c3.73-.18,7.61-2,11.14-3.77A14.15,14.15,0,0,0,659.26,609.52Z"/><path class="cls-2" d="M635.74,602.47l22.61-3.15a23.4,23.4,0,0,0-.33,4.38c-3.53,1.79-7.41,3.59-11.14,3.77A13.86,13.86,0,0,1,635.74,602.47Z"/><path class="cls-2" d="M644.65,473.29c3,.45,3,9.1.6,10.33-.3,0-.6.08-.89.12-4.67-.43-9.3-2.42-13.86-4.42a28.69,28.69,0,0,1,11.85-5.65C643.11,473.52,643.88,473.39,644.65,473.29Z"/><path class="cls-2" d="M645.25,483.62a1.19,1.19,0,0,1-.7.15.63.63,0,0,1-.19,0C644.65,483.7,645,483.65,645.25,483.62Z"/><path class="cls-2" d="M644.55,473.27l.1,0c-.77.1-1.54.23-2.3.38a28.69,28.69,0,0,0-11.85,5.65,85.36,85.36,0,0,0-8.32-3.29,97.32,97.32,0,0,1-12.57-5.16c-2.52-1.18-5.34-2.87-8.19-2.94-10.31-.22-6.57,10.88-2.38,15.39a21.89,21.89,0,0,0,9.87,5.92c2.79.77,7.71,1.88,10.51.55l.07,0c-3.24,3.4-6.41,7-9.49,10.58a28.63,28.63,0,0,1-14-8.81c-5.57-6.92-8.13-17.41-4.81-25.85,3.78-9.59,11.08-8.94,19-5.24A145.46,145.46,0,0,0,627,466.94C632.74,468.82,638.46,472.74,644.55,473.27Z"/><path class="cls-10" d="M635.74,602.47l-69.38,9.66-.07,0c-.76-24.72-2.1-49.41-3.58-74.08-.15-2.55-.32-5.1-.47-7.65l19.69,11.26c-3.12,9-3.54,18.56,2.91,26.07,5.34,6.24,13.88,5.24,20.11,1.09-1.14,5.68-1.2,11.46.6,16.69,2.16,6.29,7.77,8.71,14.14,8.11,4.27-.4,8-2.69,11.65-4.9a37.67,37.67,0,0,0,.79,6.53A16.21,16.21,0,0,0,635.74,602.47Z"/><path class="cls-2" d="M632.81,577.14c1.62-.14,2.53,3.65,2.24,6.72-.16,1.63-.64,3.06-1.55,3.58-.71.42-1.44.85-2.16,1.3A38.89,38.89,0,0,1,632.81,577.14Z"/><path class="cls-2" d="M644.36,483.74a26.4,26.4,0,0,0-11,4.29A70.67,70.67,0,0,0,622,498.1c1-3.27,0-9.38-2.48-8.33l1.72-1.78a89.3,89.3,0,0,1,9.29-8.67C635.06,481.32,639.69,483.31,644.36,483.74Z"/><path class="cls-2" d="M632.26,577.31a1.1,1.1,0,0,1,.55-.17,38.89,38.89,0,0,0-1.47,11.6c-3.64,2.21-7.38,4.5-11.65,4.9-6.37.6-12-1.82-14.14-8.11-1.8-5.23-1.74-11-.6-16.69a20.06,20.06,0,0,0,3-2.44c3.23-3.16,5.59-7.18,8.31-10.77.73-1,1.47-1.93,2.21-2.87-4.48,6.48-8.19,13.62-9.18,21.32-.6,4.63.5,7.9,5.41,8.9a16.78,16.78,0,0,0,5.83.06C624.82,582.34,628.6,579.45,632.26,577.31Z"/><path class="cls-2" d="M625.88,532.34c2.53-2.78,3.93,4.45,2.94,7.84a59.21,59.21,0,0,0-4.53,5c-2,2.42-3.93,5-5.78,7.63-.74.94-1.48,1.9-2.21,2.87-2.72,3.59-5.08,7.61-8.31,10.77a20.06,20.06,0,0,1-3,2.44,65,65,0,0,1,8.17-20.13c1-1.63,2-3.27,3.08-4.87C619.28,539.9,622.48,536.06,625.88,532.34Z"/><path class="cls-2" d="M628.82,540.18a3,3,0,0,1-.61,1.22c-3.35,3.68-6.6,7.45-9.7,11.36,1.85-2.66,3.81-5.21,5.78-7.63A59.21,59.21,0,0,1,628.82,540.18Z"/><path class="cls-3" d="M622.18,476a85.36,85.36,0,0,1,8.32,3.29,89.3,89.3,0,0,0-9.29,8.67l-1.72,1.78-.07,0c-2.8,1.33-7.72.22-10.51-.55a21.89,21.89,0,0,1-9.87-5.92c-4.19-4.51-7.93-15.61,2.38-15.39,2.85.07,5.67,1.76,8.19,2.94A97.32,97.32,0,0,0,622.18,476Z"/><path class="cls-2" d="M619.49,489.77c2.48-1,3.53,5.06,2.48,8.33v0c-.65.68-1.26,1.37-1.88,2.06a16,16,0,0,1-10.08.17C613.08,496.72,616.25,493.17,619.49,489.77Z"/><path class="cls-2" d="M620.08,500.18c.62-.69,1.23-1.38,1.88-2.06a2.81,2.81,0,0,1-1.3,1.8Z"/><path class="cls-2" d="M620.08,500.18c-3,3.43-5.92,7.06-8.72,10.66.91-2.73.65-7.32-1.2-8.21-.49-.24-1-.47-1.5-.7.44-.53.88-1.05,1.34-1.58A16,16,0,0,0,620.08,500.18Z"/><path class="cls-2" d="M616.2,543.84c-1.06,1.6-2.09,3.24-3.08,4.87A65,65,0,0,0,605,568.84c-6.23,4.15-14.77,5.15-20.11-1.09-6.45-7.51-6-17.09-2.91-26.07l2.49,1.42c2.83,1.62,4-8.17,1.37-10a79.94,79.94,0,0,1,4.62-7.46c1.51.77,3,1.56,4.51,2.33a1.31,1.31,0,0,0,1.78-.58l1,.76a97,97,0,0,0-7.46,10.42c-3.4,5.68-8.31,13.52-3.47,19.6,6.66,8.36,17.84,1.33,22.55-5.11C611.55,549.91,613.85,546.84,616.2,543.84Z"/><path class="cls-2" d="M610.16,502.63c1.85.89,2.11,5.48,1.2,8.21l-1.56,2a1.27,1.27,0,0,1-.88-.11c-2.18-1.05-4.41-2-6.64-3q3.13-4,6.38-7.87C609.17,502.16,609.67,502.39,610.16,502.63Z"/><path class="cls-2" d="M609.8,512.87l1.56-2C611,511.92,610.49,512.71,609.8,512.87Z"/><path class="cls-2" d="M608.92,512.76a1.27,1.27,0,0,0,.88.11c-2.14,2.77-4.23,5.5-6.32,8.09-1.92,2.38-3.89,4.75-5.82,7.15l-1-.76c1.53-2.17,1.65-8.42-.55-9.55q3-4,6.13-8C604.51,510.74,606.74,511.71,608.92,512.76Z"/><path class="cls-2" d="M608.66,501.93q-3.25,3.88-6.38,7.87c-6.42-2.68-13-5.06-19.18-8.24a169.23,169.23,0,0,1-23.84-14.63q-.45-5.9-.93-11.77a166.83,166.83,0,0,0,26,16.27C592.21,495.47,600.65,498.22,608.66,501.93Z"/><path class="cls-3" d="M602.28,509.8q-3.13,4-6.13,8l-36-18.58q-.42-6.15-.89-12.29a169.23,169.23,0,0,0,23.84,14.63C589.3,504.74,595.86,507.12,602.28,509.8Z"/><path class="cls-2" d="M596.15,517.8c2.2,1.13,2.08,7.38.55,9.55a1.31,1.31,0,0,1-1.78.58c-1.51-.77-3-1.56-4.51-2.33.25-.33.48-.66.72-1C592.77,522.34,594.44,520.06,596.15,517.8Z"/><path class="cls-2" d="M560.15,499.22l36,18.58c-1.71,2.26-3.38,4.54-5,6.81-.24.33-.47.66-.72,1l-29.47-15.21C560.69,506.66,560.42,502.94,560.15,499.22Z"/><path class="cls-8" d="M560.94,510.39l29.47,15.21a79.94,79.94,0,0,0-4.62,7.46.67.67,0,0,0-.14-.09l-24.13-13.8C561.33,516.24,561.13,513.32,560.94,510.39Z"/><path class="cls-2" d="M585.79,533.06c2.66,1.87,1.46,11.66-1.37,10l-2.49-1.42A60.09,60.09,0,0,1,585.79,533.06Z"/><path class="cls-2" d="M585.65,533a.67.67,0,0,1,.14.09,60.09,60.09,0,0,0-3.86,8.62l-19.69-11.26c-.23-3.74-.48-7.5-.72-11.25Z"/><path class="cls-2" d="M586.7,75.62a157.67,157.67,0,0,0-10.26,14.74c-2-.75-2.55-6.79-1.12-9.26a2.09,2.09,0,0,1,.93-.91Q581.44,77.82,586.7,75.62Z"/><path class="cls-2" d="M574.59,80.63l.73.47c-1.43,2.47-.87,8.51,1.12,9.26a161.29,161.29,0,0,0-18.14,41.93c-3.77,13.85-5.4,28-5.94,42.33-.7,18.31-1.67,36.86,8.17,53.14-1.32-2.09-2.8.75-3.16,1.88a9.17,9.17,0,0,0,.82,7.19q-1.5-2.47-2.77-5c0-.36.08-.74.12-1.1.91-3,.34-8.14-2-8.33-.7-.06-1.42-.11-2.12-.13a70.37,70.37,0,0,1-2.4-9.35c-3-16.45-1.84-33.89-.63-50.5a183.34,183.34,0,0,1,10.7-50.23A170.24,170.24,0,0,1,574.59,80.63Z"/><path class="cls-2" d="M566.6,622.6c.12,5.37.22,10.74.11,16.11L564,639c-1,.11-1.62,1-2,2.26,0-.2,0-.39,0-.51.55-18.42-.58-37-1.42-55.38q-1.38-30.08-3.35-60.12l1-.07c.11,1.77.61,3.38,1.6,3.94l2.33,1.33c.15,2.55.32,5.1.47,7.65,1.48,24.67,2.82,49.36,3.58,74.08-3.34.6-2.87,10.91.07,10.49Z"/><path class="cls-2" d="M561.74,644.81c0-.54,1.14-2.65,1.59-2.71.07,0,.11,0,.13,0a.11.11,0,0,0-.13,0c-.24,0-.73,0-.84-.08a5.78,5.78,0,0,0-.48-.33c0-.16,0-.32,0-.46.39-1.25,1.05-2.15,2-2.26l2.68-.26c0,.39,0,.79,0,1.19,0,1.73.24,6.2-.53,9.36l-2.13.22c-2.09.22-2.92-4.65-2.13-7.83a.25.25,0,0,1,.11,0c0,.39,0,.81,0,1.09A7.67,7.67,0,0,0,561.74,644.81Z"/><path class="cls-2" d="M566.6,622.6l-.24,0c-2.94.42-3.41-9.89-.07-10.49.05,1.35.1,2.7.13,4.06Z"/><path class="cls-2" d="M564,649.48l2.13-.22c-.37,1.51-1,2.73-2,3.18-2.18,1-6.29-1.26-8.3-2-6.18-2.13-12.3-4.49-18.39-6.85-21-8.12-41.81-16.65-62.61-25.24q-11.69-4.83-23.37-9.7c.35-3.54-.9-8.22-2.45-6.88s-3.06,2.65-4.6,3.93q-65.65-27.46-130.64-56.53c-21-9.45-42-19-62.63-29.33-5.87-3-11.75-5.93-17.4-9.28,2.9.22,3.34-9,.58-10.34l.08-.13c13.56,8.18,28.21,14.77,42.52,21.5,23.16,10.88,46.55,21.33,70,31.62q76.79,33.75,154.48,65.4c16.67,6.77,33.34,13.57,50.24,19.75,2.78,1,7.71,1.75,10.24,3.24C561.11,644.83,561.94,649.7,564,649.48Z"/><path class="cls-2" d="M563.33,642.1a.11.11,0,0,1,.13,0S563.4,642.11,563.33,642.1Z"/><path class="cls-2" d="M562,642.78c0-.28,0-.7,0-1.09a5.78,5.78,0,0,1,.48.33c.11.09.6.05.84.08-.45.06-1.59,2.17-1.59,2.71a7.67,7.67,0,0,1,.23-2c0,.16,0,.29,0,.33S562,643,562,642.78Z"/><path class="cls-2" d="M562.24,530.42l-2.33-1.33c-1-.56-1.49-2.17-1.6-3.94-.2-3.32,1-7.26,2.84-6.19l.37.21C561.76,522.92,562,526.68,562.24,530.42Z"/><path class="cls-8" d="M520,617c7,3,15,7,23,10,6,2.24,12.5,1.14,19.17,0-.12-13.9-.92-27.83-1.55-41.68q-1.38-30.08-3.35-60.12-.81-12.42-1.69-24.81-.69-9.53-1.42-19.06c-1.63-21-3.49-41.91-5.87-62.82-1.14-10-2.38-20-4.06-30-.57-3.29-1.18-6.57-2-9.87-.65-2.67-.85-4-1.78-5.75a6.48,6.48,0,0,0-2-2.22,51.15,51.15,0,0,0-5.77-3.84c-6.23-3.7-12.78-6.87-19.32-10l-3.66-1.72c-19.51-9.09-39.45-17.26-59.39-25.29q-57.87-23.29-116.58-44.46-21.14-7.68-42.33-15.12c-20.3-7.16-40.67-14.22-61.21-20.66-5.84-1.84-11.72-3.67-17.68-5.14a23.29,23.29,0,0,0-4.79-1c-.33,0-.66-.07-1-.06.45,0-1.65,1.06-2.24,1.55-1.72,1.43-2.12,3-2.25,2.08.14,2.65.28,5.29.43,7.94,2.75,48.78,6,97.56,10.54,146.22,2.28,24.67,4.59,49.49,8.92,73.91A125.27,125.27,0,0,0,225.37,490C288.56,516.67,350.8,543.33,415,570,450,585,483,605,520,617Z"/><path class="cls-9" d="M543,627c-8-3-16-7-23-10-37-12-70-32-105-47-64.2-26.67-126.44-53.33-189.63-80a34.64,34.64,0,0,0,1.39,3.75,5.75,5.75,0,0,0,1.86,2.54,39.48,39.48,0,0,0,4.84,3.27l1,.58c13.56,8.18,28.21,14.77,42.52,21.5,23.16,10.88,46.55,21.33,70,31.62q76.79,33.75,154.48,65.4c16.67,6.77,33.34,13.57,50.24,19.75,2.78,1,7.71,1.75,10.24,3.24,0-.14.09-.28.12-.42s0-.39,0-.51c.14-4.56.17-9.13.13-13.7C555.5,628.14,549,629.24,543,627Z"/><path class="cls-2" d="M562,641.23c0,.14,0,.3,0,.46a.25.25,0,0,0-.11,0C561.94,641.51,562,641.37,562,641.23Z"/><path class="cls-2" d="M562,643.11s0-.17,0-.33C562,643,562,643.06,562,643.11Z"/><path class="cls-2" d="M560.53,227.76a9.32,9.32,0,0,1,.83,7.18c-.35,1.07-1.79,3.82-3,2.07l-.13-.18a9.17,9.17,0,0,1-.82-7.19C557.73,228.51,559.21,225.67,560.53,227.76Z"/><path class="cls-2" d="M561.52,519.17l-.37-.21c-1.88-1.07-3,2.87-2.84,6.19l-1,.07q-.81-12.42-1.69-24.81-.69-9.53-1.42-19.06l.92-.07a5.08,5.08,0,0,0,1.33,3.47c.93.73,1.88,1.47,2.85,2.18q.47,6.15.89,12.29a.91.91,0,0,0-.17-.09c-3-1.57-4.11,8.64-1.24,10.12l2.2,1.14C561.13,513.32,561.33,516.24,561.52,519.17Z"/><path class="cls-2" d="M560.94,510.39l-2.2-1.14c-2.87-1.48-1.8-11.69,1.24-10.12a.91.91,0,0,1,.17.09C560.42,502.94,560.69,506.66,560.94,510.39Z"/><path class="cls-2" d="M558.33,475.16q.48,5.88.93,11.77c-1-.71-1.92-1.45-2.85-2.18a5.08,5.08,0,0,1-1.33-3.47c-.29-3.49.95-7.93,2.57-6.66Z"/><path class="cls-2" d="M558.33,475.16l-.68-.54c-1.62-1.27-2.86,3.17-2.57,6.66l-.92.07c-1.63-21-3.49-41.91-5.87-62.82-1.14-10-2.38-20-4.06-30-.57-3.29-1.18-6.57-2-9.87l2.29-.26c.34,1.35,1,2.4,2,2.67l1.39.38c4.12,22,6.08,44.43,8.11,66.68Q557.27,461.64,558.33,475.16Z"/><path class="cls-2" d="M552,223.77c1.47-3,4.34,1.32,3.8,5.25-.07.56-.15,1.12-.21,1.68a6.38,6.38,0,0,1-.29.78A71.48,71.48,0,0,1,552,223.77Z"/><path class="cls-2" d="M555.75,229c.54-3.93-2.33-8.25-3.8-5.25-.19-.51-.36-1-.54-1.53.7,0,1.42.07,2.12.13,2.35.19,2.92,5.31,2,8.33C555.6,230.14,555.68,229.58,555.75,229Z"/><path class="cls-2" d="M555.54,230.7c0,.36-.09.74-.12,1.1-.06-.11-.12-.21-.17-.32A6.38,6.38,0,0,0,555.54,230.7Z"/><path class="cls-2" d="M555.25,231.48c-.41.89-1,1.45-1.72,1.39l-1.26-.08c0-.76-.11-1.44-.14-2a30.63,30.63,0,0,0-.77-5,7.7,7.7,0,0,1,.59-2.06A71.48,71.48,0,0,0,555.25,231.48Z"/><path class="cls-2" d="M552.27,232.79c.21,3.38.35,8.39-1.66,10.23-.19.18-.38.34-.55.53,0-3.61.2-7.24.51-10.85C551.13,232.72,551.71,232.75,552.27,232.79Z"/><path class="cls-2" d="M552.13,230.82c0,.53.09,1.21.14,2-.56,0-1.14-.07-1.7-.09q.3-3.24.73-6.47c0-.14,0-.27.06-.4A30.63,30.63,0,0,1,552.13,230.82Z"/><path class="cls-2" d="M551.41,222.24c.18.51.35,1,.54,1.53a7.7,7.7,0,0,0-.59,2.06c-.42-1.58-1.06-2.73-1.92-1.93s-1.88,1.78-2.75,2.7a1.23,1.23,0,0,0-1.33-.73,52.09,52.09,0,0,0-18.67,8.56C507.38,238,488.93,246,471,253.93c-10.57,4.68-22,11.44-33.79,12.6a22.55,22.55,0,0,1-2.71.1,12.7,12.7,0,0,0-.38-3.15,5,5,0,0,0-1-2c-.06-2.46-.78-4.91-1.9-5.22l.09-.46a22.34,22.34,0,0,0,7,.11c6.07-.84,11.83-3.44,17.41-5.85,7.89-3.42,15.71-7,23.59-10.44C501.93,229.69,526.31,220.85,551.41,222.24Z"/><path class="cls-2" d="M551.36,225.83c0,.13,0,.26-.06.4q-.43,3.22-.73,6.47c-1,0-2-.09-3-.09a10.11,10.11,0,0,0-.88-6c.87-.92,1.79-1.83,2.75-2.7S550.94,224.25,551.36,225.83Z"/><path class="cls-2" d="M550.57,232.7c-.31,3.61-.5,7.24-.51,10.85-8.11,7.61-14.24,17.58-15.66,28.75-.26,2-.91,6.6-3,3.56s-1.25-10-.79-13.57a67.83,67.83,0,0,1,7.27-23.48,48.94,48.94,0,0,1,7.46-2.44c1.27-.3,2-1.9,2.21-3.76C548.57,232.61,549.57,232.65,550.57,232.7Z"/><path class="cls-2" d="M547.6,379.77c.1.56.22,1.13.31,1.69l-1.39-.38c-1-.27-1.65-1.32-2-2.67a12.16,12.16,0,0,1,0-5.2c.52.81,1.17,1.05,1.89.22C546.86,375.6,547.22,377.78,547.6,379.77Z"/><path class="cls-2" d="M546.52,370.57c.46.13.93.25,1.38.39-.31.51-.62,1-.91,1.58a4.14,4.14,0,0,1-.59.89c-.2-.92-.41-1.83-.66-2.72A1,1,0,0,1,546.52,370.57Z"/><path class="cls-2" d="M546.69,226.6a10.11,10.11,0,0,1,.88,6c-2,0-3.94,0-5.89.09A55.78,55.78,0,0,1,546.69,226.6Z"/><path class="cls-2" d="M541.68,232.7c2-.1,3.92-.13,5.89-.09-.24,1.86-.94,3.46-2.21,3.76a48.94,48.94,0,0,0-7.46,2.44A57.41,57.41,0,0,1,541.68,232.7Z"/><path class="cls-2" d="M545.74,370.71c.25.89.46,1.8.66,2.72-.72.83-1.37.59-1.89-.22A4.18,4.18,0,0,1,545.74,370.71Z"/><path class="cls-2" d="M545.36,225.87a1.23,1.23,0,0,1,1.33.73,55.78,55.78,0,0,0-5,6.1,108.86,108.86,0,0,0-15,1.73A52.09,52.09,0,0,1,545.36,225.87Z"/><path class="cls-2" d="M545.74,370.71a4.18,4.18,0,0,0-1.23,2.5c-1.15-1.75-1.65-6.2-.85-8A25.58,25.58,0,0,1,545.74,370.71Z"/><path class="cls-2" d="M544.53,378.41l-2.29.26c-.65-2.67-.85-4-1.78-5.75a6.48,6.48,0,0,0-2-2.22,51.15,51.15,0,0,0-5.77-3.84c-6.23-3.7-12.78-6.87-19.32-10l-3.66-1.72.45-1c.44.2.92.06,1.38-.7,1.29-2.18,2.56-4.37,3.82-6.59,6.06,2.91,12,6,17.76,9.34,3.36,2,7.39,4.13,9.64,7.43a13.92,13.92,0,0,1,.92,1.54c-.8,1.77-.3,6.22.85,8A12.16,12.16,0,0,0,544.53,378.41Z"/><path class="cls-2" d="M541.68,232.7a57.41,57.41,0,0,0-3.78,6.11A48,48,0,0,0,515,259c-1.29,2.19-2.83-.82-3.17-1.89a9.31,9.31,0,0,1,.83-7.18,50.74,50.74,0,0,1,14-15.5A108.86,108.86,0,0,1,541.68,232.7Z"/><path class="cls-2" d="M528.55,307.93c2.41-5.08,4.53,4.77,3.27,7.43-5,10.66-10.6,21.29-16.48,31.57-2-.95-4-1.88-6-2.79C516.28,332.46,522.74,320.19,528.55,307.93Z"/><path class="cls-2" d="M515.34,346.93c-1.26,2.22-2.53,4.41-3.82,6.59-.46.76-.94.9-1.38.7a4.87,4.87,0,0,1-1.79-2.59,9.29,9.29,0,0,1,.83-7.17l.19-.32C511.38,345.05,513.36,346,515.34,346.93Z"/><path class="cls-2" d="M510.14,354.22l-.45,1c-19.51-9.09-39.45-17.26-59.39-25.29q-57.87-23.29-116.58-44.46l.92-2.54a1.46,1.46,0,0,0,.66.16c2,0,2.3-4,2.31-5.25,0-.49,0-1,0-1.48,48.57,17.63,96.95,35.94,144.51,56.07,9.05,3.83,18.21,7.63,27.22,11.75l-.19.32a9.29,9.29,0,0,0-.83,7.17A4.87,4.87,0,0,0,510.14,354.22Z"/><path class="cls-2" d="M482.78,759.39a49.21,49.21,0,0,1,2.86,4.45c-3.28.17-6.48.27-9.66.27-.23-1.53-.49-3.05-.75-4.58-1.19-7-5.26-1.91-4.45,2.79l.28,1.68H471c-.8-2.66-.43-7,1.24-8.06,2.25-.05,4.52-.13,6.83-.26C480.28,755.61,482.13,758.58,482.78,759.39Z"/><path class="cls-2" d="M476.62,853.82c0-.44.08-1.54.1-1.72,0-.87.08-1.73.11-2.59.1-2.27.17-4.53.21-6.8q.21-10.86-.18-21.75a440.18,440.18,0,0,0-5.72-56.49c.41,1,1,1.75,1.87,1.7l3.26-.16c5.78,37.38,6.49,74.86,3.29,112.55-1.2,14.17-2.83,29.48-11.12,41.52-1.11-1.84-3.1-5.14-4.56-6.4a37.61,37.61,0,0,0,6.91-12.1C475.91,886.6,475.71,869.44,476.62,853.82Z"/><path class="cls-2" d="M476.27,766l-3.26.16c-.84.05-1.46-.65-1.87-1.7,0-.16-.06-.32-.08-.47,1.63.07,3.28.11,4.92.11C476.09,764.74,476.19,765.37,476.27,766Z"/><path class="cls-2" d="M475.23,759.53c.26,1.53.52,3.05.75,4.58-1.64,0-3.29,0-4.92-.11l-.28-1.68C470,757.62,474,752.54,475.23,759.53Z"/><path class="cls-2" d="M448.78,754.32a118.3,118.3,0,0,0,23.43,1.62c-1.67,1.11-2,5.4-1.24,8.06a122.48,122.48,0,0,1-17.69-1.9c-10.11-1.82-20.25-3.47-29.72-7.64-1.73-.77-3.31-3.34-4.38-4.78-.17-.22-2.42-3.59-1.76-3.29C427.39,750.79,438.14,752.43,448.78,754.32Z"/><path class="cls-2" d="M471.06,764c0,.15.05.31.08.47-.06-.15-.12-.3-.17-.47Z"/><path class="cls-2" d="M468.44,920.08a6.81,6.81,0,0,0,.87,1.3c-.82.3-1.65.61-2.48.9C467.39,921.57,467.93,920.83,468.44,920.08Z"/><path class="cls-2" d="M468.44,920.08c-.51.75-1.05,1.49-1.61,2.2a117.75,117.75,0,0,1-19.89,5c6.37-3.87,12.33-8.14,16.94-13.62C465.34,914.94,467.33,918.24,468.44,920.08Z"/><path class="cls-2" d="M462.7,913.22c.32-.11.72.07,1.18.46-4.61,5.48-10.57,9.75-16.94,13.62a108,108,0,0,1-45.19-2c-21.87-5.92-39.38-20.76-52-39.08a6.64,6.64,0,0,0,.63-2c.29.44.58.9.85,1.35C373.35,922.88,425.67,927.09,462.7,913.22Z"/><path class="cls-2" d="M449.05,601.82c1.55-1.34,2.8,3.34,2.45,6.88l-7.05-3C446,604.47,447.52,603.15,449.05,601.82Z"/><path class="cls-2" d="M444.45,605.75l7.05,3a5,5,0,0,1-1.22,3.25,462.38,462.38,0,0,1-41.6,31.72l-.18-.28c2.21-1.52,2.14-9.2-.34-10.15C420.63,624.62,432.78,615.61,444.45,605.75Z"/><path class="cls-2" d="M466.83,922.28c-9.77,12.43-26,19.44-39.43,26.78-36.25,19.8-78.57,35.62-120.17,24-13.21-3.7-29-8.4-37.33-20.19-11.36-16.09-1.22-35.79,10.21-48.68,16.52-18.68,42.09-23.89,65.74-26.86,0,.49,0,1,0,1.47V879c-.71-.6-1.4-1.07-.77,0,.28.47.56.94.86,1.41.19,1.63.76,3.68,2.22,3.68a.22.22,0,0,0,.11,0c.47.75,1,1.49,1.49,2.22a2.16,2.16,0,0,1-1.6,1.3c-25.26,3-53.56,8.36-69.43,30.43-6,8.31-13,18-5.3,27.38,4.48,5.41,11.12,8.91,17.49,11.63a116.86,116.86,0,0,0,51.29,9.39c37.54-1.84,71.23-19.34,103-38l1.77-1.05A117.75,117.75,0,0,0,466.83,922.28Z"/><path class="cls-11" d="M446.94,927.3l-1.77,1.05c-31.75,18.68-65.44,36.18-103,38A116.86,116.86,0,0,1,290.9,957c-6.37-2.72-13-6.22-17.49-11.63-7.73-9.36-.67-19.07,5.3-27.38,15.87-22.07,44.17-27.4,69.43-30.43a2.16,2.16,0,0,0,1.6-1.3c12.63,18.32,30.14,33.16,52,39.08A108,108,0,0,0,446.94,927.3Z"/><path class="cls-2" d="M434.16,263.48a12.7,12.7,0,0,1,.38,3.15,19.59,19.59,0,0,1-2.79-.21c1-.8,1.45-2.89,1.39-5A5,5,0,0,1,434.16,263.48Z"/><path class="cls-2" d="M434.54,266.63a6,6,0,0,1-1.21,4c-2.31,2.38-4.34,5.79-4.77,8.53-.19,1.15-.88,4.63-2.85,3.66s-1.87-4.78-1.61-6.45a30.48,30.48,0,0,1,2.3-8,20.82,20.82,0,0,0,5.21-1.92.76.76,0,0,0,.14-.11A19.59,19.59,0,0,0,434.54,266.63Z"/><path class="cls-2" d="M433.14,261.45c.06,2.08-.35,4.17-1.39,5a21.64,21.64,0,0,1-3.82-.86,22.56,22.56,0,0,1,3.06-4C431.86,260.71,432.58,260.87,433.14,261.45Z"/><path class="cls-2" d="M433.14,261.45c-.56-.58-1.28-.74-2.15.15a22.56,22.56,0,0,0-3.06,4,33,33,0,0,1-8.77-4.46,24.24,24.24,0,0,1,3.56-1.91c2.44-1.07,5.4-1.36,7.66-2.79a1,1,0,0,1,.86-.17C432.36,256.54,433.08,259,433.14,261.45Z"/><path class="cls-2" d="M431.75,266.42a.76.76,0,0,1-.14.11,20.82,20.82,0,0,1-5.21,1.92,22.15,22.15,0,0,1,1.53-2.89A21.64,21.64,0,0,0,431.75,266.42Z"/><path class="cls-2" d="M431.33,255.77l-.09.46a1,1,0,0,0-.86.17c-2.26,1.43-5.22,1.72-7.66,2.79a24.24,24.24,0,0,0-3.56,1.91c-4.07-2.81-7.86-6.31-11.76-9.52-21.3-17.55-44.56-32.47-68.27-46.53-9.73-5.78-16.84-12.26-22.52-22.18C310.34,172,306.34,160.08,303,148c-.94-3.37-1.52-10.13-6.45-7.91-4.24,1.91-8.69,8.61-11.13,12.69-3.92,6.57-3.27,12.07-1.62,19.16.56,2.47,1.17,4.89,1.83,7.32l-.84.23c-.35-1.35-1-2.39-2-2.63-1.28-.29-2.54-.61-3.79-1-1.36-6.48-1.92-13-.89-19.07A38.23,38.23,0,0,1,286.5,139c2.76-3.39,8.12-11.6,13.54-9.77,3.3,1.12,4.58,5.47,5.53,8.41,2.25,7,3.82,14.11,6.45,21,4.51,11.73,10.27,23.92,20.74,31.43,10.28,7.4,21.82,13.22,32.49,20.1,13.18,8.48,26.08,17.45,38.37,27.21C412.22,244.23,420.45,253.85,431.33,255.77Z"/><path class="cls-2" d="M427.93,265.56a22.15,22.15,0,0,0-1.53,2.89c-.59.17-1.17.34-1.72.56a27.33,27.33,0,0,0-11.19,8.66c-1.51,1.86-2.77-.48-3.16-1.89-.6-2.1-.62-5.38.83-7.18a34.94,34.94,0,0,1,8-7.5A33,33,0,0,0,427.93,265.56Z"/><path class="cls-3" d="M367.54,608.59c4.66-3.5,0-11.67-3.51-17.51-15.87-18.06-34.56-31.75-54.39-43.73-19.63-8.85-39.23-17.8-58.46-27.46-5.87-3-11.75-5.93-17.4-9.28-13.33-1-28.53-1.26-39.6,7.32-10.38,8.06-19,18.65-27,29a206,206,0,0,0-28,48.37c-5.47,13.46-9.44,27.47-14.69,41-6.18,16-11.94,31.95-14.52,49,0,.12,0,.22,0,.33a8.61,8.61,0,0,1,1.12,2.11c7,20.8,22,35.25,39.7,46.27,38.56-31.5,57.82-77.07,87.25-119.59,5.59-7.74,12.61-10.24,20.18-10.21a59.76,59.76,0,0,0-24.83-31.8c-1.75-1.1-3.18-3.15-4.38-4.77-.2-.26-2.3-3.63-1.76-3.29a91.8,91.8,0,0,1,34.62,40.06c.4,0,.81.08,1.21.14-2.59-19.58-13.2-37.22-29-50a25.1,25.1,0,0,1-4.68-5.45c-.17-.26-2.19-3.28-.57-2,18.29,14.78,34,35.29,39.43,58.29,10.09,2.22,20.46,6.69,29.27,7.79C320.86,616.76,346.53,623.76,367.54,608.59Z"/><path class="cls-3" d="M263.44,608.28c-.1-1.25-.23-2.5-.4-3.73-.4-.06-.81-.1-1.21-.14C262.4,605.69,262.94,607,263.44,608.28Z"/><path class="cls-1" d="M238,614.42c-29.43,42.52-48.69,88.09-87.25,119.59,10.86,6.75,22.74,12.22,34.45,17l.32.16a14.94,14.94,0,0,0,3.76-3.5c4.82-6.31,7.34-14.86,11.27-21.8,7.15-12.59,15.78-24.07,24.49-35.59,6-7.91,10.43-16.59,15.3-25.18a359.66,359.66,0,0,1,22.81-35,11.91,11.91,0,0,1-.13-3.91,4.52,4.52,0,0,1-1-2.22,73.67,73.67,0,0,0-3.8-19.84C250.61,604.18,243.59,606.68,238,614.42Z"/><path class="cls-1" d="M313.81,549.22l-4.17-1.87c19.83,12,38.52,25.67,54.39,43.73,3.51,5.84,8.17,14,3.51,17.51-21,15.17-46.68,8.17-70,4.66-8.81-1.1-19.18-5.57-29.27-7.79a73.45,73.45,0,0,1,2,18c45.41,7.67,91.42,9,137.41,9.64a1.21,1.21,0,0,1,.5.1c12.47-8.62,24.62-17.63,36.29-27.49Q378.8,578.29,313.81,549.22Z"/><path class="cls-2" d="M408.16,633.24c2.48,1,2.55,8.63.34,10.15a1.58,1.58,0,0,1-.84.25q-7.29-.1-14.57-.23Q400.7,638.4,408.16,633.24Z"/><path class="cls-2" d="M408.5,643.39l.18.28c-7.64,5.27-15.38,10.45-23.16,15.68a351.54,351.54,0,0,0-30.72,23.51c-5.38,4.55-11.25,10.2-14.24,16A47.77,47.77,0,0,0,336.07,713c-.43-.49-.86-.94-1.21-1.35s-2.81-2.71-2.86-2.44c1.07-7.1,3-14.05,6.63-20.19,4.52-7.63,11.41-13.42,18.19-19a365,365,0,0,1,31.46-23.47l4.81-3.16q7.29.14,14.57.23A1.58,1.58,0,0,0,408.5,643.39Z"/><path class="cls-2" d="M407.66,633.14a1.21,1.21,0,0,1,.5.1q-7.46,5.18-15.07,10.17c-41.47-.74-82.91-2.58-123.87-9.58a10.07,10.07,0,0,0,.29-3.32c.15.16.25.26.25.3a69.55,69.55,0,0,0,.49-7.31C315.66,631.17,361.67,632.53,407.66,633.14Z"/><path class="cls-2" d="M390.29,768.66c.19.24,2.53,3.5,1.76,3.3-25.59-6.52-47.27-27.47-56.79-52.22q.25-3.42.81-6.75a10.24,10.24,0,0,1,2.54,3.93c2.56,10.92,7.23,21.93,15.44,29.82,8.81,8.48,20.09,14.15,31.86,17.16C387.51,764.31,389.4,767.47,390.29,768.66Z"/><path class="cls-2" d="M342.38,815c4.36,21.36,8.61,41.83,8.07,63.83,0,.31,0,.79-.09,1.34-.33-1.83-1.09-3.23-2.22-3.09l-2.29.28A182.37,182.37,0,0,0,342,836c-2.82-13.12-5.76-26.1-7.52-39.41-3.14-23.64-5-48.23-3.82-72.08a151.44,151.44,0,0,1,1.38-15.3,78.62,78.62,0,0,0,3.26,10.5,215.15,215.15,0,0,0-.21,21.92C335.53,766.16,337.47,790.92,342.38,815Z"/><path class="cls-2" d="M350.36,880.13a12,12,0,0,1,0,4.15c-.27-.4-.54-.79-.83-1.18A7.72,7.72,0,0,0,350.36,880.13Z"/><path class="cls-2" d="M350.36,880.12h0a7.72,7.72,0,0,1-.82,3,29.44,29.44,0,0,0-2.68-3.18c-.13-.14-.59-.57-1-.95h0v-.18c0-.49,0-1,0-1.47l2.29-.28C349.27,876.89,350,878.29,350.36,880.12Z"/><path class="cls-2" d="M350.37,884.28a6.64,6.64,0,0,1-.63,2c-.51-.73-1-1.47-1.49-2.22a1.59,1.59,0,0,0,1.29-.92C349.83,883.49,350.1,883.88,350.37,884.28Z"/><path class="cls-2" d="M349.54,883.1a1.59,1.59,0,0,1-1.29.92c-.81-1.2-1.58-2.42-2.33-3.66a11,11,0,0,1-.09-1.39c.44.38.9.81,1,.95A29.44,29.44,0,0,1,349.54,883.1Z"/><path class="cls-2" d="M348.25,884a.22.22,0,0,1-.11,0c-1.46,0-2-2-2.22-3.68C346.67,881.6,347.44,882.82,348.25,884Z"/><path class="cls-2" d="M345.92,880.36c-.3-.47-.58-.94-.86-1.41-.63-1.06.06-.59.77,0h0A11,11,0,0,0,345.92,880.36Z"/><path class="cls-2" d="M341.84,240.25c2.55-5,4.61,4.79,3.27,7.43a66.84,66.84,0,0,0-7.47,28.64c-1.18-.45-2.36-.88-3.55-1.3,0-.38,0-.71-.06-.94a60.55,60.55,0,0,1-.27-7.48.08.08,0,0,1,0-.07A82,82,0,0,1,341.84,240.25Z"/><path class="cls-2" d="M339.27,235.58c1.17,2,.9,5.4,0,7.43a62,62,0,0,0-5.51,23.52.08.08,0,0,0,0,.07,79.92,79.92,0,0,0-.69,8l-3.78-1.37a80.54,80.54,0,0,1,6.71-37.7C336.93,233.5,338.29,233.9,339.27,235.58Z"/><path class="cls-2" d="M334.09,275c1.19.42,2.37.85,3.55,1.3,0,.49,0,1,0,1.48,0,1.22-.3,5.25-2.31,5.25a1.46,1.46,0,0,1-.66-.16c-.84-.45-1.26-1.73-1.47-2.94C334,278.81,334.15,276.49,334.09,275Z"/><path class="cls-2" d="M334.86,711.64c.35.41.78.86,1.21,1.35q-.56,3.33-.81,6.75a78.62,78.62,0,0,1-3.26-10.5v0C332.05,708.93,334.48,711.21,334.86,711.64Z"/><path class="cls-2" d="M334.64,282.89l-.92,2.54q-21.14-7.68-42.33-15.12c-20.3-7.16-40.67-14.22-61.21-20.66-5.84-1.84-11.72-3.67-17.68-5.14a23.29,23.29,0,0,0-4.79-1c-.33,0-.66-.07-1-.06a1,1,0,0,0-.28,0,.88.88,0,0,1,.28,0c.45,0-1.65,1.06-2.24,1.55-1.72,1.43-2.12,3-2.25,2.08,0,0,0,0,0,0a1.34,1.34,0,0,0,0-.2c0-.31,0-.62,0-.93-.07-1.35-.25-5.25-2.31-5.25-1.5,0-2.09,2.32-2.27,4a14.47,14.47,0,0,1,4.76-9.33c1-.15,2-.28,3-.41q4.43-.54,8.82-.69c11.8,2.58,23.52,7.26,34.83,11,24,8,47.87,16.37,71.67,25l8.58,3.1c.06,1.19.17,2.4.28,3.59.14,1.45.87,4.36,2.85,3.66a1.7,1.7,0,0,0,.75-.58C333.38,281.16,333.8,282.44,334.64,282.89Z"/><path class="cls-2" d="M334.09,275c.06,1.47,0,3.79-.92,4.93a13.87,13.87,0,0,1-.18-2.15c0-1.05,0-2.1.08-3.15Z"/><path class="cls-2" d="M334.09,275l-1-.37a79.92,79.92,0,0,1,.69-8,60.55,60.55,0,0,0,.27,7.48C334.06,274.31,334.08,274.64,334.09,275Z"/><path class="cls-2" d="M333.07,274.65c-.05,1.05-.08,2.1-.08,3.15a13.87,13.87,0,0,0,.18,2.15,1.7,1.7,0,0,1-.75.58c-2,.7-2.71-2.21-2.85-3.66-.11-1.19-.22-2.4-.28-3.59Z"/><path class="cls-2" d="M293.09,244.3c.13.36-2.42-1.92-2.85-2.41-1.33-1.5-3.09-3.34-3.75-5.27a64.35,64.35,0,0,1-2.33-34.08c0,.06,3.44,3.33,3.74,3.71.7.87,3.11,3.24,2.86,4.45A63.59,63.59,0,0,0,293.09,244.3Z"/><path class="cls-2" d="M290.26,193.57c.78,2.09,1.19,5.39,0,7.43-.92,1.58-2.47,2.11-3.27,0-1.62-4.32-3.38-9-4.95-13.83l.75.19c1.9.44,2.86-4.6,2-7.87l.84-.23C287,184.09,288.49,188.85,290.26,193.57Z"/><path class="cls-2" d="M284.82,179.49c.83,3.27-.13,8.31-2,7.87l-.75-.19a109.56,109.56,0,0,1-3-11.27c1.25.35,2.51.67,3.79,1C283.82,177.1,284.47,178.14,284.82,179.49Z"/><path class="cls-2" d="M198.71,150.66c2,1.87-2.32,6.41,1.11,3.15l.86-.85c1.15,1.65,2.2,3.64,3.15,4.83,2.86,3.57,5.87,7,9,10.41,6.14,6.68,12.46,13.27,20.07,18.3,3.37,2.22,6.85,4.26,10.41,6.15l-.18.32c-6.94-3.64-14.14-7.08-21.69-9.18a26.48,26.48,0,0,0-5.65-.9c-1.35-1.39-2.67-2.8-4-4.21a154.9,154.9,0,0,1-14.12-16.88c-2.51-3.6-4.39-7.3-3.13-11.82,1.39-5,6.29-8.95,10.21-12,3.19-2.52,7.48-6.31,11.83-5.17,4.73,1.25,8.91,5.75,12.34,9,4.83,4.52,9.41,9.28,14.17,13.87A81.13,81.13,0,0,0,279,175.9a109.56,109.56,0,0,0,3,11.27c-15.53-3.68-28.73-10.44-40.26-21.5-5.7-5.47-11.11-11.28-17.05-16.49-3.45-3-7.77-7.66-12.55-5.32a40.23,40.23,0,0,0-8.35,6c-1.12,1-2.11,2.07-3.15,3.13A9.83,9.83,0,0,0,198.71,150.66Z"/><path class="cls-2" d="M228.82,547.17c23,18.55,41.93,46.13,41.43,76.33-.89-.15-1.79-.3-2.68-.47a77,77,0,0,0-4.13-14.75c-1.67-21.06-12.6-40.14-29.37-53.7a25.1,25.1,0,0,1-4.68-5.45C229.22,548.87,227.2,545.85,228.82,547.17Z"/><path class="cls-2" d="M270.25,623.5a69.55,69.55,0,0,1-.49,7.31s-.1-.14-.25-.3c-.1-2.27-.71-4.65-1.59-5.29-.09-.74-.21-1.46-.35-2.19C268.46,623.2,269.36,623.35,270.25,623.5Z"/><path class="cls-2" d="M269.51,630.51a10.07,10.07,0,0,1-.29,3.32l-3.93-.69c-1.12-.2-1.82-1.42-2.14-3,.49-.68,1-1.36,1.48-2,.43.44.82.85,1.1,1.16s2.89,3,2.86,2.41c0-.77-.09-1.54-.16-2.3C268.88,629.87,269.28,630.26,269.51,630.51Z"/><path class="cls-2" d="M265.29,633.14l3.93.69a3.22,3.22,0,0,1-.43.93,399.39,399.39,0,0,0-30.31,47.1c-6.37,11.63-14.55,21.66-22.24,32.41A210.65,210.65,0,0,0,201,738.55c-3.28,6.22-5.45,13.75-10.14,19.19-.51-.86-1.15-1.8-1.25-1.92-1-1.29-2.45-3.71-4-4.6a14.94,14.94,0,0,0,3.76-3.5c4.82-6.31,7.34-14.86,11.27-21.8,7.15-12.59,15.78-24.07,24.49-35.59,6-7.91,10.43-16.59,15.3-25.18a359.66,359.66,0,0,1,22.81-35C263.47,631.72,264.17,632.94,265.29,633.14Z"/><path class="cls-2" d="M269.51,630.51c-.23-.25-.63-.64-1.08-1.08-.13-1.41-.3-2.83-.51-4.21C268.8,625.86,269.41,628.24,269.51,630.51Z"/><path class="cls-2" d="M268.59,631.73c0,.6-2.49-2-2.86-2.41s-.67-.72-1.1-1.16l1.06-1.44.31.37c.21.25,1.43,1.39,2.43,2.34C268.5,630.19,268.54,631,268.59,631.73Z"/><path class="cls-2" d="M267.92,625.22c.21,1.38.38,2.8.51,4.21-1-.95-2.22-2.09-2.43-2.34l-.31-.37c.25-.35.51-.69.76-1C267,625,267.49,624.88,267.92,625.22Z"/><path class="cls-2" d="M267.57,623c.14.73.26,1.45.35,2.19-.43-.34-.93-.25-1.47.47-.25.34-.51.68-.76,1a18.69,18.69,0,0,1-2.11-2.67c.4-1,1-1.54,1.71-1.41S266.81,622.9,267.57,623Z"/><path class="cls-2" d="M267.57,623c-.76-.13-1.53-.25-2.28-.39s-1.31.45-1.71,1.41a2.38,2.38,0,0,1-.43-1.4,71.42,71.42,0,0,0,.29-14.37A77,77,0,0,1,267.57,623Z"/><path class="cls-2" d="M265.69,626.72l-1.06,1.44c-.53-.59-1.12-1.24-1.61-1.89a8.48,8.48,0,0,1,.56-2.22A18.69,18.69,0,0,0,265.69,626.72Z"/><path class="cls-2" d="M264.63,628.16c-.5.66-1,1.34-1.48,2a11.91,11.91,0,0,1-.13-3.91C263.51,626.92,264.1,627.57,264.63,628.16Z"/><path class="cls-2" d="M263.44,608.28a71.42,71.42,0,0,1-.29,14.37,2.38,2.38,0,0,0,.43,1.4,8.48,8.48,0,0,0-.56,2.22,4.52,4.52,0,0,1-1-2.22c-1.16-21.09-10.52-40.25-28.63-51.64-1.75-1.1-3.18-3.15-4.38-4.77-.2-.26-2.3-3.63-1.76-3.29A91.52,91.52,0,0,1,263.44,608.28Z"/><path class="cls-2" d="M260.07,200.38c2.89,1.19,2.08,11.5-1.24,10.13-4.35-1.78-8.68-3.67-12.9-5.77,2.1-1.05,2.6-8.86.14-10.19l-3-1.58.18-.32C248.74,195.53,254.37,198.06,260.07,200.38Z"/><path class="cls-2" d="M247.23,228.39c2.19,1.16,2.06,7.39.55,9.56l-.15.17a1.58,1.58,0,0,1-1.63.4,78.7,78.7,0,0,0-24.72-8.6c-8.51-1.34-17.2-1.57-25.63-3.39l-1.07-.25c7.54-2.55,16.65-2.69,24.16-2.74C228.34,223.47,238.1,225.58,247.23,228.39Z"/><path class="cls-2" d="M247.78,238c1.51-2.17,1.64-8.4-.55-9.56C249.52,229.1,249.64,235.81,247.78,238Z"/><path class="cls-2" d="M247.63,238.12a1.21,1.21,0,0,1-1.63.4A1.58,1.58,0,0,0,247.63,238.12Z"/><path class="cls-2" d="M246.07,194.55c2.46,1.33,2,9.14-.14,10.19a128,128,0,0,1-14.88-8.52,95.43,95.43,0,0,1-15.28-13.33,26.48,26.48,0,0,1,5.65.9c7.55,2.1,14.75,5.54,21.69,9.18Z"/><path class="cls-2" d="M231.05,196.22a128,128,0,0,0,14.88,8.52,1.17,1.17,0,0,1-1.1-.06c-11.8-6.35-23.46-12.64-37.1-10.76-5.35.74-29.28,2.6-26.48,11.61,3.73,12,21.31,11.65,31.07,12.73,12.51,1.4,23.71,4.21,34.91,10.13-9.13-2.81-18.89-4.92-28.49-4.85-7.51.05-16.62.19-24.16,2.74-10.6-2.67-18.3-10.76-18.46-22.23-.22-14.8,12.73-17.29,24.73-19.5,5-.92,10-1.9,14.92-1.66A95.43,95.43,0,0,0,231.05,196.22Z"/><path class="cls-2" d="M221.28,229.92a78.7,78.7,0,0,1,24.72,8.6,96.05,96.05,0,0,0-31.79-4.3c-1.73-.38-3.44-.71-5.17-1a8.16,8.16,0,0,0-6.68,2.09c-6.77,1-12.69,2.59-16.15,9.08l-.11-.15c-.34,1.67-.33,1.75.07.23l0-.08a15.52,15.52,0,0,0,1.26,1.53c1.33,1,2.4,2.45,3.75,3.47a16.2,16.2,0,0,0,6.69,3c.18,3.54.38,7.07.58,10.61-7.2-1.38-14.74-6.7-16.77-13.94s1.65-17.19,8.3-20.81a27.72,27.72,0,0,1,4.56-2l1.07.25C204.08,228.35,212.77,228.58,221.28,229.92Z"/><path class="cls-2" d="M234.36,500.27c2.76,1.33,2.32,10.56-.58,10.34l-1-.61c-3.29-2-6.66-3.95-8.55-7.42a28.59,28.59,0,0,1-1.4-3c3.77,0,7.48.23,11,.49A1.48,1.48,0,0,1,234.36,500.27Z"/><path class="cls-2" d="M234.44,500.14l-.08.13a1.48,1.48,0,0,0-.58-.16c-3.5-.26-7.21-.48-11-.49-2.05-5-3-10.61-4-15.76-2.11-10.78-3.63-21.69-5-32.59-3.59-28.64-6.07-57.42-8.35-86.18q-4-51-6.94-102.1c.49.09,1,.16,1.45.22,3,.35,3.43-10.09,0-10.5-.7-.08-1.38-.19-2-.33-.11-1.82-.2-3.64-.3-5.46.13,1.69.59,4.26,2.26,4.26,1.9,0,2.31-3.7,2.31-5.09,0,.32,0,.57,0,.77a1.34,1.34,0,0,1,0,.2s0,0,0,0c.14,2.65.28,5.29.43,7.94,2.75,48.78,6,97.56,10.54,146.22,2.28,24.67,4.59,49.49,8.92,73.91,1.1,6.18,2.35,13.56,4.62,18.58a5.75,5.75,0,0,0,1.86,2.54,39.48,39.48,0,0,0,4.84,3.27Z"/><path class="cls-2" d="M232.75,510l1,.61c-13.33-1-28.53-1.26-39.6,7.32-10.38,8.06-19,18.65-27,29a206,206,0,0,0-28,48.37c-5.47,13.46-9.44,27.47-14.69,41-6.18,16-11.94,31.95-14.52,49,0,.12,0,.22,0,.33l-.17-.22c.37-2.57,0-5.65-1.4-6.57-.66-.43-1.33-.84-2-1.23,3.28-17.85,9.5-34.62,16-51.59,5.72-15,10-30.39,16.53-45.06,7.84-17.62,18.3-33.69,30.41-48.66,7.58-9.36,15.9-19.28,25.93-26.15,7.81-5.36,17.89-6.6,27.6-6.53a28.59,28.59,0,0,0,1.4,3C226.09,506.05,229.46,508,232.75,510Z"/><path class="cls-2" d="M209,233.23c1.73.28,3.44.61,5.17,1q-4.4.15-8.82.69c-1,.13-2,.26-3,.41A8.16,8.16,0,0,1,209,233.23Z"/><path class="cls-2" d="M206.46,243.49a1,1,0,0,1,.28,0A.88.88,0,0,0,206.46,243.49Z"/><path class="cls-2" d="M202.18,245.93c0,.31,0,.62,0,.93,0-.2,0-.45,0-.77Z"/><path class="cls-2" d="M202.18,245.93v.16c0,1.39-.41,5.09-2.31,5.09-1.67,0-2.13-2.57-2.26-4.26a.53.53,0,0,1,0-.12l0-.59c0-.09,0-.19,0-.28a7.69,7.69,0,0,1,0-.83V245c0-.06,0-.12,0-.19a1.15,1.15,0,0,1,0-.18c.18-1.65.77-4,2.27-4C201.93,240.68,202.11,244.58,202.18,245.93Z"/><path class="cls-2" d="M200.68,153l-.86.85c-3.43,3.26.87-1.28-1.11-3.15A9.83,9.83,0,0,1,200.68,153Z"/><path class="cls-2" d="M199.94,252.71c3.43.41,3,10.85,0,10.5-.48-.06-1-.13-1.45-.22-.2-3.54-.4-7.07-.58-10.61C198.56,252.52,199.24,252.63,199.94,252.71Z"/><path class="cls-2" d="M197.57,246.21l0,.59C197.58,246.58,197.58,246.38,197.57,246.21Z"/><path class="cls-2" d="M197.57,245.1a7.69,7.69,0,0,0,0,.83A4.69,4.69,0,0,1,197.57,245.1Z"/><path class="cls-2" d="M190.82,757.74c.48.8.85,1.52.52,1.38l-1.29-.53A10,10,0,0,0,190.82,757.74Z"/><path class="cls-2" d="M190.82,757.74a10,10,0,0,1-.77.85c-3.62-1.5-7.3-3.08-11-4.75a19.25,19.25,0,0,0,6.47-2.62c1.6.89,3.08,3.31,4,4.6C189.67,755.94,190.31,756.88,190.82,757.74Z"/><path class="cls-2" d="M190.05,758.59a5.45,5.45,0,0,1-.58.6c-3.85,3.75-8.84,5.14-14.05,5.75-6.85.8-14,1.23-20.93,1.34-14.1.23-28.66-4.52-42-8.54-16.81-5.08-33.36-11-49.76-17.31-13.65-5.24-29.89-10-40.31-20.84-10.11-10.48-8.08-26.05,1.24-36.29,8.43-9.25,18.72-13,31.08-13.63,17.49-.95,36.1-1.08,51.63,7.94-.22,1.13-.42,2.28-.6,3.43-.71-.63-1.39-1.16-1.32-1,.33,1,.67,1.93,1,2.87-.26,2.79,1.11,5.63,2.44,5.82.06.11.1.22.16.33a.93.93,0,0,1-.94-.11c-16.33-10.54-37.64-10.27-56.37-8.52-6.87.63-13.14,2.43-18.75,6.54-4.56,3.37-10.3,8.51-11.55,14.26C19,708,28.18,713.79,33,716.71a130.12,130.12,0,0,0,19.05,8.93c14.52,5.8,29.17,11.29,44,16.3,14.6,4.93,29.46,9.68,44.65,12.41,11.59,2.09,23.7,1.52,35.34,0a29.74,29.74,0,0,0,3-.52C182.75,755.51,186.43,757.09,190.05,758.59Z"/><path class="cls-2" d="M186.21,244.4l0,.08c-.4,1.52-.41,1.44-.07-.23Z"/><path class="cls-2" d="M185.2,751.06l.32.16a19.25,19.25,0,0,1-6.47,2.62c-15.43-7-31-15.51-42.83-27-11.16-10.85-21.51-23.52-28.15-37.75a1.52,1.52,0,0,0,.74-.66h0a5.24,5.24,0,0,0,1.11-2.78,8.61,8.61,0,0,1,1.12,2.11C122.36,721.29,154.39,738.34,185.2,751.06Z"/><path class="cls-11" d="M179.05,753.84a29.74,29.74,0,0,1-3,.52c-11.64,1.51-23.75,2.08-35.34,0-15.19-2.73-30-7.48-44.65-12.41-14.81-5-29.46-10.5-44-16.3A130.12,130.12,0,0,1,33,716.71c-4.83-2.92-14-8.73-12.55-15.46,1.25-5.75,7-10.89,11.55-14.26,5.61-4.11,11.88-5.91,18.75-6.54,18.73-1.75,40-2,56.37,8.52a.93.93,0,0,0,.94.11c6.64,14.23,17,26.9,28.15,37.75C148.06,738.33,163.62,746.87,179.05,753.84Z"/><path class="cls-2" d="M109.76,685.41l.17.22a5.24,5.24,0,0,1-1.11,2.78A7.8,7.8,0,0,0,109.76,685.41Z"/><path class="cls-2" d="M108.36,678.84c1.43.92,1.77,4,1.4,6.57-.77-1.06-1.69-2.07-2.46-2.94-.2-.22-.88-.87-1.54-1.43.18-1.15.38-2.3.6-3.43C107,678,107.7,678.41,108.36,678.84Z"/><path class="cls-2" d="M107.3,682.47c.77.87,1.69,1.88,2.46,2.94a7.8,7.8,0,0,1-.94,3h0a1.06,1.06,0,0,1-.9.33q-1.32-2.88-2.44-5.82a3,3,0,0,1,0-.42q.11-.74.24-1.47C106.42,681.6,107.1,682.25,107.3,682.47Z"/><path class="cls-2" d="M107.91,688.75a1.06,1.06,0,0,0,.9-.33,1.52,1.52,0,0,1-.74.66C108,689,108,688.86,107.91,688.75Z"/><path class="cls-2" d="M105.76,681q-.14.74-.24,1.47a3,3,0,0,0,0,.42c-.36-.94-.7-1.9-1-2.87C104.37,679.88,105.05,680.41,105.76,681Z"/><path class="cls-2" d="M105.47,682.93q1.13,2.94,2.44,5.82C106.58,688.56,105.21,685.72,105.47,682.93Z"/><ellipse class="cls-12" cx="363.74" cy="436.25" rx="23.64" ry="38" transform="translate(-64.59 63.21) rotate(-9.13)"/></svg>